<svg version="1.1" xmlns="http://www.w3.org/2000/svg" style="display: block;" viewBox="389.333 0 1268 1152" width="1268" height="1152" preserveAspectRatio="none">
<defs>
	<linearGradient id="Gradient1" gradientUnits="userSpaceOnUse" x1="1209.51" y1="548.781" x2="1178.77" y2="526.84">
		<stop class="stop0" offset="0" stop-opacity="1" stop-color="rgb(225,154,0)"/>
		<stop class="stop1" offset="1" stop-opacity="1" stop-color="rgb(245,198,67)"/>
	</linearGradient>
	<linearGradient id="Gradient2" gradientUnits="userSpaceOnUse" x1="990.664" y1="715.861" x2="1047.93" y2="742.998">
		<stop class="stop0" offset="0" stop-opacity="1" stop-color="rgb(162,111,4)"/>
		<stop class="stop1" offset="1" stop-opacity="1" stop-color="rgb(250,175,28)"/>
	</linearGradient>
	<linearGradient id="Gradient3" gradientUnits="userSpaceOnUse" x1="996.649" y1="608.357" x2="972.083" y2="625.541">
		<stop class="stop0" offset="0" stop-opacity="1" stop-color="rgb(194,124,6)"/>
		<stop class="stop1" offset="1" stop-opacity="1" stop-color="rgb(236,170,26)"/>
	</linearGradient>
	<linearGradient id="Gradient4" gradientUnits="userSpaceOnUse" x1="960.94" y1="666.241" x2="877.03" y2="943.931">
		<stop class="stop0" offset="0" stop-opacity="1" stop-color="rgb(254,227,122)"/>
		<stop class="stop1" offset="1" stop-opacity="1" stop-color="rgb(254,255,236)"/>
	</linearGradient>
	<linearGradient id="Gradient5" gradientUnits="userSpaceOnUse" x1="1038.78" y1="415.585" x2="1076.57" y2="505.631">
		<stop class="stop0" offset="0" stop-opacity="1" stop-color="rgb(254,230,137)"/>
		<stop class="stop1" offset="1" stop-opacity="1" stop-color="rgb(254,251,227)"/>
	</linearGradient>
	<linearGradient id="Gradient6" gradientUnits="userSpaceOnUse" x1="1066.14" y1="457.668" x2="1018.41" y2="696.678">
		<stop class="stop0" offset="0" stop-opacity="1" stop-color="rgb(216,145,11)"/>
		<stop class="stop1" offset="1" stop-opacity="1" stop-color="rgb(255,227,91)"/>
	</linearGradient>
	<linearGradient id="Gradient7" gradientUnits="userSpaceOnUse" x1="1466.02" y1="101.556" x2="1482.85" y2="274.371">
		<stop class="stop0" offset="0" stop-opacity="1" stop-color="rgb(3,144,252)"/>
		<stop class="stop1" offset="1" stop-opacity="1" stop-color="rgb(15,168,252)"/>
	</linearGradient>
	<linearGradient id="Gradient8" gradientUnits="userSpaceOnUse" x1="893.94" y1="406.421" x2="895.194" y2="430.111">
		<stop class="stop0" offset="0" stop-opacity="1" stop-color="rgb(195,123,6)"/>
		<stop class="stop1" offset="1" stop-opacity="1" stop-color="rgb(227,163,23)"/>
	</linearGradient>
	<linearGradient id="Gradient9" gradientUnits="userSpaceOnUse" x1="1042.56" y1="354.151" x2="1067.06" y2="412.253">
		<stop class="stop0" offset="0" stop-opacity="1" stop-color="rgb(249,206,78)"/>
		<stop class="stop1" offset="1" stop-opacity="1" stop-color="rgb(255,235,145)"/>
	</linearGradient>
	<linearGradient id="Gradient10" gradientUnits="userSpaceOnUse" x1="1082.72" y1="155.183" x2="1148.76" y2="330.698">
		<stop class="stop0" offset="0" stop-opacity="1" stop-color="rgb(210,140,3)"/>
		<stop class="stop1" offset="1" stop-opacity="1" stop-color="rgb(249,204,75)"/>
	</linearGradient>
	<linearGradient id="Gradient11" gradientUnits="userSpaceOnUse" x1="510.235" y1="166.099" x2="537.565" y2="189.717">
		<stop class="stop0" offset="0" stop-opacity="1" stop-color="rgb(105,255,253)"/>
		<stop class="stop1" offset="1" stop-opacity="1" stop-color="rgb(70,232,254)"/>
	</linearGradient>
	<linearGradient id="Gradient12" gradientUnits="userSpaceOnUse" x1="509.202" y1="254.281" x2="1018.06" y2="490.169">
		<stop class="stop0" offset="0" stop-opacity="1" stop-color="rgb(39,182,253)"/>
		<stop class="stop1" offset="1" stop-opacity="1" stop-color="rgb(69,208,253)"/>
	</linearGradient>
</defs>
<path transform="translate(0,0)" fill="rgb(56,199,252)" d="M 1295.75 67.1918 C 1301.18 61.6493 1365.24 22.8909 1370.83 22.2309 C 1372.65 24.1581 1374.59 26.0094 1374.53 28.8618 C 1374.32 38.5589 1338.89 91.4472 1331.89 103.903 L 1522.83 103.607 L 1575.6 103.628 C 1599.6 103.607 1630.98 98.9036 1632.96 133.591 C 1633.17 137.23 1632.08 140.726 1630.44 143.965 C 1582.02 225.969 1531.53 306.999 1482.68 388.761 L 1145.18 951.057 L 1082.44 1055.84 C 1072.63 1072.41 1054.28 1108.05 1041.99 1120.45 C 1007.05 1155.71 978.298 1086.06 966.73 1066.49 L 904.471 963.454 C 897.059 951.011 878.613 917.42 871.189 907.199 L 872.531 903.443 C 868.172 903.881 864.606 904.598 860.468 903.196 L 858.644 905.207 L 853.315 911.475 C 858.166 911.529 857.607 910.816 861.228 913.032 C 861.652 914.113 862.299 915.602 862.597 916.678 L 802.943 981.34 C 799.29 985.307 794.117 991.244 790.373 994.837 L 789.565 995.964 C 784.432 1001.61 772.568 1016.14 765.036 1016.79 C 761.955 1015.41 763.045 1016.22 761.05 1012.49 C 761.092 1011.59 761.086 1009.86 761.345 1009.11 C 764.282 1000.3 776.877 976.538 781.533 967.28 L 823.04 885.086 C 826.19 878.888 837.044 855.439 839.729 852.253 L 839.954 850.839 C 831.13 832.556 813.305 805.123 802.407 787.1 L 738.616 680.833 C 657.103 547.703 576.504 414.015 496.824 279.78 C 478.196 248.164 458.108 216.847 439.627 185.123 C 433.277 174.222 418.738 151.687 414.811 140.887 C 413.012 130.363 414.435 120.515 422.286 112.646 C 425.936 109.141 432.122 104.738 437.335 104.501 C 466.682 103.168 496.978 103.733 526.339 103.761 L 692.735 103.893 L 1237.29 103.823 C 1239.23 101.986 1252.11 94.0164 1255.13 92.1345 C 1268.61 83.7264 1282.15 75.412 1295.75 67.1918 z"/>
<path transform="translate(0,0)" fill="url(#Gradient12)" d="M 1295.75 67.1918 C 1301.18 61.6493 1365.24 22.8909 1370.83 22.2309 C 1367.8 28.2639 1361.22 35.3063 1356.55 40.3157 C 1353.61 40.6811 1347.69 44.6163 1345.64 46.5957 C 1343.86 52.846 1337.82 53.5819 1337.44 57.0796 C 1336.99 58.882 1185.87 272.849 1169.7 293.848 L 1122.14 362.831 C 1119.48 366.666 1104.28 389.014 1102.01 391.248 C 1090.56 391.45 1094.91 398.1 1089.61 403.363 C 1085.17 403.805 1083.92 401.298 1083.24 401.39 C 1067.18 403.569 1055.55 408.325 1042.99 418.542 C 1040.6 420.485 1037.99 419.315 1035.06 419.673 C 1021.53 423.832 990.74 451.419 976.478 442.389 C 975.693 439.325 975.964 437.878 976.218 434.804 C 947.821 481.718 922.097 531.41 893.953 578.588 C 892.815 580.494 892.103 583.764 891.739 585.979 L 891.552 587.085 C 886.4 590.553 882.314 598.871 877.242 598.743 L 876.325 596.776 C 875.089 598.731 874.996 598.698 874.511 600.904 C 872.49 602.497 870.365 604.423 868.025 605.349 C 866.049 606.838 856.56 614.056 855.056 614.727 L 851.647 618.122 C 848.452 621.069 847.839 621.701 845.486 625.337 C 845.948 628.655 845.874 630.947 848.398 633.184 C 854.717 636.784 942.408 631.071 958.869 631.077 C 952.033 645.189 943.046 660.969 935.496 674.917 L 876.182 784.059 L 872.535 791.191 C 868.779 796.81 865.898 803.223 862.934 809.321 L 855.711 822.739 C 851.366 830.817 847.131 838.954 843.008 847.147 L 839.954 850.839 C 831.13 832.556 813.305 805.123 802.407 787.1 L 738.616 680.833 C 657.103 547.703 576.504 414.015 496.824 279.78 C 478.196 248.164 458.108 216.847 439.627 185.123 C 433.277 174.222 418.738 151.687 414.811 140.887 C 413.012 130.363 414.435 120.515 422.286 112.646 C 425.936 109.141 432.122 104.738 437.335 104.501 C 466.682 103.168 496.978 103.733 526.339 103.761 L 692.735 103.893 L 1237.29 103.823 C 1239.23 101.986 1252.11 94.0164 1255.13 92.1345 C 1268.61 83.7264 1282.15 75.412 1295.75 67.1918 z"/>
<path transform="translate(0,0)" fill="rgb(11,156,251)" d="M 414.811 140.887 C 413.012 130.363 414.435 120.515 422.286 112.646 C 425.936 109.141 432.122 104.738 437.335 104.501 C 466.682 103.168 496.978 103.733 526.339 103.761 L 692.735 103.893 L 1237.29 103.823 C 1231.19 109.166 1224.16 112.137 1220.37 115.37 L 1216.2 117.777 C 1211.5 120.953 1181.83 139.514 1180.41 141.957 L 1179.24 142.171 C 1176.56 143.979 1171.15 147.419 1168.86 149.316 C 1158.65 155.37 1148.67 161.79 1138.92 168.562 C 1136.91 169.925 1133.88 172.127 1131.8 173.142 C 1129.43 174.725 1120.06 181.215 1118.04 182.233 C 1112.22 181.143 1103.08 181.151 1097.09 181.607 C 1076.62 183.164 1056.08 182.464 1035.68 184.451 C 1032.82 184.73 1030.21 185.25 1027.3 185.279 L 838.217 185.92 C 816.612 185.907 770.7 184.058 751.599 185.873 L 749.315 188.534 C 690.896 186.425 630.946 186.63 572.351 185.63 C 564.907 185.503 547.443 186.59 540.685 189.201 C 538.587 191.452 537.246 195.255 537.897 198.3 C 539.001 197.192 538.948 197.247 539.629 195.835 L 539.717 196.814 C 541.469 214.868 574.373 263.518 584.925 280.256 L 633.595 358.512 C 650.962 386.945 667.021 416.829 684.861 445.139 C 692.396 457.201 698.449 470.311 705.812 482.401 C 720.067 505.807 735.669 528.477 748.342 552.814 C 751.78 559.417 756.412 562.56 755.721 569.854 C 755.7 570.086 763.753 582.413 764.443 583.931 C 771.261 597.059 809.677 658.746 811.491 667.054 C 815.493 672.705 819.245 679.404 822.595 685.456 C 838.652 714.466 857.094 741.898 869.406 772.835 C 870.736 776.177 873.239 781.918 876.182 784.059 L 872.535 791.191 C 868.779 796.81 865.898 803.223 862.934 809.321 L 855.711 822.739 C 851.366 830.817 847.131 838.954 843.008 847.147 L 839.954 850.839 C 831.13 832.556 813.305 805.123 802.407 787.1 L 738.616 680.833 C 657.103 547.703 576.504 414.015 496.824 279.78 C 478.196 248.164 458.108 216.847 439.627 185.123 C 433.277 174.222 418.738 151.687 414.811 140.887 z"/>
<path transform="translate(0,0)" fill="rgb(252,254,253)" d="M 862.934 809.321 C 841.991 776.812 819.718 737.576 799.613 703.964 L 680.459 504.845 L 546.579 281.793 C 523.906 244.006 501.703 205.916 478.731 168.318 C 475.499 163.028 475.677 156.605 480.623 152.373 C 483.48 149.93 485.726 149.796 489.407 149.589 C 510.553 149.267 531.723 149.494 552.876 149.484 L 683.168 149.457 L 997.292 149.477 C 1054.48 149.766 1111.67 149.712 1168.86 149.316 C 1158.65 155.37 1148.67 161.79 1138.92 168.562 C 1136.91 169.925 1133.88 172.127 1131.8 173.142 C 1129.43 174.725 1120.06 181.215 1118.04 182.233 C 1112.22 181.143 1103.08 181.151 1097.09 181.607 C 1076.62 183.164 1056.08 182.464 1035.68 184.451 C 1032.82 184.73 1030.21 185.25 1027.3 185.279 L 838.217 185.92 C 816.612 185.907 770.7 184.058 751.599 185.873 L 749.315 188.534 C 690.896 186.425 630.946 186.63 572.351 185.63 C 564.907 185.503 547.443 186.59 540.685 189.201 C 538.587 191.452 537.246 195.255 537.897 198.3 C 539.001 197.192 538.948 197.247 539.629 195.835 L 539.717 196.814 C 541.469 214.868 574.373 263.518 584.925 280.256 L 633.595 358.512 C 650.962 386.945 667.021 416.829 684.861 445.139 C 692.396 457.201 698.449 470.311 705.812 482.401 C 720.067 505.807 735.669 528.477 748.342 552.814 C 751.78 559.417 756.412 562.56 755.721 569.854 C 755.7 570.086 763.753 582.413 764.443 583.931 C 771.261 597.059 809.677 658.746 811.491 667.054 C 815.493 672.705 819.245 679.404 822.595 685.456 C 838.652 714.466 857.094 741.898 869.406 772.835 C 870.736 776.177 873.239 781.918 876.182 784.059 L 872.535 791.191 C 868.779 796.81 865.898 803.223 862.934 809.321 z"/>
<path transform="translate(0,0)" fill="rgb(83,240,253)" d="M 511.096 167.33 C 632.424 165.703 757.026 167.213 878.604 167.188 L 1044.69 167.112 C 1056.41 167.107 1134.02 166.172 1138.92 168.562 C 1136.91 169.925 1133.88 172.127 1131.8 173.142 C 1129.43 174.725 1120.06 181.215 1118.04 182.233 C 1112.22 181.143 1103.08 181.151 1097.09 181.607 C 1076.62 183.164 1056.08 182.464 1035.68 184.451 C 1032.82 184.73 1030.21 185.25 1027.3 185.279 L 838.217 185.92 C 816.612 185.907 770.7 184.058 751.599 185.873 L 749.315 188.534 C 690.896 186.425 630.946 186.63 572.351 185.63 C 564.907 185.503 547.443 186.59 540.685 189.201 C 538.587 191.452 537.246 195.255 537.897 198.3 C 539.001 197.192 538.948 197.247 539.629 195.835 L 539.717 196.814 C 541.469 214.868 574.373 263.518 584.925 280.256 L 633.595 358.512 C 650.962 386.945 667.021 416.829 684.861 445.139 C 692.396 457.201 698.449 470.311 705.812 482.401 C 720.067 505.807 735.669 528.477 748.342 552.814 C 751.78 559.417 756.412 562.56 755.721 569.854 C 755.7 570.086 763.753 582.413 764.443 583.931 C 771.261 597.059 809.677 658.746 811.491 667.054 C 802.61 656.215 795.365 636.754 786.881 628.583 L 785.296 629.842 C 787.995 637.709 793.717 651.121 792.998 659.107 C 779.201 637.598 764.451 611.312 751.092 588.996 L 662.894 441.865 C 653.713 425.611 639.538 405.29 631.493 389.094 C 605.448 348.672 581.855 305.546 556.489 264.61 C 543.119 243.033 529.717 220.365 517.132 198.315 C 512.257 188.638 504.588 178.345 499.033 167.449 L 511.096 167.33 z"/>
<path transform="translate(0,0)" fill="rgb(105,238,253)" d="M 511.096 167.33 C 632.424 165.703 757.026 167.213 878.604 167.188 L 1044.69 167.112 C 1056.41 167.107 1134.02 166.172 1138.92 168.562 C 1136.91 169.925 1133.88 172.127 1131.8 173.142 C 1130.07 170.877 1129.63 170.764 1126.93 169.773 C 1123.83 170.976 1121.74 171.43 1118.41 171.577 C 1079.89 173.168 1041.53 171.802 1002.99 174.013 C 989.496 174.787 975.011 172.678 961.198 175.052 C 958.812 175.461 951.768 174.862 948.984 174.72 L 951.48 174.177 C 928.955 172.227 905.529 174.401 882.957 174.14 C 853.778 173.328 825.006 173.679 795.847 174.903 C 781.583 175.501 764.939 173.498 750.321 173.559 C 712.557 173.824 674.792 173.553 637.037 172.748 C 622.471 172.451 608.629 172.74 594.009 171.929 L 598.814 171.559 C 583.163 170.275 557.966 171.389 541.417 171.509 C 539.53 171.631 535.665 170.403 533.366 170.011 C 527.789 169.061 515.147 170.97 511.096 167.33 z"/>
<path transform="translate(0,0)" fill="url(#Gradient11)" d="M 499.033 167.449 L 511.096 167.33 C 515.147 170.97 527.789 169.061 533.366 170.011 C 535.665 170.403 539.53 171.631 541.417 171.509 L 545.998 172.627 L 545.38 172.424 L 545.784 173.465 C 543.008 174.411 541.805 174.816 538.918 175.271 C 547.235 176.539 555.567 177.709 563.912 178.782 L 563.987 179.905 L 564.346 179.976 C 551.055 182.661 531.94 175.786 532.572 196.3 C 532.009 193.74 531.458 191.897 531.526 189.258 C 529.08 200.613 539.182 208.08 537.865 214.835 C 533.766 210.398 525.73 201.814 525.482 196.356 C 525.427 195.151 524.601 193.938 523.941 192.887 C 524.295 196.322 524.567 199.765 524.757 203.213 C 522.15 201.319 522.229 196.163 519.576 194.619 C 518.652 196.335 518.517 196.993 517.132 198.315 C 512.257 188.638 504.588 178.345 499.033 167.449 z"/>
<path transform="translate(0,0)" fill="rgb(105,238,253)" d="M 631.493 389.094 C 634.482 387.679 635.113 386.667 636.953 384.056 L 637.299 380.835 C 640.871 384.833 671.486 434.852 673.228 440.02 C 668.865 443.43 669.606 439.711 662.894 441.865 C 653.713 425.611 639.538 405.29 631.493 389.094 z"/>
<path transform="translate(0,0)" fill="rgb(105,238,253)" d="M 862.479 181.485 C 872.124 178.837 940.752 181.164 956.539 180.617 C 959.558 180.512 960.035 181.381 961.522 183.123 C 952.798 185.865 875.239 183.146 862.479 181.485 z"/>
<path transform="translate(0,0)" fill="rgb(105,238,253)" d="M 758 578.598 C 761.617 583.152 778.749 613.891 782.107 619.936 C 772.215 612.908 758.489 600.43 757.653 587.325 C 757.503 584.984 757.87 581.041 758 578.598 z"/>
<path transform="translate(0,0)" fill="rgb(105,238,253)" d="M 907.51 177.5 C 914.44 175.762 976.033 176.023 982.482 178.609 C 970.997 180.11 964.941 179.005 953.699 178.537 C 938.509 177.906 922.67 179.042 907.51 177.5 z"/>
<path transform="translate(0,0)" fill="rgb(105,238,253)" d="M 792.998 659.107 C 793.717 651.121 787.995 637.709 785.296 629.842 L 786.881 628.583 C 795.365 636.754 802.61 656.215 811.491 667.054 C 815.493 672.705 819.245 679.404 822.595 685.456 C 838.652 714.466 857.094 741.898 869.406 772.835 C 870.736 776.177 873.239 781.918 876.182 784.059 L 872.535 791.191 C 865.478 782.083 851.383 757.07 844.955 746.293 L 792.998 659.107 z"/>
<path transform="translate(0,0)" fill="rgb(16,173,251)" d="M 414.811 140.887 C 413.012 130.363 414.435 120.515 422.286 112.646 C 425.936 109.141 432.122 104.738 437.335 104.501 C 466.682 103.168 496.978 103.733 526.339 103.761 L 692.735 103.893 L 1237.29 103.823 C 1231.19 109.166 1224.16 112.137 1220.37 115.37 L 1216.2 117.777 C 1162.51 116.149 1106.73 119.25 1053.16 119.043 L 744.352 119.037 C 702.147 119.107 660.614 115.655 618.372 120.24 C 609.222 121.233 602.37 115.278 593.901 117.817 L 592.772 119.074 C 594.891 120.153 596.1 119.917 598.557 119.925 C 598.103 120.163 563.884 120.3 559.926 120.41 C 560.105 118.769 559.88 119.582 561.212 118.106 C 557.538 116.886 525.482 117.483 520.734 118.211 C 528.219 118.833 545.148 118.885 550.556 120.402 C 517.413 120.467 484.236 121.476 451.087 121.475 C 447.855 121.475 444.261 119.201 441.6 118.513 C 440.002 118.1 433.346 123.213 432.863 123.298 C 430.499 123.718 427.281 136.382 427.546 137.193 C 432.105 151.129 453.557 182.512 460.467 194.523 C 502.962 268.381 548.082 340.345 591.482 413.496 L 641.12 496.294 C 644.225 501.378 652.392 516.974 654.852 519.993 C 664.202 531.472 669.619 543.894 677.469 557.111 L 718.628 625.669 C 728.253 641.785 738.797 657.218 748.465 673.546 C 778.442 724.168 807.627 775.224 836.704 826.355 C 840.663 833.317 841.777 839.37 843.008 847.147 L 839.954 850.839 C 831.13 832.556 813.305 805.123 802.407 787.1 L 738.616 680.833 C 657.103 547.703 576.504 414.015 496.824 279.78 C 478.196 248.164 458.108 216.847 439.627 185.123 C 433.277 174.222 418.738 151.687 414.811 140.887 z"/>
<path transform="translate(0,0)" fill="rgb(56,199,252)" d="M 414.811 140.887 C 413.012 130.363 414.435 120.515 422.286 112.646 C 425.936 109.141 432.122 104.738 437.335 104.501 C 466.682 103.168 496.978 103.733 526.339 103.761 L 692.735 103.893 L 1237.29 103.823 C 1231.19 109.166 1224.16 112.137 1220.37 115.37 C 1193.96 109.834 1148.9 113.374 1121.1 113.545 L 971.788 113.571 L 663 113.719 C 597.665 113.012 532.325 112.949 466.989 113.529 C 462.308 113.607 457.258 113.996 452.661 114.126 C 428.852 114.797 428.2 117.289 424.049 139.249 L 423.025 138.76 C 422.816 135.422 423.247 126.067 422.412 124.455 C 418.757 130.355 425.414 140.649 414.811 140.887 z"/>
<path transform="translate(0,0)" fill="rgb(83,240,253)" d="M 855.711 822.739 C 854.938 818.859 839.764 798.713 836.589 793.72 C 821.865 770.558 807.771 746.755 793.55 723.289 L 582.586 370.164 L 505.825 241.409 C 495.781 224.411 485.636 207.506 475.606 190.469 C 469.968 180.879 464.13 169.729 466.025 158.231 C 468.774 141.553 482.493 136.815 497.674 136.032 C 507.778 135.51 518.483 135.976 528.674 135.872 C 559.79 135.663 590.906 135.715 622.021 136.027 L 849.868 136.029 L 1028.25 136.112 C 1054.33 135.918 1080.42 135.923 1106.51 136.126 C 1135.72 136.311 1150.71 136.394 1179.24 142.171 C 1176.56 143.979 1171.15 147.419 1168.86 149.316 C 1111.67 149.712 1054.48 149.766 997.292 149.477 L 683.168 149.457 L 552.876 149.484 C 531.723 149.494 510.553 149.267 489.407 149.589 C 485.726 149.796 483.48 149.93 480.623 152.373 C 475.677 156.605 475.499 163.028 478.731 168.318 C 501.703 205.916 523.906 244.006 546.579 281.793 L 680.459 504.845 L 799.613 703.964 C 819.718 737.576 841.991 776.812 862.934 809.321 L 855.711 822.739 z"/>
<path transform="translate(0,0)" fill="url(#Gradient10)" d="M 1337.44 57.0796 C 1336.99 58.882 1185.87 272.849 1169.7 293.848 L 1122.14 362.831 C 1119.48 366.666 1104.28 389.014 1102.01 391.248 C 1090.56 391.45 1094.91 398.1 1089.61 403.363 C 1085.17 403.805 1083.92 401.298 1083.24 401.39 C 1067.18 403.569 1055.55 408.325 1042.99 418.542 C 1040.6 420.485 1037.99 419.315 1035.06 419.673 C 1021.53 423.832 990.74 451.419 976.478 442.389 C 975.693 439.325 975.964 437.878 976.218 434.804 C 978.164 429.687 986.538 417.359 986.255 412.813 L 984.16 412.667 C 979.643 411.146 949.336 409.959 941.601 409.068 C 924.866 409.311 899.042 406.43 880.964 405.695 C 887.008 404.395 1110.38 235.638 1132.04 219.075 C 1185.42 178.261 1287.6 103.17 1337.44 57.0796 z"/>
<path transform="translate(0,0)" fill="url(#Gradient9)" d="M 1048.7 356.673 C 1049.31 356.034 1049.97 355.362 1050.6 354.726 C 1058.51 346.768 1073.52 342.894 1084.13 339.56 C 1087.76 338.418 1093.49 338.852 1097.2 337.398 C 1099.83 336.372 1106.23 331.009 1108.58 330.58 C 1114.09 329.571 1121.77 329.709 1127.41 328.045 C 1127.42 328.045 1130.19 324.563 1130.19 324.563 C 1133.43 324.466 1141.05 324.671 1143.72 322.849 C 1153.03 316.505 1158.82 299.05 1169.7 293.848 L 1122.14 362.831 C 1119.48 366.666 1104.28 389.014 1102.01 391.248 C 1090.56 391.45 1094.91 398.1 1089.61 403.363 C 1085.17 403.805 1083.92 401.298 1083.24 401.39 C 1067.18 403.569 1055.55 408.325 1042.99 418.542 C 1040.6 420.485 1037.99 419.315 1035.06 419.673 C 1021.53 423.832 990.74 451.419 976.478 442.389 C 975.693 439.325 975.964 437.878 976.218 434.804 C 978.164 429.687 986.538 417.359 986.255 412.813 L 984.16 412.667 C 979.643 411.146 949.336 409.959 941.601 409.068 C 949.809 406.698 950.468 401.554 953.75 399.585 C 961.819 394.743 982.023 381.596 990.942 381.914 C 992.996 381.987 993.307 381.836 995.181 380.829 C 995.645 378.959 995.834 378.374 996.549 376.584 L 997.897 376.374 C 998.835 376.223 999.705 376.058 1000.66 376.059 C 1017.89 376.067 1030.77 354.658 1048.7 356.673 z"/>
<path transform="translate(0,0)" fill="rgb(253,249,210)" d="M 1295.75 67.1918 C 1301.18 61.6493 1365.24 22.8909 1370.83 22.2309 C 1367.8 28.2639 1361.22 35.3063 1356.55 40.3157 C 1353.61 40.6811 1347.69 44.6163 1345.64 46.5957 C 1343.86 52.846 1337.82 53.5819 1337.44 57.0796 C 1287.6 103.17 1185.42 178.261 1132.04 219.075 C 1110.38 235.638 887.008 404.395 880.964 405.695 C 899.042 406.43 924.866 409.311 941.601 409.068 C 949.336 409.959 979.643 411.146 984.16 412.667 L 983.33 413.413 C 977.064 417.299 957.894 429.673 952.282 432.169 L 951.384 433.26 C 948.675 437.832 944.057 445.122 941.998 449.757 L 941.278 450.578 C 938.465 450.276 935.192 450.38 932.335 450.34 C 901.087 449.896 869.648 450.927 838.421 450.042 L 830.45 450.418 C 809.535 449.735 787.593 451.307 766.663 450.022 C 761.973 449.734 760.991 448.612 758.17 445.097 C 758.102 443.394 758.155 441.688 758.329 439.993 C 758.764 435.47 760.3 434.293 763.633 431.497 C 767.953 429.517 787.461 414.603 792.242 411.033 C 808.334 398.983 824.542 387.088 840.864 375.351 C 869.236 354.881 897.714 334.558 926.296 314.383 C 940.1 304.651 962.634 289.81 975.053 279.255 C 999.12 261.393 1042.09 231.826 1067.77 216.161 C 1071.64 211.703 1110.98 186.904 1118.04 182.233 C 1120.06 181.215 1129.43 174.725 1131.8 173.142 C 1133.88 172.127 1136.91 169.925 1138.92 168.562 C 1148.67 161.79 1158.65 155.37 1168.86 149.316 C 1171.15 147.419 1176.56 143.979 1179.24 142.171 L 1180.41 141.957 C 1181.83 139.514 1211.5 120.953 1216.2 117.777 L 1220.37 115.37 C 1224.16 112.137 1231.19 109.166 1237.29 103.823 C 1239.23 101.986 1252.11 94.0164 1255.13 92.1345 C 1268.61 83.7264 1282.15 75.412 1295.75 67.1918 z"/>
<path transform="translate(0,0)" fill="url(#Gradient8)" d="M 880.964 405.695 C 899.042 406.43 924.866 409.311 941.601 409.068 C 949.336 409.959 979.643 411.146 984.16 412.667 L 983.33 413.413 C 977.064 417.299 957.894 429.673 952.282 432.169 L 951.384 433.26 C 948.675 437.832 944.057 445.122 941.998 449.757 L 941.278 450.578 C 938.465 450.276 935.192 450.38 932.335 450.34 C 901.087 449.896 869.648 450.927 838.421 450.042 L 830.45 450.418 C 809.535 449.735 787.593 451.307 766.663 450.022 C 761.973 449.734 760.991 448.612 758.17 445.097 C 760.522 429.8 771.598 433.997 784.343 433.798 C 786.911 433.113 815.939 432.942 820.345 432.888 L 820.782 432.248 C 813.559 430.966 784.903 428.95 782.506 427.009 L 783.313 424.629 C 786.389 422.695 790.452 424.452 794.652 423.481 L 796.147 422.515 C 819.559 416.373 856.555 410.113 880.964 405.695 z"/>
<path transform="translate(0,0)" fill="rgb(163,97,2)" d="M 835.597 433.906 C 861.504 432.123 905.711 433.167 932.602 433.191 C 938.663 433.177 945.383 433.013 951.384 433.26 C 948.675 437.832 944.057 445.122 941.998 449.757 L 941.278 450.578 C 938.465 450.276 935.192 450.38 932.335 450.34 C 901.087 449.896 869.648 450.927 838.421 450.042 L 830.45 450.418 C 809.535 449.735 787.593 451.307 766.663 450.022 C 761.973 449.734 760.991 448.612 758.17 445.097 C 760.522 429.8 771.598 433.997 784.343 433.798 C 793.046 433.868 830.214 433.047 835.597 433.906 z"/>
<path transform="translate(0,0)" fill="rgb(140,76,1)" d="M 835.597 433.906 C 861.504 432.123 905.711 433.167 932.602 433.191 C 938.663 433.177 945.383 433.013 951.384 433.26 C 948.675 437.832 944.057 445.122 941.998 449.757 L 941.278 450.578 C 938.465 450.276 935.192 450.38 932.335 450.34 C 901.087 449.896 869.648 450.927 838.421 450.042 C 849.621 446.595 891.96 451.761 907.336 445.027 C 908.163 444.665 913.918 439.937 915.86 438.64 C 920.157 438.442 920.986 439.065 922.536 435.294 C 904.102 436.409 852.781 436.506 835.597 433.906 z"/>
<path transform="translate(0,0)" fill="rgb(248,199,56)" d="M 784.343 433.798 C 786.911 433.113 815.939 432.942 820.345 432.888 L 820.782 432.248 C 813.559 430.966 784.903 428.95 782.506 427.009 L 783.313 424.629 C 786.389 422.695 790.452 424.452 794.652 423.481 C 817.993 426.47 940.101 423.64 949.457 428.63 L 950.254 429.79 C 946.443 431.943 932.979 431.403 927.934 431.357 L 952.282 432.169 L 951.384 433.26 C 945.383 433.013 938.663 433.177 932.602 433.191 C 905.711 433.167 861.504 432.123 835.597 433.906 C 830.214 433.047 793.046 433.868 784.343 433.798 z"/>
<path transform="translate(0,0)" fill="rgb(253,214,83)" d="M 1179.24 142.171 L 1180.41 141.957 C 1179.69 146.69 1178.81 147.267 1180.34 151.063 C 1183.22 152.13 1185.84 151.133 1188.98 150.451 C 1182.12 154.986 1174.48 159.829 1167.88 164.614 L 1161.95 168.379 L 1048 244.928 C 1038.51 251.352 1002.74 276.599 995.028 280.46 C 981.214 291.687 954.71 308.767 939.376 319.445 L 826.679 397.945 C 822.687 400.732 795.158 419.72 794.129 421.307 C 794.804 421.748 795.425 422.235 796.147 422.515 L 794.652 423.481 C 790.452 424.452 786.389 422.695 783.313 424.629 L 782.506 427.009 C 784.903 428.95 813.559 430.966 820.782 432.248 L 820.345 432.888 C 815.939 432.942 786.911 433.113 784.343 433.798 C 771.598 433.997 760.522 429.8 758.17 445.097 C 758.102 443.394 758.155 441.688 758.329 439.993 C 758.764 435.47 760.3 434.293 763.633 431.497 C 767.953 429.517 787.461 414.603 792.242 411.033 C 808.334 398.983 824.542 387.088 840.864 375.351 C 869.236 354.881 897.714 334.558 926.296 314.383 C 940.1 304.651 962.634 289.81 975.053 279.255 C 999.12 261.393 1042.09 231.826 1067.77 216.161 C 1071.64 211.703 1110.98 186.904 1118.04 182.233 C 1120.06 181.215 1129.43 174.725 1131.8 173.142 C 1133.88 172.127 1136.91 169.925 1138.92 168.562 C 1148.67 161.79 1158.65 155.37 1168.86 149.316 C 1171.15 147.419 1176.56 143.979 1179.24 142.171 z"/>
<path transform="translate(0,0)" fill="rgb(248,199,56)" d="M 1161.95 168.379 C 1157.57 169.441 1155.05 170.45 1151.5 167.188 L 1151.95 164.809 C 1155.19 160.733 1160.43 156.89 1165.86 159.084 C 1168.17 162.308 1167.69 160.839 1167.88 164.614 L 1161.95 168.379 z"/>
<path transform="translate(0,0)" fill="rgb(253,214,83)" d="M 1237.29 103.823 C 1239.23 101.986 1252.11 94.0164 1255.13 92.1345 C 1268.61 83.7264 1282.15 75.412 1295.75 67.1918 C 1298.06 70.9408 1296.94 71.4882 1295.69 75.9749 C 1296.76 77.0835 1296.72 77.2246 1298.14 77.7434 C 1264.68 101.801 1226.03 124.828 1191.63 148.748 L 1188.98 150.451 C 1185.84 151.133 1183.22 152.13 1180.34 151.063 C 1178.81 147.267 1179.69 146.69 1180.41 141.957 C 1181.83 139.514 1211.5 120.953 1216.2 117.777 L 1220.37 115.37 C 1224.16 112.137 1231.19 109.166 1237.29 103.823 z"/>
<path transform="translate(0,0)" fill="rgb(248,199,56)" d="M 1180.41 141.957 C 1184.99 142.671 1189.67 140.732 1192.36 142.602 C 1192.77 145.385 1192.42 145.952 1191.63 148.748 L 1188.98 150.451 C 1185.84 151.133 1183.22 152.13 1180.34 151.063 C 1178.81 147.267 1179.69 146.69 1180.41 141.957 z"/>
<path transform="translate(0,0)" fill="rgb(248,199,56)" d="M 1295.75 67.1918 C 1301.18 61.6493 1365.24 22.8909 1370.83 22.2309 C 1367.8 28.2639 1361.22 35.3063 1356.55 40.3157 C 1353.61 40.6811 1347.69 44.6163 1345.64 46.5957 C 1332.19 55.4946 1311.55 70.1337 1298.14 77.7434 C 1296.72 77.2246 1296.76 77.0835 1295.69 75.9749 C 1296.94 71.4882 1298.06 70.9408 1295.75 67.1918 z"/>
<path transform="translate(0,0)" fill="rgb(105,238,253)" d="M 754.087 442.355 C 752.92 441.9 751.639 441.349 750.686 440.511 C 745.406 435.866 713.566 372.685 713.554 367.102 C 713.532 357.354 707.19 347.692 704.788 338.264 C 695.684 302.539 703.695 300.169 720.531 272.013 C 731.544 272.605 733.744 262.086 749.587 262.717 L 750.723 262.768 L 753.237 259.224 C 757.033 257.587 777.405 256.63 782.095 256.971 L 782.603 257.011 L 785.342 254.236 C 795.378 255.304 805.048 251.783 815.385 251.649 C 822.411 251.558 831.317 252.34 838.089 251.932 C 847.488 251.813 859.45 249.328 868.803 250.127 C 885.321 251.538 901.845 250.878 918.261 251.677 C 928.453 252.173 940.646 254.493 950.944 255.712 C 959.14 262.734 957.682 267.57 958.898 277.35 C 959.882 285.256 958.106 282.227 956.113 287.51 L 956.901 287.855 C 963.486 279.147 965.586 281.337 974.321 279.421 L 975.053 279.255 C 962.634 289.81 940.1 304.651 926.296 314.383 C 897.714 334.558 869.236 354.881 840.864 375.351 C 824.542 387.088 808.334 398.983 792.242 411.033 C 787.461 414.603 767.953 429.517 763.633 431.497 C 760.503 429.229 761.785 429.495 758.662 429.764 C 755.217 432.478 754.616 438.191 754.087 442.355 z"/>
<path transform="translate(0,0)" fill="rgb(105,238,253)" d="M 754.087 442.355 C 754.616 438.191 755.217 432.478 758.662 429.764 C 761.785 429.495 760.503 429.229 763.633 431.497 C 760.3 434.293 758.764 435.47 758.329 439.993 C 758.155 441.688 758.102 443.394 758.17 445.097 C 760.991 448.612 761.973 449.734 766.663 450.022 C 787.593 451.307 809.535 449.735 830.45 450.418 C 834.781 451.459 834.623 450.329 839.057 451.106 L 839.709 451.226 L 838.621 450.482 L 839.931 451.846 C 825.645 451.866 813.563 452.403 799.493 454.629 C 794.71 455.386 790.485 454.887 785.739 454.478 C 786.379 455.685 786.281 455.206 788.128 455.992 L 788.587 457.781 C 786.453 459.408 786.288 459.51 784.765 461.685 C 787.939 466.511 798.428 475.764 803.78 479.154 C 805.32 480.13 814.521 480.549 816.924 481.361 C 825.308 485.315 850.145 487.134 856.376 491.528 C 883.387 510.574 872.736 546.32 860.849 570.918 C 858.769 575.22 855.712 578.071 855.057 581.928 C 854.413 585.719 853.724 589.429 849.861 591.566 C 846.471 592.662 844.69 595.928 842.643 598.68 C 823.536 592.745 796.349 532.52 786.692 513.728 C 785.942 512.268 788.004 508.51 787.26 505.283 L 783.945 503.822 C 782.456 497.826 778.748 477.128 779.981 472.097 L 783.201 470.606 L 782.528 468.784 C 780.074 466.294 775.688 466.098 771.69 464.758 C 769.205 460.483 771.986 463.527 771.535 458.534 L 769.314 458.787 L 768.751 457.589 C 770.019 456.505 771.294 455.43 772.576 454.363 C 762.679 454.099 754.882 454.551 754.087 442.355 z"/>
<path transform="translate(0,0)" fill="rgb(251,224,112)" d="M 984.16 412.667 L 986.255 412.813 C 986.538 417.359 978.164 429.687 976.218 434.804 C 947.821 481.718 922.097 531.41 893.953 578.588 C 892.815 580.494 892.103 583.764 891.739 585.979 L 891.552 587.085 C 886.4 590.553 882.314 598.871 877.242 598.743 L 876.325 596.776 C 875.089 598.731 874.996 598.698 874.511 600.904 C 872.49 602.497 870.365 604.423 868.025 605.349 C 866.049 606.838 856.56 614.056 855.056 614.727 L 851.647 618.122 C 848.452 621.069 847.839 621.701 845.486 625.337 C 845.511 625.155 845.539 624.972 845.56 624.789 C 846.499 616.319 908.993 508.193 917.384 493.991 C 921.336 483.966 935.839 463.121 941.278 450.578 L 941.998 449.757 C 944.057 445.122 948.675 437.832 951.384 433.26 L 952.282 432.169 C 957.894 429.673 977.064 417.299 983.33 413.413 L 984.16 412.667 z"/>
<path transform="translate(0,0)" fill="rgb(253,249,210)" d="M 984.16 412.667 L 986.255 412.813 C 986.538 417.359 978.164 429.687 976.218 434.804 C 947.821 481.718 922.097 531.41 893.953 578.588 C 892.815 580.494 892.103 583.764 891.739 585.979 L 891.552 587.085 C 886.4 590.553 882.314 598.871 877.242 598.743 L 876.325 596.776 L 887.805 576.195 C 891.461 571.245 907.482 542.072 911.441 535.073 C 924.475 512.031 940.26 487.671 952.593 464.649 C 959.136 455.348 978.363 422.957 983.33 413.413 L 984.16 412.667 z"/>
<path transform="translate(0,0)" fill="rgb(253,214,83)" d="M 952.282 432.169 C 957.894 429.673 977.064 417.299 983.33 413.413 C 978.363 422.957 959.136 455.348 952.593 464.649 C 948.837 467.916 939.631 481.87 934.842 487.612 L 934.516 486.172 L 932.9 485.67 L 932.831 486.182 C 932.453 488.804 932.198 490.58 930.245 492.419 C 927.301 489.58 927.056 489.48 927.703 485.649 C 929.51 484.26 929.902 484.26 932.161 483.585 L 932.833 483.39 C 929.816 482.497 930.123 483.123 928.762 481.098 C 929.495 472.433 943.923 456.999 941.998 449.757 C 944.057 445.122 948.675 437.832 951.384 433.26 L 952.282 432.169 z"/>
<path transform="translate(0,0)" fill="rgb(253,235,152)" d="M 941.998 449.757 C 943.923 456.999 929.495 472.433 928.762 481.098 C 930.123 483.123 929.816 482.497 932.833 483.39 L 932.161 483.585 C 929.902 484.26 929.51 484.26 927.703 485.649 C 927.056 489.48 927.301 489.58 930.245 492.419 C 928.2 494.974 929.337 494.126 928.499 496.251 C 925.113 504.832 918.332 515.729 913.58 523.495 L 912.954 521.969 L 913.252 521.339 C 915.086 517.406 917.074 499.117 917.384 493.991 C 921.336 483.966 935.839 463.121 941.278 450.578 L 941.998 449.757 z"/>
<path transform="translate(0,0)" fill="rgb(253,214,83)" d="M 855.056 614.727 C 855.684 607.791 878.452 575.777 885.131 572.202 L 887.048 572.833 L 887.805 576.195 L 876.325 596.776 C 875.089 598.731 874.996 598.698 874.511 600.904 C 872.49 602.497 870.365 604.423 868.025 605.349 C 866.049 606.838 856.56 614.056 855.056 614.727 z"/>
<path transform="translate(0,0)" fill="rgb(16,173,251)" d="M 560.084 189.502 C 576.704 190.041 592.685 188.401 610.452 189.37 C 606.091 190.272 597.271 189.997 592.5 190 C 588.597 190.05 578.91 189.426 576.274 189.932 C 578.543 191.93 579.623 191.573 582.962 192.234 C 574.609 195.083 562.401 194.025 554 192.003 C 555.646 190.122 557.275 190.233 560.084 189.502 z"/>
<path transform="translate(0,0)" fill="rgb(16,173,251)" d="M 1331.89 103.903 L 1522.83 103.607 L 1575.6 103.628 C 1599.6 103.607 1630.98 98.9036 1632.96 133.591 C 1633.17 137.23 1632.08 140.726 1630.44 143.965 C 1582.02 225.969 1531.53 306.999 1482.68 388.761 L 1145.18 951.057 L 1082.44 1055.84 C 1072.63 1072.41 1054.28 1108.05 1041.99 1120.45 C 1007.05 1155.71 978.298 1086.06 966.73 1066.49 L 904.471 963.454 C 897.059 951.011 878.613 917.42 871.189 907.199 L 872.531 903.443 C 873.966 902.858 876.431 900.344 877.696 899.176 C 878.672 897.571 883.89 891.809 885.424 890.051 L 898.437 875.346 L 905.184 867.796 L 910.349 862.247 L 912.308 864.41 C 932.657 865.811 988.344 979.401 1003.61 997.438 C 1007.49 1002.02 1010.18 1005.28 1015.09 1009.55 L 1027.57 1009.44 C 1026.61 1010.16 1025.35 1011.35 1024.42 1012.18 C 1026.34 1015.24 1023.74 1014.03 1025.72 1017.19 C 1035.61 1014.87 1054.64 973.938 1059.35 969.772 C 1060.89 966.801 1063.16 961.119 1065.6 959.835 C 1067.18 962.905 1067.39 965.153 1067.99 968.498 C 1073.31 958.931 1079.27 949.984 1084.61 940.095 C 1088.42 934.596 1093.28 925.964 1096.85 920.049 C 1102.46 910.456 1108.26 900.144 1114.22 890.833 L 1354 490.349 C 1362.87 475.561 1372.31 460.083 1380.65 445.053 C 1382.31 443.548 1393.74 423.585 1395.71 420.233 C 1409.43 397.474 1423.75 372.463 1437.94 350.202 C 1446.35 334.403 1459.02 314.727 1468.45 299.134 L 1520.81 212.071 C 1528.26 201.331 1539.97 180.164 1546.94 168.459 C 1543.6 166.639 1312.81 167.173 1290.79 167.111 C 1294.66 160.619 1298.03 155.069 1302.35 148.862 C 1306.03 142.779 1310.93 134.187 1315.03 128.686 L 1324.66 113.187 C 1326.54 110.239 1329.05 105.486 1331.89 103.903 z"/>
<path transform="translate(0,0)" fill="rgb(56,199,252)" d="M 1331.89 103.903 L 1522.83 103.607 L 1575.6 103.628 C 1599.6 103.607 1630.98 98.9036 1632.96 133.591 C 1633.17 137.23 1632.08 140.726 1630.44 143.965 C 1582.02 225.969 1531.53 306.999 1482.68 388.761 L 1145.18 951.057 L 1082.44 1055.84 C 1072.63 1072.41 1054.28 1108.05 1041.99 1120.45 C 1007.05 1155.71 978.298 1086.06 966.73 1066.49 L 904.471 963.454 C 897.059 951.011 878.613 917.42 871.189 907.199 L 872.531 903.443 C 873.966 902.858 876.431 900.344 877.696 899.176 C 878.672 897.571 883.89 891.809 885.424 890.051 C 887.122 890.951 889.832 892.555 890.728 894.29 C 896.845 906.14 902.848 917.926 909.29 929.619 C 926.706 960.537 944.711 991.121 963.294 1021.35 C 973.129 1037.62 982.715 1054.34 993.43 1069.64 C 1011.87 1095.96 1037.5 1087.54 1054.04 1064.8 C 1061.06 1055.16 1064.37 1045.79 1070.21 1036.44 L 1105.67 979.969 C 1111.86 969.911 1119.26 962.156 1119.66 950.949 C 1119.7 949.705 1124.59 947.779 1126.08 947.059 C 1131.96 939.494 1137.41 925.909 1143.87 917.606 C 1149.35 910.562 1154.03 900.871 1159.89 893.749 C 1160.82 892.615 1159.92 886.998 1160.39 884.478 L 1162.57 885.579 C 1163.32 885.145 1191.36 839.115 1197.61 831.489 L 1196.06 828.109 C 1207.76 815.347 1210.55 802.205 1220.03 788.58 C 1224.56 782.071 1233.89 772.241 1237.83 764.919 C 1238.93 762.868 1237.87 761.895 1236.84 759.844 C 1239.93 754.986 1242.16 750.952 1244.85 745.921 L 1247.04 746.986 C 1249.93 742.48 1251.89 736.989 1254.62 732.35 C 1262 719.8 1270.7 708.377 1276.54 694.955 C 1277.61 692.482 1283.49 687.614 1285.17 684.57 C 1292.16 671.922 1297.32 657.866 1306.54 646.615 C 1308.08 644.734 1311.38 637.272 1312.62 634.696 L 1314.36 636.464 C 1316.36 634.081 1315.75 632.709 1316.57 629.618 C 1319.37 619.027 1331.84 605.635 1338.05 596.198 C 1339.81 594.021 1343.1 582.526 1344.38 581.24 C 1354.24 571.318 1357.6 561.606 1363.01 548.664 C 1367.88 546.322 1369.01 542.867 1371.61 538.408 C 1378.13 527.252 1384.06 515.614 1392.05 505.401 C 1392.05 505.4 1392.42 500.758 1392.45 500.399 C 1397.76 494.744 1403.55 483.707 1408.14 476.454 C 1407.84 474.924 1407.33 470.266 1408.54 469.489 C 1419.91 462.451 1421.73 451.455 1428.64 441.082 C 1442.67 420.017 1454.42 397.789 1467.52 376.191 C 1473.91 365.657 1479.98 355.15 1484.58 343.683 L 1485.05 346.261 L 1486.16 346.388 C 1489.71 343.848 1488.97 338.237 1491.28 335.066 C 1503.87 317.719 1513.76 298.206 1524.46 279.618 C 1528.02 273.424 1531.32 270.661 1535.07 264.921 C 1534.7 260.804 1564.7 216.116 1568.92 208.053 C 1582.6 181.883 1594.35 179.312 1586.55 148.502 C 1573.31 134.236 1568.93 130.33 1548.52 130.066 C 1486.9 129.269 1425.22 129.021 1363.61 129.424 C 1360.93 129.441 1314.84 131.446 1316.48 131.839 L 1315.03 128.686 L 1324.66 113.187 C 1326.54 110.239 1329.05 105.486 1331.89 103.903 z"/>
<path transform="translate(0,0)" fill="rgb(11,156,251)" d="M 885.424 890.051 C 887.122 890.951 889.832 892.555 890.728 894.29 C 896.845 906.14 902.848 917.926 909.29 929.619 C 926.706 960.537 944.711 991.121 963.294 1021.35 C 973.129 1037.62 982.715 1054.34 993.43 1069.64 C 1011.87 1095.96 1037.5 1087.54 1054.04 1064.8 C 1061.06 1055.16 1064.37 1045.79 1070.21 1036.44 L 1105.67 979.969 C 1111.86 969.911 1119.26 962.156 1119.66 950.949 C 1119.7 949.705 1124.59 947.779 1126.08 947.059 C 1131.96 939.494 1137.41 925.909 1143.87 917.606 C 1149.35 910.562 1154.03 900.871 1159.89 893.749 C 1160.82 892.615 1159.92 886.998 1160.39 884.478 L 1162.57 885.579 C 1163.32 885.145 1191.36 839.115 1197.61 831.489 L 1196.06 828.109 C 1207.76 815.347 1210.55 802.205 1220.03 788.58 C 1224.56 782.071 1233.89 772.241 1237.83 764.919 C 1238.93 762.868 1237.87 761.895 1236.84 759.844 C 1239.93 754.986 1242.16 750.952 1244.85 745.921 L 1247.04 746.986 C 1249.93 742.48 1251.89 736.989 1254.62 732.35 C 1262 719.8 1270.7 708.377 1276.54 694.955 C 1277.61 692.482 1283.49 687.614 1285.17 684.57 C 1292.16 671.922 1297.32 657.866 1306.54 646.615 C 1308.08 644.734 1311.38 637.272 1312.62 634.696 L 1314.36 636.464 C 1316.36 634.081 1315.75 632.709 1316.57 629.618 C 1319.37 619.027 1331.84 605.635 1338.05 596.198 C 1339.81 594.021 1343.1 582.526 1344.38 581.24 C 1354.24 571.318 1357.6 561.606 1363.01 548.664 C 1367.88 546.322 1369.01 542.867 1371.61 538.408 C 1378.13 527.252 1384.06 515.614 1392.05 505.401 C 1392.05 505.4 1392.42 500.758 1392.45 500.399 C 1397.76 494.744 1403.55 483.707 1408.14 476.454 C 1407.84 474.924 1407.33 470.266 1408.54 469.489 C 1419.91 462.451 1421.73 451.455 1428.64 441.082 C 1442.67 420.017 1454.42 397.789 1467.52 376.191 C 1473.91 365.657 1479.98 355.15 1484.58 343.683 L 1485.05 346.261 L 1486.16 346.388 C 1489.71 343.848 1488.97 338.237 1491.28 335.066 C 1503.87 317.719 1513.76 298.206 1524.46 279.618 C 1528.02 273.424 1531.32 270.661 1535.07 264.921 C 1538.44 269.377 1538.73 269.911 1539.14 275.739 L 1538.52 276.579 C 1532.98 284.111 1525.82 296.896 1520.75 305.231 L 1490.74 354.677 L 1411.09 487.36 C 1361.18 568.986 1311.83 650.954 1263.04 733.259 C 1243.72 765.737 1218.12 804.048 1200.84 836.994 L 1200.82 836.647 C 1195.56 845.709 1189.53 854.096 1184.44 862.894 C 1166.17 894.408 1145.75 925.109 1128.76 957.298 C 1127.04 960.559 1122.79 962.888 1121.11 966.099 C 1103.82 999.08 1083.8 1030.89 1064.53 1062.77 C 1055.7 1077.36 1047.86 1092.77 1037.79 1106.61 C 1031.92 1114.69 1023.64 1115.78 1014.47 1114.65 C 998.797 1106.19 977.537 1061.48 967.109 1045.52 C 942.127 1007.28 921.373 965.863 894.222 928.894 C 894.366 929.089 889.411 926.889 889.014 926.702 C 887.887 922.91 890.499 922.528 890.101 921.655 C 888.971 919.181 885.906 912.492 884.803 910.083 C 881.686 908.517 880.175 907.984 876.916 906.889 L 876.817 905.599 C 879.331 905.06 879.903 905.332 882.5 905.813 C 881.498 904.867 880.683 904.075 879.725 903.069 L 879.864 900.611 L 877.696 899.176 C 878.672 897.571 883.89 891.809 885.424 890.051 z"/>
<path transform="translate(0,0)" fill="url(#Gradient7)" d="M 1324.66 113.187 C 1342.72 115.885 1360.09 119.278 1378.45 119.818 C 1406.35 120.638 1434.28 119.717 1462.18 119.519 C 1479.34 119.397 1496.55 120.154 1513.69 119.861 C 1532.19 119.545 1550.62 119.32 1569.12 119.404 C 1579.03 119.45 1589.36 118.965 1599.18 120.304 C 1605.36 121.147 1610 121.656 1613.88 126.928 C 1616.53 130.528 1617.01 132.794 1616.28 137.221 C 1612.22 161.554 1554.09 247.947 1539.14 275.739 C 1538.73 269.911 1538.44 269.377 1535.07 264.921 C 1534.7 260.804 1564.7 216.116 1568.92 208.053 C 1582.6 181.883 1594.35 179.312 1586.55 148.502 C 1573.31 134.236 1568.93 130.33 1548.52 130.066 C 1486.9 129.269 1425.22 129.021 1363.61 129.424 C 1360.93 129.441 1314.84 131.446 1316.48 131.839 L 1315.03 128.686 L 1324.66 113.187 z"/>
<path transform="translate(0,0)" fill="rgb(252,254,253)" d="M 1302.35 148.862 C 1322.76 150.009 1350.08 149.104 1371.18 149.057 L 1496.15 149.043 C 1516.59 149.079 1537.16 148.479 1557.54 149.194 C 1563.87 149.416 1571.01 154.176 1569.6 161.157 C 1568.61 166.046 1566.58 170.54 1564.02 174.835 C 1519.65 248.799 1475.02 322.671 1430.73 396.681 L 1148.96 867.365 C 1111.86 929.372 1074.96 991.506 1037.8 1053.48 C 1033.48 1060.69 1028.92 1070.91 1018.53 1068.29 C 1015.85 1067.61 1013.48 1066.05 1011.8 1063.87 C 1003.33 1053.04 981.437 1014.38 973.613 1001.35 C 948.303 959.496 923.244 917.495 898.437 875.346 L 905.184 867.796 L 910.349 862.247 L 912.308 864.41 C 932.657 865.811 988.344 979.401 1003.61 997.438 C 1007.49 1002.02 1010.18 1005.28 1015.09 1009.55 L 1027.57 1009.44 C 1026.61 1010.16 1025.35 1011.35 1024.42 1012.18 C 1026.34 1015.24 1023.74 1014.03 1025.72 1017.19 C 1035.61 1014.87 1054.64 973.938 1059.35 969.772 C 1060.89 966.801 1063.16 961.119 1065.6 959.835 C 1067.18 962.905 1067.39 965.153 1067.99 968.498 C 1073.31 958.931 1079.27 949.984 1084.61 940.095 C 1088.42 934.596 1093.28 925.964 1096.85 920.049 C 1102.46 910.456 1108.26 900.144 1114.22 890.833 L 1354 490.349 C 1362.87 475.561 1372.31 460.083 1380.65 445.053 C 1382.31 443.548 1393.74 423.585 1395.71 420.233 C 1409.43 397.474 1423.75 372.463 1437.94 350.202 C 1446.35 334.403 1459.02 314.727 1468.45 299.134 L 1520.81 212.071 C 1528.26 201.331 1539.97 180.164 1546.94 168.459 C 1543.6 166.639 1312.81 167.173 1290.79 167.111 C 1294.66 160.619 1298.03 155.069 1302.35 148.862 z"/>
<path transform="translate(0,0)" fill="rgb(105,238,253)" d="M 912.308 864.41 C 932.657 865.811 988.344 979.401 1003.61 997.438 C 1007.49 1002.02 1010.18 1005.28 1015.09 1009.55 L 1027.57 1009.44 C 1026.61 1010.16 1025.35 1011.35 1024.42 1012.18 C 1026.34 1015.24 1023.74 1014.03 1025.72 1017.19 C 1035.61 1014.87 1054.64 973.938 1059.35 969.772 C 1060.89 966.801 1063.16 961.119 1065.6 959.835 C 1067.18 962.905 1067.39 965.153 1067.99 968.498 L 1064.86 973.559 C 1050.41 997.17 1036.45 1022.32 1021.4 1045.37 C 1014.77 1036.19 1007.4 1023.26 1001.42 1013.39 L 968.446 958.706 C 951.292 930.012 927.449 892.813 912.308 864.41 z"/>
<path transform="translate(0,0)" fill="url(#Gradient6)" d="M 976.218 434.804 C 975.964 437.878 975.693 439.325 976.478 442.389 C 990.74 451.419 1021.53 423.832 1035.06 419.673 C 1037.99 419.315 1040.6 420.485 1042.99 418.542 C 1055.55 408.325 1067.18 403.569 1083.24 401.39 C 1083.92 401.298 1085.17 403.805 1089.61 403.363 C 1094.91 398.1 1090.56 391.45 1102.01 391.248 C 1097.74 397.346 1087.83 410.082 1087.72 416.915 C 1092.9 424.127 1244.59 416.42 1266.76 417.19 L 1248.25 424.013 C 1252.81 426.365 1253.33 426.877 1254.35 432.287 C 1249.12 437.496 1195.15 493.64 1193.94 494.15 C 1183.82 507.784 1155.21 537.452 1142.12 552.125 L 1049.71 657.582 C 1042.45 665.796 1018.72 688.492 1014.83 694.942 C 1011.75 692.641 1011.67 691.833 1008.22 691.384 L 1005.46 694.447 C 1002.66 691.164 1006.22 688.125 1003.01 683.332 L 1001.26 683.191 L 999.01 685.898 C 994.924 685.929 987.767 676.995 984.537 674.012 C 981.815 671.498 977.887 672.316 973.817 672.57 C 972.864 668.311 982.368 652.934 983.458 645.903 C 984.045 644.129 993.299 629.15 994.897 626.513 C 1004.53 610.778 1014.03 594.959 1023.39 579.058 C 1020.73 578.204 1020.38 578.454 1017.53 579.073 L 1012.23 587.936 C 1009.34 592.702 1004.92 600.439 1001.76 604.696 L 1001.12 602.535 C 999.385 602.53 983.796 606.435 977.966 607.168 L 974.522 609.494 C 972.77 610.57 971.019 611.755 969.106 612.472 C 967.311 615.822 960.798 627.656 960.061 630.448 L 958.869 631.077 C 942.408 631.071 854.717 636.784 848.398 633.184 C 845.874 630.947 845.948 628.655 845.486 625.337 C 847.839 621.701 848.452 621.069 851.647 618.122 L 855.056 614.727 C 856.56 614.056 866.049 606.838 868.025 605.349 C 870.365 604.423 872.49 602.497 874.511 600.904 C 874.996 598.698 875.089 598.731 876.325 596.776 L 877.242 598.743 C 882.314 598.871 886.4 590.553 891.552 587.085 L 891.739 585.979 C 892.103 583.764 892.815 580.494 893.953 578.588 C 922.097 531.41 947.821 481.718 976.218 434.804 z"/>
<path transform="translate(0,0)" fill="url(#Gradient5)" d="M 976.218 434.804 C 975.964 437.878 975.693 439.325 976.478 442.389 C 990.74 451.419 1021.53 423.832 1035.06 419.673 C 1037.99 419.315 1040.6 420.485 1042.99 418.542 C 1055.55 408.325 1067.18 403.569 1083.24 401.39 C 1083.92 401.298 1085.17 403.805 1089.61 403.363 C 1094.91 398.1 1090.56 391.45 1102.01 391.248 C 1097.74 397.346 1087.83 410.082 1087.72 416.915 C 1092.9 424.127 1244.59 416.42 1266.76 417.19 L 1248.25 424.013 C 1252.81 426.365 1253.33 426.877 1254.35 432.287 C 1249.12 437.496 1195.15 493.64 1193.94 494.15 C 1193.25 490.125 1198.8 489.496 1198.09 484.573 C 1190.54 479.598 1186.89 486.811 1180.76 489.43 C 1179.23 490.084 1173.66 483.814 1173.46 483.816 C 1161.12 483.905 1148.77 483.599 1136.44 483.368 C 1135.46 480.825 1134.52 478.271 1133.61 475.705 C 1131.16 476.657 1132.08 475.883 1130.69 478.006 L 1131.81 482.903 L 1130.73 484.555 L 1128.72 484.679 C 1118.57 474.759 1119.77 487.893 1101.77 486.168 C 1088.89 490.653 1065.1 502.567 1052.35 508.587 C 1020.92 523.331 989.682 538.478 958.644 554.025 C 940.759 563.045 919.567 574.919 901.686 582.913 C 899.309 584.016 893.775 586.877 891.552 587.085 L 891.739 585.979 C 892.103 583.764 892.815 580.494 893.953 578.588 C 922.097 531.41 947.821 481.718 976.218 434.804 z"/>
<path transform="translate(0,0)" fill="rgb(211,144,17)" d="M 1101.77 486.168 C 1108.87 481.886 1134.21 471.382 1143.46 467.366 C 1178.08 452.173 1213.02 437.719 1248.25 424.013 C 1252.81 426.365 1253.33 426.877 1254.35 432.287 C 1249.12 437.496 1195.15 493.64 1193.94 494.15 C 1193.25 490.125 1198.8 489.496 1198.09 484.573 C 1190.54 479.598 1186.89 486.811 1180.76 489.43 C 1179.23 490.084 1173.66 483.814 1173.46 483.816 C 1161.12 483.905 1148.77 483.599 1136.44 483.368 C 1135.46 480.825 1134.52 478.271 1133.61 475.705 C 1131.16 476.657 1132.08 475.883 1130.69 478.006 L 1131.81 482.903 L 1130.73 484.555 L 1128.72 484.679 C 1118.57 474.759 1119.77 487.893 1101.77 486.168 z"/>
<path transform="translate(0,0)" fill="rgb(140,76,1)" d="M 875.647 601.286 C 882.104 600.259 888.548 599.159 894.98 597.987 L 902.112 600.3 L 902.181 600.632 C 899.08 600.712 894.59 600.474 891.945 601.69 C 896.655 609.141 959.732 603.585 970.522 606.457 C 972.621 607.016 973.358 607.941 974.522 609.494 C 972.77 610.57 971.019 611.755 969.106 612.472 C 967.311 615.822 960.798 627.656 960.061 630.448 L 958.869 631.077 C 942.408 631.071 854.717 636.784 848.398 633.184 C 845.874 630.947 845.948 628.655 845.486 625.337 C 847.839 621.701 848.452 621.069 851.647 618.122 L 855.056 614.727 C 856.56 614.056 866.049 606.838 868.025 605.349 C 870.365 604.423 872.49 602.497 874.511 600.904 L 875.647 601.286 z"/>
<path transform="translate(0,0)" fill="rgb(211,144,17)" d="M 875.647 601.286 C 882.104 600.259 888.548 599.159 894.98 597.987 L 902.112 600.3 L 902.181 600.632 C 899.08 600.712 894.59 600.474 891.945 601.69 C 896.655 609.141 959.732 603.585 970.522 606.457 C 972.621 607.016 973.358 607.941 974.522 609.494 C 972.77 610.57 971.019 611.755 969.106 612.472 C 962.083 612.909 953.825 612.889 946.699 613.036 C 932.771 614.603 896.604 617.077 882.775 616.783 L 882.435 615.471 C 876.381 614.577 869.475 617.577 865.279 613.817 C 864.858 610.525 866.463 608.266 868.025 605.349 C 870.365 604.423 872.49 602.497 874.511 600.904 L 875.647 601.286 z"/>
<path transform="translate(0,0)" fill="rgb(194,127,11)" d="M 875.647 601.286 C 882.104 600.259 888.548 599.159 894.98 597.987 L 902.112 600.3 L 902.181 600.632 C 899.08 600.712 894.59 600.474 891.945 601.69 C 896.655 609.141 959.732 603.585 970.522 606.457 C 972.621 607.016 973.358 607.941 974.522 609.494 C 972.77 610.57 971.019 611.755 969.106 612.472 C 962.083 612.909 953.825 612.889 946.699 613.036 C 951.79 607.357 959.817 610.621 968.432 609.866 C 968.124 608.737 968.34 607.992 966.848 607.958 C 951.863 607.621 935.022 610.217 920.1 608.942 C 912.228 608.269 881.769 605.638 875.647 601.286 z"/>
<path transform="translate(0,0)" fill="rgb(248,199,56)" d="M 868.025 605.349 C 866.463 608.266 864.858 610.525 865.279 613.817 C 869.475 617.577 876.381 614.577 882.435 615.471 L 882.775 616.783 C 873.828 617.262 860.374 618.368 851.647 618.122 L 855.056 614.727 C 856.56 614.056 866.049 606.838 868.025 605.349 z"/>
<path transform="translate(0,0)" fill="rgb(163,97,2)" d="M 972.844 585.448 C 979.763 587.467 993.739 585.415 1000.52 583.493 C 1001.39 587.038 1000.67 586.537 1002.95 588.257 C 1005.71 587.695 1006.24 587.092 1008.63 585.447 C 1011.37 586.002 1010.37 585.417 1012.23 587.936 C 1009.34 592.702 1004.92 600.439 1001.76 604.696 L 1001.12 602.535 C 999.385 602.53 983.796 606.435 977.966 607.168 L 974.522 609.494 C 973.358 607.941 972.621 607.016 970.522 606.457 C 959.732 603.585 896.655 609.141 891.945 601.69 C 894.59 600.474 899.08 600.712 902.181 600.632 L 902.112 600.3 L 894.98 597.987 C 920.599 594.348 947.476 588.515 972.844 585.448 z"/>
<path transform="translate(0,0)" fill="rgb(194,127,11)" d="M 993.838 596.352 C 997.005 597.392 999.348 596.899 1001.5 599.457 L 1001.12 602.535 C 999.385 602.53 983.796 606.435 977.966 607.168 C 983.717 602.698 987.301 599.71 993.838 596.352 z"/>
<path transform="translate(0,0)" fill="rgb(253,235,152)" d="M 901.686 582.913 L 900.84 584.779 C 901.158 587.989 900.596 586.971 902.604 589.026 C 908.495 590.544 919.561 587.877 925.341 587.333 C 939.436 586.006 1018.79 572.188 1023.86 576.409 L 1023.39 579.058 C 1020.73 578.204 1020.38 578.454 1017.53 579.073 L 1012.23 587.936 C 1010.37 585.417 1011.37 586.002 1008.63 585.447 C 1006.24 587.092 1005.71 587.695 1002.95 588.257 C 1000.67 586.537 1001.39 587.038 1000.52 583.493 C 993.739 585.415 979.763 587.467 972.844 585.448 C 947.476 588.515 920.599 594.348 894.98 597.987 C 888.548 599.159 882.104 600.259 875.647 601.286 L 874.511 600.904 C 874.996 598.698 875.089 598.731 876.325 596.776 L 877.242 598.743 C 882.314 598.871 886.4 590.553 891.552 587.085 C 893.775 586.877 899.309 584.016 901.686 582.913 z"/>
<path transform="translate(0,0)" fill="rgb(140,76,1)" d="M 972.844 585.448 C 981.976 583.889 1009.55 578.81 1017.53 579.073 L 1012.23 587.936 C 1010.37 585.417 1011.37 586.002 1008.63 585.447 C 1006.24 587.092 1005.71 587.695 1002.95 588.257 C 1000.67 586.537 1001.39 587.038 1000.52 583.493 C 993.739 585.415 979.763 587.467 972.844 585.448 z"/>
<path transform="translate(0,0)" fill="rgb(253,249,210)" d="M 1017.53 579.073 C 1020.38 578.454 1020.73 578.204 1023.39 579.058 C 1014.03 594.959 1004.53 610.778 994.897 626.513 C 993.299 629.15 984.045 644.129 983.458 645.903 C 982.368 652.934 972.864 668.311 973.817 672.57 C 977.887 672.316 981.815 671.498 984.537 674.012 C 987.767 676.995 994.924 685.929 999.01 685.898 L 1001.26 683.191 L 1003.01 683.332 C 1006.22 688.125 1002.66 691.164 1005.46 694.447 L 1008.22 691.384 C 1011.67 691.833 1011.75 692.641 1014.83 694.942 C 1013.07 696.915 1009.62 700.583 1008.34 702.611 L 1010.88 704.198 C 1008.87 707.874 1005.38 706.491 1002.22 710.135 C 994.649 718.885 987.144 727.785 979.407 736.389 L 982.054 739.629 C 975.218 747.019 959.334 764.504 955.364 773.16 C 942.287 789.679 927.243 805.778 913.771 822.133 C 901.197 835.518 889.483 850.935 877.683 865.018 C 874.512 868.803 863.752 882.477 860.776 885.175 C 857.302 891.936 857.088 891.402 856.565 898.858 C 853.369 900.572 851.796 900.697 850.244 903.435 L 851.947 905.621 C 854.851 905.124 855.084 903.354 857.752 900.98 L 858.644 905.207 L 853.315 911.475 C 858.166 911.529 857.607 910.816 861.228 913.032 C 861.652 914.113 862.299 915.602 862.597 916.678 L 802.943 981.34 C 799.29 985.307 794.117 991.244 790.373 994.837 L 789.565 995.964 C 784.432 1001.61 772.568 1016.14 765.036 1016.79 C 761.955 1015.41 763.045 1016.22 761.05 1012.49 C 761.092 1011.59 761.086 1009.86 761.345 1009.11 C 764.282 1000.3 776.877 976.538 781.533 967.28 L 823.04 885.086 C 826.19 878.888 837.044 855.439 839.729 852.253 L 839.954 850.839 L 843.008 847.147 C 847.131 838.954 851.366 830.817 855.711 822.739 L 862.934 809.321 C 865.898 803.223 868.779 796.81 872.535 791.191 L 876.182 784.059 L 935.496 674.917 C 943.046 660.969 952.033 645.189 958.869 631.077 L 960.061 630.448 C 960.798 627.656 967.311 615.822 969.106 612.472 C 971.019 611.755 972.77 610.57 974.522 609.494 L 977.966 607.168 C 983.796 606.435 999.385 602.53 1001.12 602.535 L 1001.76 604.696 C 1004.92 600.439 1009.34 592.702 1012.23 587.936 L 1017.53 579.073 z"/>
<path transform="translate(0,0)" fill="url(#Gradient4)" d="M 825.863 927.167 C 821.727 924.173 825.142 928.341 821.318 925.889 C 831.558 907.527 839.098 889.688 849.499 871.75 C 856.595 859.512 863.99 847.364 870.984 835.021 C 874.837 828.645 881.348 822.424 884.721 815.854 C 904.856 776.628 927.955 738.593 950.417 700.616 C 960.555 683.474 972.067 661.839 983.458 645.903 C 982.368 652.934 972.864 668.311 973.817 672.57 C 977.887 672.316 981.815 671.498 984.537 674.012 C 987.767 676.995 994.924 685.929 999.01 685.898 L 1001.26 683.191 L 1003.01 683.332 C 1006.22 688.125 1002.66 691.164 1005.46 694.447 L 1008.22 691.384 C 1011.67 691.833 1011.75 692.641 1014.83 694.942 C 1013.07 696.915 1009.62 700.583 1008.34 702.611 L 1010.88 704.198 C 1008.87 707.874 1005.38 706.491 1002.22 710.135 C 994.649 718.885 987.144 727.785 979.407 736.389 L 982.054 739.629 C 975.218 747.019 959.334 764.504 955.364 773.16 C 942.287 789.679 927.243 805.778 913.771 822.133 C 901.197 835.518 889.483 850.935 877.683 865.018 C 874.512 868.803 863.752 882.477 860.776 885.175 C 851.335 892.785 832.785 921.45 825.863 927.167 z"/>
<path transform="translate(0,0)" fill="rgb(248,199,56)" d="M 977.966 607.168 C 983.796 606.435 999.385 602.53 1001.12 602.535 L 1001.76 604.696 C 992.98 619.284 983.571 633.878 975.056 648.505 C 971.523 654.373 948.294 693.914 945.702 696.886 C 916.811 750.52 880.142 803.297 852.865 857.583 C 852.003 852.933 852.894 854.269 849.997 851.651 C 846.501 850.694 843.386 851.621 839.729 852.253 L 839.954 850.839 L 843.008 847.147 C 847.131 838.954 851.366 830.817 855.711 822.739 L 862.934 809.321 C 865.898 803.223 868.779 796.81 872.535 791.191 L 876.182 784.059 L 935.496 674.917 C 943.046 660.969 952.033 645.189 958.869 631.077 L 960.061 630.448 C 960.798 627.656 967.311 615.822 969.106 612.472 C 971.019 611.755 972.77 610.57 974.522 609.494 L 977.966 607.168 z"/>
<path transform="translate(0,0)" fill="rgb(253,214,83)" d="M 935.496 674.917 C 935.585 676.694 935.796 681.184 935.167 682.7 C 922.326 713.664 903.248 741.429 889.184 771.792 C 887.064 776.368 879.011 785.81 878.95 789.769 C 881.051 791.282 882.23 791.361 884.799 792.001 C 889.157 790.124 893.72 778.927 895.59 774.163 C 896.17 772.675 896.721 771.176 897.241 769.667 L 900.288 769.546 C 907.378 756.248 935.062 703.516 945.702 696.886 C 916.811 750.52 880.142 803.297 852.865 857.583 C 852.003 852.933 852.894 854.269 849.997 851.651 C 846.501 850.694 843.386 851.621 839.729 852.253 L 839.954 850.839 L 843.008 847.147 C 847.131 838.954 851.366 830.817 855.711 822.739 L 862.934 809.321 C 865.898 803.223 868.779 796.81 872.535 791.191 L 876.182 784.059 L 935.496 674.917 z"/>
<path transform="translate(0,0)" fill="url(#Gradient3)" d="M 977.966 607.168 C 983.796 606.435 999.385 602.53 1001.12 602.535 L 1001.76 604.696 C 992.98 619.284 983.571 633.878 975.056 648.505 L 971.208 650.157 C 970.919 647.467 978.582 637.834 978.391 631.774 C 978.254 627.418 977.614 617.783 971.346 617.81 C 967.742 620.1 963.995 630.891 962.173 635.278 L 962.256 635.208 L 960.054 635.17 L 960.579 636.413 L 960.061 630.448 C 960.798 627.656 967.311 615.822 969.106 612.472 C 971.019 611.755 972.77 610.57 974.522 609.494 L 977.966 607.168 z"/>
<path transform="translate(0,0)" fill="rgb(163,97,2)" d="M 825.863 927.167 C 832.785 921.45 851.335 892.785 860.776 885.175 C 857.302 891.936 857.088 891.402 856.565 898.858 C 853.369 900.572 851.796 900.697 850.244 903.435 L 851.947 905.621 C 854.851 905.124 855.084 903.354 857.752 900.98 L 858.644 905.207 L 853.315 911.475 C 858.166 911.529 857.607 910.816 861.228 913.032 C 861.652 914.113 862.299 915.602 862.597 916.678 L 802.943 981.34 C 799.29 985.307 794.117 991.244 790.373 994.837 L 789.565 995.964 C 784.432 1001.61 772.568 1016.14 765.036 1016.79 C 761.955 1015.41 763.045 1016.22 761.05 1012.49 C 761.092 1011.59 761.086 1009.86 761.345 1009.11 C 762.437 1009.44 762.991 1009.33 764.193 1009.35 C 768.942 1006.65 776.09 997.968 780.186 993.44 L 787.147 985.84 C 789.082 983.437 792.853 979.621 795.068 977.23 L 811.705 958.317 C 809.985 958.451 808.808 959.271 807.161 960.067 L 805.528 959.266 L 804.499 955.389 C 811.189 945.901 819.104 936.93 825.863 927.167 z"/>
<path transform="translate(0,0)" fill="rgb(248,199,56)" d="M 825.863 927.167 C 832.785 921.45 851.335 892.785 860.776 885.175 C 857.302 891.936 857.088 891.402 856.565 898.858 C 853.369 900.572 851.796 900.697 850.244 903.435 L 851.947 905.621 C 854.851 905.124 855.084 903.354 857.752 900.98 L 858.644 905.207 L 853.315 911.475 C 843.623 922.01 821.078 951.061 811.705 958.317 C 809.985 958.451 808.808 959.271 807.161 960.067 L 805.528 959.266 L 804.499 955.389 C 811.189 945.901 819.104 936.93 825.863 927.167 z"/>
<path transform="translate(0,0)" fill="rgb(248,199,56)" d="M 839.729 852.253 C 843.386 851.621 846.501 850.694 849.997 851.651 C 852.894 854.269 852.003 852.933 852.865 857.583 C 846.268 868.569 777.443 989.174 777.649 990.62 C 781.655 987.447 798.993 961.765 804.499 955.389 L 805.528 959.266 L 807.161 960.067 C 808.808 959.271 809.985 958.451 811.705 958.317 L 795.068 977.23 C 792.853 979.621 789.082 983.437 787.147 985.84 L 780.186 993.44 C 776.09 997.968 768.942 1006.65 764.193 1009.35 C 762.991 1009.33 762.437 1009.44 761.345 1009.11 C 764.282 1000.3 776.877 976.538 781.533 967.28 L 823.04 885.086 C 826.19 878.888 837.044 855.439 839.729 852.253 z"/>
<path transform="translate(0,0)" fill="rgb(83,240,253)" d="M 1290.79 167.111 C 1312.81 167.173 1543.6 166.639 1546.94 168.459 C 1539.97 180.164 1528.26 201.331 1520.81 212.071 L 1468.45 299.134 C 1459.02 314.727 1446.35 334.403 1437.94 350.202 C 1423.75 372.463 1409.43 397.474 1395.71 420.233 C 1393.74 423.585 1382.31 443.548 1380.65 445.053 C 1372.31 460.083 1362.87 475.561 1354 490.349 L 1114.22 890.833 C 1108.26 900.144 1102.46 910.456 1096.85 920.049 C 1093.28 925.964 1088.42 934.596 1084.61 940.095 C 1079.27 949.984 1073.31 958.931 1067.99 968.498 C 1067.39 965.153 1067.18 962.905 1065.6 959.835 C 1063.16 961.119 1060.89 966.801 1059.35 969.772 C 1054.64 973.938 1035.61 1014.87 1025.72 1017.19 C 1023.74 1014.03 1026.34 1015.24 1024.42 1012.18 C 1025.35 1011.35 1026.61 1010.16 1027.57 1009.44 C 1039.73 996.765 1045.48 984.335 1054.04 969.334 C 1067.67 945.451 1082.03 921.843 1093.91 897.021 C 1095.87 892.929 1100.57 888.372 1102.73 884.19 C 1119.18 852.361 1139.46 822.648 1156.26 791.006 C 1159.56 784.843 1164.79 776.63 1168.57 770.567 C 1183.63 746.453 1198.14 722.855 1212.18 698.136 C 1212.54 698.979 1212.84 699.822 1213.1 700.703 C 1220.39 682.83 1229.81 669.859 1239.78 653.485 L 1277.85 591.145 C 1303.99 549.242 1329.43 505.14 1354.11 462.364 C 1363.1 446.78 1373.01 431.792 1382.72 416.677 C 1385.21 412.811 1384.74 405.222 1386.47 400.332 C 1391.25 386.918 1402.09 377.205 1405.62 363.367 C 1406.36 360.463 1407 359.078 1408.65 356.542 L 1411.11 357.085 C 1412.26 354.145 1413.02 352.35 1414.53 349.488 L 1415.71 352.099 L 1416.65 350.981 C 1416.33 348.052 1416.09 347.467 1416.91 344.723 C 1426 338.866 1428.74 320.487 1432.42 317.474 L 1433.53 320.233 C 1436.39 317.323 1435.26 313.668 1438.01 309.007 L 1438.85 309.231 L 1439.61 311.116 C 1442.86 308.55 1440.55 300.819 1442.55 299.46 C 1452.51 292.686 1453.5 281.982 1457.24 269.643 L 1457.04 269.773 L 1458.26 267.981 C 1460.17 269.261 1459.97 271.042 1460.65 273.902 L 1461.81 274.355 C 1463.6 272.262 1463.92 272.107 1464.52 269.513 L 1462.87 268.677 C 1462.84 263.888 1468.04 257.135 1470.49 253.063 C 1473.79 247.596 1472.27 249.6 1472.41 243.812 L 1474.36 242.879 C 1475.16 244.973 1474.69 244.76 1476.22 245.707 C 1479.27 242.51 1477.54 235.935 1480.51 230.593 C 1488.37 227.945 1486.67 227.056 1487.78 219.459 C 1488.2 216.606 1494.14 207.694 1496.44 205.966 L 1497.94 208.962 C 1500.28 205.857 1500.5 197.377 1498.81 193.77 C 1488.73 184.633 1464.03 192.095 1457.84 190.436 L 1457.48 189.747 C 1454.69 189.659 1450.12 190.21 1447.49 192.039 C 1443.57 194.76 1433.38 192.393 1428.38 192.309 C 1421.78 192.198 1414.32 192.899 1408.33 192.107 C 1410.22 190.685 1416.61 190.698 1419.53 190.475 L 1419.46 189.763 L 1415.74 188.524 C 1415.93 187.346 1415.94 187.978 1415.59 186.636 C 1406.45 184.927 1386.92 193.058 1376.57 187.429 C 1377.73 186.37 1386.55 187.65 1390.6 186.646 L 1390.43 185.909 C 1366.12 183.822 1338.63 186.439 1314.16 186.074 C 1306.3 185.957 1290.89 181.704 1284.96 185.691 C 1281.91 186.717 1283.26 186.68 1279.48 184.983 L 1282.63 179.02 C 1284.03 177.901 1289.42 169.21 1290.79 167.111 z"/>
<path transform="translate(0,0)" fill="rgb(105,238,253)" d="M 1114.22 890.833 C 1111.86 890.997 1109.49 891.092 1107.13 891.115 L 1106.21 889.608 C 1106.37 888.033 1183.26 757.661 1189.18 748.072 L 1262.54 626.942 C 1294.03 574.872 1326.53 523.493 1356.27 470.336 C 1358.07 467.102 1358.2 465.047 1360.79 462.311 C 1361.74 464.246 1357.38 469.529 1356.33 474.145 C 1354.86 480.543 1353.9 482.361 1353.98 489.25 L 1354 490.349 L 1114.22 890.833 z"/>
<path transform="translate(0,0)" fill="rgb(105,238,253)" d="M 1520.81 212.071 L 1520.53 205.943 C 1518.92 206.916 1518.32 208.084 1517.12 209.655 L 1515.88 209.528 C 1517.4 204.854 1521.7 193.873 1520.26 189.804 C 1518.96 191.031 1519.19 192.259 1518.8 194.47 C 1518.98 194.487 1508.42 183.954 1508.54 184.123 C 1508.88 183.496 1509.26 182.386 1509.86 181.929 C 1508.63 181.067 1507.71 180.352 1506.56 179.426 C 1509.07 177.352 1511.43 177.682 1514.81 177.536 L 1509.74 174.431 L 1512.98 173.471 L 1511.71 172.843 C 1517.77 169.909 1537.85 169.638 1546.94 168.459 C 1539.97 180.164 1528.26 201.331 1520.81 212.071 z"/>
<path transform="translate(0,0)" fill="rgb(105,238,253)" d="M 1395.71 420.233 C 1393.01 419.788 1391.31 418.709 1388.87 417.468 C 1403.83 392.272 1422.58 361.835 1435.8 336.491 C 1436.14 341.515 1437.03 345.293 1437.94 350.202 C 1423.75 372.463 1409.43 397.474 1395.71 420.233 z"/>
<path transform="translate(0,0)" fill="rgb(105,238,253)" d="M 1084.61 940.095 C 1083.96 925.719 1087.72 917.236 1096.68 906.266 C 1095.91 911.242 1095.6 914.228 1096.65 919.129 L 1096.85 920.049 C 1093.28 925.964 1088.42 934.596 1084.61 940.095 z"/>
<path transform="translate(0,0)" fill="rgb(105,238,253)" d="M 1366.9 453.208 C 1369.05 447.894 1374.43 442.174 1377.83 435.573 L 1377.6 436.095 L 1378.36 436.076 C 1379.21 439.151 1379.98 441.926 1380.65 445.053 C 1370.69 447.056 1368.19 459.362 1362.51 459.552 C 1364.35 457.314 1365.76 455.895 1366.9 453.208 z"/>
<path transform="translate(0,0)" fill="rgb(105,238,253)" d="M 1472.79 276.765 C 1472.92 278.008 1473.55 283.803 1473.22 284.472 C 1469.69 291.57 1461.74 298.318 1456.72 304.99 C 1456.3 302.03 1470.26 280.98 1472.79 276.765 z"/>
<path transform="translate(0,0)" fill="rgb(253,214,83)" d="M 1316.21 398.717 C 1323.2 411.043 1311.37 419.359 1303.24 427.413 C 1301.34 424.261 1298.5 423.52 1295.06 422.079 C 1292.85 422.504 1228.52 489.313 1224.53 495.497 C 1223.24 502.658 1198.94 527.129 1192.79 533.867 L 1133.38 599.19 C 1130.56 602.302 1113.89 620.599 1113.02 622.463 C 1111.5 633.201 1092.83 641.64 1093.68 650.657 C 1099.3 647.29 1105.15 634.814 1110.3 634.636 L 1110.99 637.372 C 1082.19 669.239 1053.59 701.282 1025.19 733.499 C 1020.42 738.829 991.688 769.56 989.695 773.824 C 979.134 783.742 963.027 802.86 952.83 814.338 C 943.016 825.386 932.614 837.572 922.592 848.295 L 915.555 856.161 L 910.349 862.247 L 905.184 867.796 L 898.437 875.346 L 885.424 890.051 C 883.89 891.809 878.672 897.571 877.696 899.176 C 876.431 900.344 873.966 902.858 872.531 903.443 C 868.172 903.881 864.606 904.598 860.468 903.196 L 858.644 905.207 L 857.752 900.98 C 855.084 903.354 854.851 905.124 851.947 905.621 L 850.244 903.435 C 851.796 900.697 853.369 900.572 856.565 898.858 C 857.088 891.402 857.302 891.936 860.776 885.175 C 863.752 882.477 874.512 868.803 877.683 865.018 C 889.483 850.935 901.197 835.518 913.771 822.133 C 927.243 805.778 942.287 789.679 955.364 773.16 C 959.334 764.504 975.218 747.019 982.054 739.629 L 979.407 736.389 C 987.144 727.785 994.649 718.885 1002.22 710.135 C 1005.38 706.491 1008.87 707.874 1010.88 704.198 L 1008.34 702.611 C 1009.62 700.583 1013.07 696.915 1014.83 694.942 C 1018.72 688.492 1042.45 665.796 1049.71 657.582 L 1142.12 552.125 C 1155.21 537.452 1183.82 507.784 1193.94 494.15 C 1195.15 493.64 1249.12 437.496 1254.35 432.287 C 1253.33 426.877 1252.81 426.365 1248.25 424.013 L 1266.76 417.19 L 1268.5 416.755 C 1271.14 415.735 1273.12 415.317 1274.85 413.163 L 1273.82 412.043 C 1268.57 410.953 1254.29 411.608 1248.06 411.669 C 1245.03 411.095 1237.43 410.74 1234.09 410.486 C 1236.17 410.054 1245.08 410.225 1248.27 409.802 C 1258.14 408.49 1292.1 401.382 1300.43 403.781 L 1316.21 398.717 z"/>
<path transform="translate(0,0)" fill="rgb(163,97,2)" d="M 1316.21 398.717 C 1323.2 411.043 1311.37 419.359 1303.24 427.413 C 1301.34 424.261 1298.5 423.52 1295.06 422.079 C 1292.85 422.504 1228.52 489.313 1224.53 495.497 C 1193.76 527.223 1164.08 561.232 1133.83 593.503 C 1122 606.116 1108.1 622.847 1096.01 634.674 C 1096.34 629.316 1128.51 594.899 1134.23 589.407 L 1125.91 581.137 C 1119.14 587.118 1104.08 609.292 1097.26 610.573 C 1088.66 618.665 1071.74 639.324 1063.34 648.916 L 987.524 736.481 C 982.103 742.759 960.531 768.566 955.364 773.16 C 959.334 764.504 975.218 747.019 982.054 739.629 L 979.407 736.389 C 987.144 727.785 994.649 718.885 1002.22 710.135 C 1005.38 706.491 1008.87 707.874 1010.88 704.198 L 1008.34 702.611 C 1009.62 700.583 1013.07 696.915 1014.83 694.942 C 1018.72 688.492 1042.45 665.796 1049.71 657.582 L 1142.12 552.125 C 1155.21 537.452 1183.82 507.784 1193.94 494.15 C 1195.15 493.64 1249.12 437.496 1254.35 432.287 C 1253.33 426.877 1252.81 426.365 1248.25 424.013 L 1266.76 417.19 L 1268.5 416.755 C 1271.14 415.735 1273.12 415.317 1274.85 413.163 L 1273.82 412.043 C 1268.57 410.953 1254.29 411.608 1248.06 411.669 C 1245.03 411.095 1237.43 410.74 1234.09 410.486 C 1236.17 410.054 1245.08 410.225 1248.27 409.802 C 1258.14 408.49 1292.1 401.382 1300.43 403.781 L 1316.21 398.717 z"/>
<path transform="translate(0,0)" fill="rgb(251,224,112)" d="M 1248.06 411.669 C 1245.03 411.095 1237.43 410.74 1234.09 410.486 C 1236.17 410.054 1245.08 410.225 1248.27 409.802 C 1258.14 408.49 1292.1 401.382 1300.43 403.781 C 1277.99 412.417 1277.76 415.496 1261.11 432.142 C 1247.62 445.513 1234.34 459.099 1221.28 472.895 C 1193.64 501.91 1166.56 531.447 1140.05 561.492 C 1126.51 576.687 1109.98 594.829 1097.26 610.573 C 1088.66 618.665 1071.74 639.324 1063.34 648.916 L 987.524 736.481 C 982.103 742.759 960.531 768.566 955.364 773.16 C 959.334 764.504 975.218 747.019 982.054 739.629 L 979.407 736.389 C 987.144 727.785 994.649 718.885 1002.22 710.135 C 1005.38 706.491 1008.87 707.874 1010.88 704.198 L 1008.34 702.611 C 1009.62 700.583 1013.07 696.915 1014.83 694.942 C 1018.72 688.492 1042.45 665.796 1049.71 657.582 L 1142.12 552.125 C 1155.21 537.452 1183.82 507.784 1193.94 494.15 C 1195.15 493.64 1249.12 437.496 1254.35 432.287 C 1253.33 426.877 1252.81 426.365 1248.25 424.013 L 1266.76 417.19 L 1268.5 416.755 C 1271.14 415.735 1273.12 415.317 1274.85 413.163 L 1273.82 412.043 C 1268.57 410.953 1254.29 411.608 1248.06 411.669 z"/>
<path transform="translate(0,0)" fill="rgb(194,127,11)" d="M 1268.5 416.755 L 1268.8 418.252 C 1263.85 423.474 1259.67 427.443 1254.35 432.287 C 1253.33 426.877 1252.81 426.365 1248.25 424.013 L 1266.76 417.19 L 1268.5 416.755 z"/>
<path transform="translate(0,0)" fill="rgb(211,144,17)" d="M 1097.26 610.573 C 1104.08 609.292 1119.14 587.118 1125.91 581.137 L 1134.23 589.407 C 1128.51 594.899 1096.34 629.316 1096.01 634.674 C 1089.52 643.786 1062 672.651 1053.29 682.324 L 956.234 789.691 C 954.199 793.34 931.952 817.544 928.152 821.791 L 857.752 900.98 C 855.084 903.354 854.851 905.124 851.947 905.621 L 850.244 903.435 C 851.796 900.697 853.369 900.572 856.565 898.858 C 857.088 891.402 857.302 891.936 860.776 885.175 C 863.752 882.477 874.512 868.803 877.683 865.018 C 889.483 850.935 901.197 835.518 913.771 822.133 C 927.243 805.778 942.287 789.679 955.364 773.16 C 960.531 768.566 982.103 742.759 987.524 736.481 L 1063.34 648.916 C 1071.74 639.324 1088.66 618.665 1097.26 610.573 z"/>
<path transform="translate(0,0)" fill="rgb(248,199,56)" d="M 913.771 822.133 C 914.487 832.086 882.443 854.16 883.619 868.283 C 887.555 865.538 901.799 848.315 906.239 843.227 L 942.258 802.714 C 945.504 799.102 952.255 790.11 956.234 789.691 C 954.199 793.34 931.952 817.544 928.152 821.791 L 857.752 900.98 C 855.084 903.354 854.851 905.124 851.947 905.621 L 850.244 903.435 C 851.796 900.697 853.369 900.572 856.565 898.858 C 857.088 891.402 857.302 891.936 860.776 885.175 C 863.752 882.477 874.512 868.803 877.683 865.018 C 889.483 850.935 901.197 835.518 913.771 822.133 z"/>
<path transform="translate(0,0)" fill="url(#Gradient2)" d="M 1113.02 622.463 C 1111.5 633.201 1092.83 641.64 1093.68 650.657 C 1099.3 647.29 1105.15 634.814 1110.3 634.636 L 1110.99 637.372 C 1082.19 669.239 1053.59 701.282 1025.19 733.499 C 1020.42 738.829 991.688 769.56 989.695 773.824 C 979.134 783.742 963.027 802.86 952.83 814.338 C 951.244 814.284 950.289 814.022 948.766 813.687 C 947.571 811.119 947.264 809.804 944.925 808.208 C 948.692 803.276 959.227 792.315 963.715 787.368 L 1002.1 744.967 C 1038.78 704.397 1075.84 662.443 1113.02 622.463 z"/>
<path transform="translate(0,0)" fill="rgb(163,97,2)" d="M 907.016 850.502 C 909.158 854.347 908.759 854.282 913.925 855.723 C 914.467 855.875 915.01 856.02 915.555 856.161 L 910.349 862.247 L 905.184 867.796 L 898.437 875.346 L 885.424 890.051 C 883.89 891.809 878.672 897.571 877.696 899.176 C 876.431 900.344 873.966 902.858 872.531 903.443 C 868.172 903.881 864.606 904.598 860.468 903.196 L 901.351 857.048 L 907.016 850.502 z"/>
<path transform="translate(0,0)" fill="rgb(163,97,2)" d="M 907.016 850.502 C 919.678 836.928 932.504 822.105 944.925 808.208 C 947.264 809.804 947.571 811.119 948.766 813.687 C 950.289 814.022 951.244 814.284 952.83 814.338 C 943.016 825.386 932.614 837.572 922.592 848.295 L 915.555 856.161 C 915.01 856.02 914.467 855.875 913.925 855.723 C 908.759 854.282 909.158 854.347 907.016 850.502 z"/>
<path transform="translate(0,0)" fill="rgb(163,97,2)" d="M 1370.83 22.2309 C 1372.65 24.1581 1374.59 26.0094 1374.53 28.8618 C 1374.32 38.5589 1338.89 91.4472 1331.89 103.903 C 1329.05 105.486 1326.54 110.239 1324.66 113.187 L 1315.03 128.686 C 1310.93 134.187 1306.03 142.779 1302.35 148.862 C 1298.03 155.069 1294.66 160.619 1290.79 167.111 C 1289.42 169.21 1284.03 177.901 1282.63 179.02 L 1279.48 184.983 L 1229.91 263.57 C 1223.62 273.604 1211.32 292.063 1206.32 301.775 C 1200.87 308.51 1183.09 339.003 1177.54 348.132 C 1172.32 356.724 1152.06 388.949 1148.73 396.925 C 1144.25 396.07 1140.15 397.822 1136.48 395.103 C 1133.24 399.168 1097.06 414.132 1091.29 415.678 C 1108.18 416.191 1128.68 415.082 1145.79 414.496 C 1179.87 413.076 1213.96 412.134 1248.06 411.669 C 1254.29 411.608 1268.57 410.953 1273.82 412.043 L 1274.85 413.163 C 1273.12 415.317 1271.14 415.735 1268.5 416.755 L 1266.76 417.19 C 1244.59 416.42 1092.9 424.127 1087.72 416.915 C 1087.83 410.082 1097.74 397.346 1102.01 391.248 C 1104.28 389.014 1119.48 366.666 1122.14 362.831 L 1169.7 293.848 C 1185.87 272.849 1336.99 58.882 1337.44 57.0796 C 1337.82 53.5819 1343.86 52.846 1345.64 46.5957 C 1347.69 44.6163 1353.61 40.6811 1356.55 40.3157 C 1361.22 35.3063 1367.8 28.2639 1370.83 22.2309 z"/>
<path transform="translate(0,0)" fill="rgb(253,235,152)" d="M 1370.83 22.2309 C 1372.65 24.1581 1374.59 26.0094 1374.53 28.8618 C 1374.32 38.5589 1338.89 91.4472 1331.89 103.903 C 1329.05 105.486 1326.54 110.239 1324.66 113.187 L 1315.03 128.686 C 1310.93 134.187 1306.03 142.779 1302.35 148.862 C 1298.03 155.069 1294.66 160.619 1290.79 167.111 C 1289.42 169.21 1284.03 177.901 1282.63 179.02 C 1279.76 179.752 1277.83 181.289 1275.34 182.919 C 1279.18 176.218 1285.69 171.269 1291.2 158.971 L 1289.75 156.837 C 1288.6 157.119 1284.5 161.384 1282.66 162.608 L 1283.82 160.095 C 1283.74 156.683 1282.76 153.681 1279.05 152.546 C 1268.79 156.161 1274.97 168.039 1262.08 170.724 C 1254.63 179.605 1243.4 196.596 1236.58 206.372 L 1197.13 262.278 C 1174.14 294.64 1151.32 327.129 1128.69 359.744 C 1116.44 377.284 1102.18 396.748 1090.88 414.506 L 1091.06 415.565 L 1091.29 415.678 C 1108.18 416.191 1128.68 415.082 1145.79 414.496 C 1179.87 413.076 1213.96 412.134 1248.06 411.669 C 1254.29 411.608 1268.57 410.953 1273.82 412.043 L 1274.85 413.163 C 1273.12 415.317 1271.14 415.735 1268.5 416.755 L 1266.76 417.19 C 1244.59 416.42 1092.9 424.127 1087.72 416.915 C 1087.83 410.082 1097.74 397.346 1102.01 391.248 C 1104.28 389.014 1119.48 366.666 1122.14 362.831 L 1169.7 293.848 C 1185.87 272.849 1336.99 58.882 1337.44 57.0796 C 1337.82 53.5819 1343.86 52.846 1345.64 46.5957 C 1347.69 44.6163 1353.61 40.6811 1356.55 40.3157 C 1361.22 35.3063 1367.8 28.2639 1370.83 22.2309 z"/>
<path transform="translate(0,0)" fill="rgb(194,127,11)" d="M 1370.83 22.2309 C 1372.65 24.1581 1374.59 26.0094 1374.53 28.8618 C 1374.32 38.5589 1338.89 91.4472 1331.89 103.903 C 1329.05 105.486 1326.54 110.239 1324.66 113.187 L 1315.03 128.686 C 1310.93 134.187 1306.03 142.779 1302.35 148.862 C 1298.03 155.069 1294.66 160.619 1290.79 167.111 C 1289.42 169.21 1284.03 177.901 1282.63 179.02 C 1279.76 179.752 1277.83 181.289 1275.34 182.919 C 1279.18 176.218 1285.69 171.269 1291.2 158.971 L 1289.75 156.837 C 1288.6 157.119 1284.5 161.384 1282.66 162.608 L 1283.82 160.095 C 1297.86 138.903 1313.06 116.796 1326.58 95.4506 C 1325 91.7351 1323.76 90.7924 1320.93 87.9412 L 1342.04 59.2313 L 1349.35 49.3503 L 1356.55 40.3157 C 1361.22 35.3063 1367.8 28.2639 1370.83 22.2309 z"/>
<path transform="translate(0,0)" fill="rgb(163,97,2)" d="M 1320.93 87.9412 L 1342.04 59.2313 C 1345.52 59.381 1346.56 59.2258 1349.38 61.4681 C 1341.93 72.9251 1333.92 84.0137 1326.58 95.4506 C 1325 91.7351 1323.76 90.7924 1320.93 87.9412 z"/>
<path transform="translate(0,0)" fill="rgb(140,76,1)" d="M 1349.35 49.3503 C 1352.39 52.562 1352.43 51.6198 1352.98 55.3557 C 1351.78 57.5426 1350.75 59.3779 1349.38 61.4681 C 1346.56 59.2258 1345.52 59.381 1342.04 59.2313 L 1349.35 49.3503 z"/>
<path transform="translate(0,0)" fill="rgb(140,76,1)" d="M 1320.93 87.9412 C 1323.76 90.7924 1325 91.7351 1326.58 95.4506 C 1313.06 116.796 1297.86 138.903 1283.82 160.095 C 1283.74 156.683 1282.76 153.681 1279.05 152.546 C 1268.79 156.161 1274.97 168.039 1262.08 170.724 C 1266.35 163.508 1276.08 150.596 1281.17 143.407 C 1294.28 124.818 1307.54 106.329 1320.93 87.9412 z"/>
<path transform="translate(0,0)" fill="rgb(248,199,56)" d="M 1282.66 162.608 C 1284.5 161.384 1288.6 157.119 1289.75 156.837 L 1291.2 158.971 C 1285.69 171.269 1279.18 176.218 1275.34 182.919 C 1277.83 181.289 1279.76 179.752 1282.63 179.02 L 1279.48 184.983 L 1229.91 263.57 C 1223.62 273.604 1211.32 292.063 1206.32 301.775 C 1200.87 308.51 1183.09 339.003 1177.54 348.132 C 1172.32 356.724 1152.06 388.949 1148.73 396.925 C 1144.25 396.07 1140.15 397.822 1136.48 395.103 C 1139.42 387.203 1160.48 354.437 1165.94 345.297 C 1202.96 283.322 1244.14 223.546 1282.66 162.608 z"/>
<path transform="translate(0,0)" fill="url(#Gradient1)" d="M 1224.53 495.497 C 1228.52 489.313 1292.85 422.504 1295.06 422.079 C 1298.5 423.52 1301.34 424.261 1303.24 427.413 C 1279.29 454.66 1250.7 483.577 1225.78 510.47 C 1187.26 552.534 1148.99 594.835 1110.99 637.372 L 1110.3 634.636 C 1105.15 634.814 1099.3 647.29 1093.68 650.657 C 1092.83 641.64 1111.5 633.201 1113.02 622.463 C 1113.89 620.599 1130.56 602.302 1133.38 599.19 L 1192.79 533.867 C 1198.94 527.129 1223.24 502.658 1224.53 495.497 z"/>
<path transform="translate(0,0)" fill="rgb(248,199,56)" d="M 1136.48 395.103 C 1140.15 397.822 1144.25 396.07 1148.73 396.925 C 1156.37 398.324 1182.87 397.652 1192.17 397.628 L 1282.61 397.356 C 1289.53 397.344 1310.79 396.955 1316.21 398.717 L 1300.43 403.781 C 1292.1 401.382 1258.14 408.49 1248.27 409.802 C 1245.08 410.225 1236.17 410.054 1234.09 410.486 C 1237.43 410.74 1245.03 411.095 1248.06 411.669 C 1213.96 412.134 1179.87 413.076 1145.79 414.496 C 1128.68 415.082 1108.18 416.191 1091.29 415.678 C 1097.06 414.132 1133.24 399.168 1136.48 395.103 z"/>
<path transform="translate(0,0)" fill="rgb(11,156,251)" d="M 952.83 814.338 C 963.027 802.86 979.134 783.742 989.695 773.824 L 991.368 776.099 C 988.188 785.379 970.449 797.957 965.519 808.447 C 964.135 811.393 953.302 817.617 952.89 822.651 C 948.511 831.83 951.471 859 945.782 864.158 C 941.565 863.976 940.004 859.617 936.211 858.997 L 935.386 861.508 C 933.999 859.395 933.425 858.27 932.349 855.979 C 931.65 861.614 947.368 881.775 946.857 884.015 C 937.898 875.82 924.985 860.295 922.592 848.295 C 932.614 837.572 943.016 825.386 952.83 814.338 z"/>
<path transform="translate(0,0)" fill="rgb(11,156,251)" d="M 1279.48 184.983 C 1283.26 186.68 1281.91 186.717 1284.96 185.691 C 1287.01 186.656 1288.81 187.559 1290.97 188.284 C 1285.55 191.019 1282.11 189.895 1279.82 193.454 C 1285.16 195.193 1291.38 196.571 1289.38 203.438 C 1286.33 206.961 1282.01 208.633 1279.05 211.989 C 1274.02 217.663 1264.75 219.395 1259.44 225.45 C 1255.31 230.152 1252.05 236.555 1248.74 241.872 C 1239.22 257.173 1230.29 273.575 1220.09 288.354 C 1217.8 291.663 1211.1 303.522 1207.7 303.796 L 1206.32 301.775 C 1211.32 292.063 1223.62 273.604 1229.91 263.57 L 1279.48 184.983 z"/>
<path transform="translate(0,0)" fill="rgb(11,156,251)" d="M 1472.77 198.5 C 1474.48 197.515 1475.59 197.674 1477.55 197.601 C 1490.43 197.123 1485.36 212.521 1481.59 219.2 C 1479.26 223.335 1477.93 225.528 1473.93 228.993 C 1467.88 229.341 1458.98 233.082 1455.32 229.39 C 1455.29 226.073 1455.41 225.686 1456.85 222.69 C 1457.96 222.914 1457.39 222.963 1458.53 222.416 C 1451.69 218.415 1453.04 217.639 1450.93 210.273 L 1449.73 209.699 C 1448.77 212.279 1448.25 214.578 1446.26 216.372 C 1444.11 215.261 1444.54 215.03 1443.11 212.446 C 1443.54 208.654 1443.61 209.639 1446.97 206.355 C 1447.32 203.892 1447.3 203.662 1448.39 201.464 C 1453.95 198.589 1466.36 198.456 1472.77 198.5 z"/>
<path transform="translate(0,0)" fill="rgb(140,76,1)" d="M 860.468 903.196 C 864.606 904.598 868.172 903.881 872.531 903.443 L 871.189 907.199 L 862.597 916.678 C 862.299 915.602 861.652 914.113 861.228 913.032 C 857.607 910.816 858.166 911.529 853.315 911.475 L 858.644 905.207 L 860.468 903.196 z"/>
</svg>