<svg xmlns="http://www.w3.org/2000/svg" viewBox="0 0 800 400" width="800" height="400" style="width:100%;height:100%"><defs><clipPath id="a"><path d="M0 0h800v400H0z"/></clipPath></defs><g clip-path="url(#a)"><g opacity=".1" display="block"><path fill="#2B2B2B" d="m797.5 308.62000322-121.76000977-51.63000154-256.21000003 14.95000076-168.0199957 23.34000015-198.93000793-40.54000091-36.1000061 23.4600029 4.47000122 29.53999853 216.68000793 43.21000147 130.72999955-20.68100167 12.26000023 2.45100022 91.94000053-3.92000008 229.75000763 42.56000138 77.83999634-24.8199997L797.5 308.62000323z" opacity="1"/></g><g display="block"><path fill="#9E7700" d="M22.40999985 303.78999615 3.96000004 281.95999527 0 281.4699955l20.9499998 26.27000046 1.46000005-3.94999981z"/><path fill="#E2A942" d="m0 281.46899223 18.5999999-24.31799984L29 251.4009924 3.96000004 281.95999241 0 281.46899223z"/><path fill="#9E7700" d="m3.95999908 281.96000385 13.47000003 3.71000004 17.87000013-19.2900002-6.3000002-14.98000026-25.03999996 30.56000042z"/><path fill="#F2BD68" d="m3.95999908 281.96000004 18.4500003 21.82999992 6.59000062-1.5-11.57000047-16.61999988-13.47000045-3.71000004z"/><path fill="#E2A942" d="m29 251.39999461 31.5-8.11000037-16.55000001 23.94000053-8.6499998-.85099983L29 251.39999461z"/><path fill="#856400" d="m20.95000029 307.73999333 1.46000003-3.95000004 6.59000004-1.5 4.25000012 5.88899994-6.5200001 1.61100006-5.7800001-2.04999996zM17.4300003 285.66999435l17.8699999-19.29000091 8.65000009.85100078 15.23000002 7.12899971-17.57999993-3.9499998-5.2700001-.02000046-18.89999997 15.28000068z"/><g><path fill="#F2BD68" d="m197.94999313 319.61000061 10.61000061-19.77999878 18.11999894-10.74100113-22.38000107-26.21899938-54.299999-25.27100039-22.70999932-12.71899986-27.40000153-10.29999924-21.95999908 20.40999985 2.63999939 49.60899925 24.15999984 8.2709999 50.32000065 10.92000009 42.90000057 15.81999969z"/><path fill="#9E7700" d="m165.23000145 284.59999275 11 23.93099976 21.71999979 11.07900047 14.55000067-25.48900032 5.45999908-21.34000015-43.25-9.78100014-9.47999954 21.60000038z"/><path fill="#E2A942" d="m106.34999847 209.8900013 25.92999936 14.98999989 18.31000042 10.11099994-4.5300007 1.55900001-24.32999968-11.66999995-21.84000039-7.64899981 6.460001-7.34100008z"/><path fill="#B58B00" d="m172.1700058 241.09000015-27.43999958-1.29999971-12.44999981-14.90999937 39.88999939 16.20999908z"/><path fill="#F2BD68" d="m217.25000381 255.15000725-15.09000015-10.65999997-31.25999808-5.99000013-26.17000032 1.2900002 41.94000054 18.1099999 30.57999801-2.75z"/><path fill="#856400" d="m43.94999886 267.23000002 16.55000022-23.93899965 10.68999955-14.75-5.4199996 33.84899973 10.70000028 29.81999898-17.2900002-17.84899902-15.23000025-7.13100004z"/><path fill="#9E7700" d="m71.19000244 228.53999639 9.38000012-9.72000003 25.77999973-8.92999983-20.35999954 23.13999939-16.59999955 6.76000023 1.79999924-11.24999976zM65.77000237 262.3900032l29.01000005 22.20999924 27.8300001 23.1410006-46.1399994-15.53100062-10.70000075-29.81999922z"/><path fill="#BC8F2D" d="m65.7699976 262.38899803 3.61999988-22.59900093 16.59999943-6.75899887-5.25999975 40.80799866-14.95999956-11.44999886z"/><path fill="#E2A942" d="M94.77999878 284.59900427 141.5 276.29900455v28.43099976l-6.29000092 3.01000023h-12.5999999l-27.8300004-23.14100027z"/><path fill="#9E7700" d="m141.50000286 276.30000687 11.28000021 10.79000044 5.67000008 18.75000047 10.1500001 1.89999962-13.3300002 4.10000038-13.77000019-7.1090002v-28.43100071z"/><path fill="#BC8F2D" d="m94.77999878 284.59999466 19.6200006-28.9300003L141.5 276.29999445l-46.72000122 8.3000002zM141.50000572 276.30000687l4.53999996-4.40999985 19.18999958 12.70999956 11 23.92999983-7.63000011-.789999-10.14999965-1.90000058-5.67000004-18.75-11.27999974-10.78999996z"/><path fill="#B58B00" d="m144.73000145 239.79000664 20.5 44.81000137 9.47999954-21.60000068-9.47999954-7.3300001-20.5-15.8800006z"/><path fill="#E2A942" d="m146.03999567 271.89000511-24.30999994-47.01000023h10.55000019l12.4499998 14.9100008 20.5 44.81000042-19.19000005-12.71000099zM114.40000153 255.67000246l-28.4099989-22.63999987-5.25999927 40.80999947 14.049999 10.76000023 19.61999917-28.92999983z"/></g><g><path fill="#BC8F2D" d="m246.23999405 299.82999572-2.78000069 6.01000014-34.89999962-6.01000014 3.94000054-5.71000013 33.73999977 5.71000013z"/><path fill="#E2A942" d="m251.51000404 295.28100061-35.039999-19.39199972-3.96999932 18.23099995 33.73999882 5.71000004 5.2699995-4.54900027zM227.29000664 329.8609953l-33.92999935-19.53999997-24.75999928-2.57999992 12.05999947 11.05900025 42.72999954 16.91999984 3.89999962-5.8590002z"/><path fill="#BC8F2D" d="m223.3900032 335.7199974-2.37000083 6.43999863-34.55000043-12.2989993-31.20000148-18.02099944 13.33000183-4.09899998 12.05999946 11.05899954 42.73000145 16.92000056z"/><path fill="#F2BD68" d="m227.28999996 329.8599987-3.89999962 5.8590002L237.63 350.94999887h7.4399997l4.78999996-3.65999985-3.90999985-9.52100015-18.65999985-7.90900016zM246.23999786 299.82999563l5.2699995-4.54999971 19.48999978 5.74999976 6.88000011 6.71000004-3.5199995 4.97999978-9.22000027 1.46000004-1.7199999-6.72999978-17.17999972-7.62000013z"/><path fill="#E2A942" d="m246.24000263 299.8300047-2.77999973 6.01000022 21.6800003 8.34000015-1.72000026-6.7300002-17.1800003-7.62000018zM223.389997 335.72000694l-2.37000036 6.43999982 11.6900003 8.06000018 4.92000031.72999954-14.24000024-15.22999954z"/></g></g><g display="block"><path fill="#755800" d="m260.4917964 255.02442483 1.98384283 5.8110901-5.6893571 8.70352891-11.26580073.55166544 14.971315-15.06628445z"/><path fill="#2B2B2B" d="m254.72918853 264.0106666 2.78244843-.69841286 3.21360898-4.59412857-.2334404-3.6937116-5.76261701 8.98625304z"/></g><g display="block"><path fill="#737373" d="m549.94801712 168.05498505-8.03799987 127.93600082-10.13599992 9.25999832 4.85199976-140.37199402 13.32200003 3.17599488z"/><path fill="#8E8E8E" d="m786.63501358 327.50599289 3.49599838-157.24000168-65.76299858 16.25500488-22.05999946 13.6329956-11.21099854 49.81100274 7.94299698 112.15100288 17.5660019-6.29199981 3.67099952-135.82100296 28.77999973-13.63399887 21.64899922 127.42900085 15.92900085-6.29200363z"/><path fill="#737373" d="m758.45001197 324.17099762 12.25500035 9.62799835-4.0880003-133.72299957-17.56000042 6.29399872 9.39300037 117.8010025z"/><path fill="#8E8E8E" d="m643.34801483 282.06699371 8.25299835-157.00800323-66.74199867 7.10300445-23.06999779 10.5169983 8.7159996 21.17100143 45.59399892-7.3959999L626.9840145 286.1289978l16.36400032-4.06200409z"/><path fill="#737373" d="m615.60401726 274.86899567 11.3809998 11.26100158 7.09899974-133.51600647-17.9840002 3.83900452-.49599934 118.41600037z"/><path fill="#848585" d="m699.04001617 362.11599731-12.435997-7.8600006-4.89700318-129.4050007-142.08000183-57.4719982-6.85299683 138.37199783-15.1119995-11.6380005.59400176-155.60499953 31.91599655 6.0589981 27.77899933 9.4430008 124.35699845 46.144001-3.26799775 161.9620018z"/><path fill="#DCDCDB" d="m513.44302368 121.18299103 187.04700089 80.54399872 86.55700302-23.07099915 12.95300293-19.3979988-177.52700806-59.25899888-109.02999878 21.1839981z"/><path fill="#CDCDCC" d="M694.13901138 190.19199157 689.874012 203.2999916l4.2649994 12.58300018 105.86100005-38.27600002v-18.34800053l-105.86100006 30.93300033z"/><path fill="#9C9FA0" d="m513.23101807 138.50799751.21100616-17.3239994 180.6969986 69.00999832v25.68999863L513.23101807 138.5079975z"/></g><path fill="#165E60" d="m681.9340334 144.98999786-92.72000504-30.5530014.7709999 8.02500153 81.99899293 24.4109993 9.9500122-1.88299943z" display="block"/><g display="block"><path fill="#369395" d="m794.5506955 157.1273785-127.86537476-19.55305245-45.28631433 15.88533185 36.93048464 10.88883317 98.0076921 21.36583741 38.21351236-28.58694999z"/><path fill="#155E5F" d="m795.31372433 169.68777424-39.12224808 22.34090344-7.21946916-6.39521197 7.54387323-5.71166355 38.034697-22.79541515.763147 12.56138723z"/><path fill="#1C7678" d="m622.39663417 161.27943912-.99762753-7.81977933 135.11687202 26.4621445-.32551267 12.10600304-133.79373182-30.7483682z"/><path fill="#71CACC" d="m770.42169261 158.06791437-4.54888818 2.90310965 8.50183219 1.58105992 5.08286516-2.93556064-9.03580917-1.54860893zm-7.06917873 4.63274719-3.53700782 2.31717042 8.50481258 1.58069889 3.5386051-2.31232725-8.50640986-1.58554206zm-6.58952387 4.0770323-3.5387253 2.31133505 8.51459162 1.58656446 3.53688762-2.31816261-8.51275394-1.5797369zm2.44441743 5.62687523-9.0277476-1.54857873-4.5488882 2.90310965 8.5024373 1.5860233 4.54816668-2.90906569.52603182-.03148853zm-14.36082894-2.80736764-6.89980814-1.15361458-4.56119492 2.90963712 6.90588342 1.1538854 4.55511964-2.90990794zm3.0444506-1.75989258 3.5395973-2.31244743-6.90275076-1.16131603-3.5366508 2.32014937 6.89980425 1.1536141zm6.61617349-3.54940755 3.53812026-2.31629794-6.90214945-1.1563522-3.5380038 2.31729107 6.90203299 1.15535907zm-.25593638-4.19164167 6.91391305 1.16197881 4.55075612-2.90434317-6.90263431-1.16032313-4.59379581 2.38273354.03176095.51995395zm-25.10986805 10.4555452.03073482.52813664 4.55000448-2.90223716-6.90004675-1.15560016-4.58856131 2.37605578 6.90786876 1.1536449zm7.10301224-4.10397917 3.5380038-2.31729107-6.90489122-1.15400559-3.5398378 2.3104621 6.90672522 1.16083456zm6.62053128-3.55497211 3.53975148-2.31951726-6.90687753-1.15376521-3.53887578 2.3184037 6.90600183 1.15487877zm6.08878862-3.5207778 4.06514812-2.34790664-6.90004862-1.1555997-4.06749329 2.3451688 6.90239379 1.15833755zm-31.99391823 9.8228159 4.59391604-2.3817411-6.9060032-1.15487813-4.06192837 2.34953157 6.90103919 1.15547993-.52702366.03160773zm7.63836863-4.14163296 3.5387555-2.3193966-6.90191087-1.15436687-3.53701068 2.31717053 6.90016605 1.15659294zm-.8157117-4.6798674 6.9068756 1.1537652 3.53971756-2.31145476-6.90771743-1.16071447-3.53887573 2.31840402zm5.57217134-3.48640089 6.9017906 1.15337408 4.0649076-2.34989217-6.8998062-1.1536144-3.538996 2.31741126-.527896.03272123zm-19.48609013 8.01049538-6.90203162-1.15535923-4.06514717 2.34790653 6.9071154 1.15575064 4.0600634-2.34829794zm3.0442127-1.76187775 3.53689064-2.31816346-6.89980586-1.1536145-3.53899611 2.31741127 6.90191133 1.15436669zm6.09958609-3.523093 3.53761194-2.31220706-6.89992551-1.15460724-3.53971803 2.31145482 6.9020316 1.15535947zm-1.30095894-4.12045264 6.90477003 1.15301303 3.53887574-2.31840393-6.90600369-1.1548783-3.05152199 1.75974122-.48612009.56052798zm-23.58224426 9.83634203 4.06018336-2.34730512-6.90612301-1.1558712-4.05482767 2.3416199 6.90076732 1.16155642zm.23646945-4.74185051 6.90675537 1.1527726 3.5368904-2.3181635-6.9058825-1.15388575-3.57060466 1.79038772.03284139.52888893zm6.06051732-4.04518366 6.8986928 1.15274197 3.5718376-1.7885226-6.90004599-1.15559976-3.57048441 1.79138039zm12.9997528-2.36650063 3.04481381-1.7569139-6.90088784-1.1625494-3.05179402 1.76581832 6.90786805 1.15364498zm-30.45501327 9.20526866-.5288901.03284167 4.066892-2.35013247-6.90016509-1.15659293-3.53836647 2.31431305 6.90052966 1.15957068zm-.3175904-5.2327834 6.89980623 1.15361458 3.57183739-1.78852233-6.9007683-1.16155665-3.57087532 1.7964644zm12.99951183-2.3684859 3.5713573-1.79249337-6.9077475-1.15265187-3.57060472 1.79038725 6.90699492 1.15475799zm6.08803455-3.51867197 2.52874122-1.73469018-6.90600325-1.1548786-2.52473939 1.7261475 6.90200142 1.16342128zm-30.48860726 8.67848577 20.77612532-12.81953326-25.46022059-3.7040838-29.36710003 9.66275814 34.0521875 6.86073873-.0009922.0001202z"/></g><g display="block"><path fill="#BB8F2C" d="m209.24276901 242.2238699-14.06398192 16.75008442 6.95925922 9.62762996s16.38758321 1.22063045 16.6464411.80805091c-1.05408477 1.67261185-.84639775 1.22013956 15.43127451-22.76984557l-24.9729929-4.41591972z"/><path fill="#755700" d="m217.80642594 285.75816972 18.0223571-3.37015634 11.11479669-14.10435058-30.67118887-1.22047008-14.1343457 1.53838893 15.66838078 17.15658807z"/><path fill="#9E7700" d="m240.54857765 272.02558807-14.3323882 1.97793945-9.9428794-6.94073446 9.46713284-14.33934166 3.74471496-2.77494017 7.33015298 2.26820312 3.73326682 19.80887372zM259.08727954 235.49438545l-4.2333317-6.5443032-7.65727365-5.27004934-5.98481334 8.49075956-2.5916626 4.6299008 9.69050916 7.64386211 10.77657213-8.95016993z"/><path fill="#755700" d="m243.38043265 234.88813336-4.75931708 1.91215716 4.49540639 3.96656046 3.2728486 2.19747117 4.91900304-7.78477505-7.92794095-.29141374z"/><path fill="#BB8F2C" d="m259.64162328 257.3259068 1.12398614-3.04557166 1.56922013-7.26477921-.6407114-7.24305949-2.60815308-4.2786315-11.94053778 6.27327863 12.49619599 15.55876322z"/><path fill="#464646" d="m248.66532399 257.30987814 7.52305833-9.87786534 3.45415735 9.89349568-10.97721568-.01563034z"/><path fill="#755700" d="m227.6510367 253.62270482 1.83412128-3.67419 7.33015266 2.26820267-1.0699779 5.01896683-3.97772315 4.0738377-4.1165729-7.6868172z"/><path fill="#F1BC68" d="m248.66532637 257.30987704-19.17924892-7.36176214 9.13504153-13.14782326 17.56726616 10.63172045-7.52305877 9.87786495z"/><path fill="#BB8F2C" d="m236.89219756 252.79181081 3.6007868 19.10855979 11.61957964-4.52494456c.00677496-.00949181 1.15524027-1.57049536 1.16201485-1.57998805l3.47336836-4.728995c.07296898-.10046655 2.7636779-3.76357322 2.83899927-3.86615412-3.65815516-.00560904-7.3172272-.01081911-10.97629906-.01602934l-11.71844986-4.39244872z"/><path fill="#E1A942" d="m229.48607284 249.94811508-20.24330478-7.72424528 15.70206978-19.83727616 13.67627574 14.41369827-9.13504074 13.14782317z"/><path fill="#F1BC68" d="m208.72027615 223.89350958 8.44476802-27.21286903 21.03152382 23.5428913-3.41131272.71691048-16.49686567 2.42484358-9.56811345.52822367zM209.24328683 242.22255491l-12.82294634-1.68799527-7.55112265 7.12212021-23.48245362 11.62818287 29.79294008-.31130603 14.06358253-16.75100178z"/><path fill="#BB8F2C" d="m224.94483991 222.38659482 13.25264813-2.16346185 8.99787046 3.4563808-5.9844139 8.49167644-2.59074559 4.62950183-13.6753591-14.41409722zM224.9448404 222.38659356l-6.65684527.97777403-9.56863125.52953904-12.29913993 16.64288492 12.8225473 1.68707842 15.70206915-19.8372764z"/><path fill="#856300" d="m198.4258987 263.4652684-17.75500147-6.62273829 22.93464123-7.90527147-5.17963975 14.52800976zM218.28931058 223.3648856l1.82425164-14.28149779 14.67117849 11.85836952-16.49543013 2.42312827z"/><path fill="#9E7700" d="m180.6718147 256.84213132-15.28465116 2.4436489 36.75088353 9.3158058-3.71174902-5.13540037-17.75448334-6.62405433z"/><path fill="#BB8F2C" d="m220.11355981 209.08338886-2.94851476-12.4027487 21.03244023 23.54249245-3.41091321.71782662-14.67301226-11.85757037z"/></g><g display="block"><path fill="#165E60" d="m251.59474787 268.34567376-5.57407487.74427113 9.11068813 17.99632651-2.40767347 9.15218494 8.79263605 15.79212727-39.05072594 24.81669008 21.43298402 19.87713142 9.28653349.53879432-22.48097287-21.30776802 36.6567219-22.82483572-9.0578089-17.98007785 3.733004-7.10936744-10.44131154-19.69547664z"/><path fill="#858686" d="M243.89897922 356.72532006s-2.25479103 5.34377364-1.89990076 5.407437c.35488981.06366352 3.06957237-2.71994224 3.06957237-2.71994224l.91552529 3.33141313 1.74565743-3.10565307 2.39399773 3.32049324 1.03396629-3.01184582 2.413177 2.36222723-.38945273-5.05450538-9.28254262-.52962409z"/></g><g display="block"><path fill="#9E7700" d="M244.49752103 263.46424155c-.10386746.36344951-.4831332.5733126-.84658273.46944515-.362488-.10359268-.57262588-.48189693-.46875842-.84534645.10386746-.3634495.48217171-.57358738.84465972-.4699947.36344952.10386746.57454889.4824465.47068143.845896zM242.01528983 263.28840133c-.10386746.3634495-.4831332.5733126-.84658273.46944514-.362488-.10359268-.57262588-.48189693-.46875842-.84534644.10386746-.36344951.48217171-.57358739.84465972-.4699947.36344952.10386745.57454889.48244648.47068143.845896zM239.96174702 265.49922764c-.10386746.36344951-.4831332.5733126-.84658273.46944514-.362488-.10359267-.57262587-.48189693-.46875842-.84534644.10359269-.36248801.48217172-.57358738.84465972-.4699947.36344952.10386746.57427411.48340798.47068143.845896zM242.63780153 265.55365322c-.10386746.36344951-.48313321.5733126-.84658273.46944514-.362488-.10359267-.57262588-.48189693-.46875842-.84534644.10359268-.36248801.48217171-.57358738.84465971-.4699947.36344953.10386746.57427412.48340798.47068144.845896zM245.40120212 265.85560837c-.10386746.36344951-.4831332.5733126-.84658273.46944514-.362488-.10359268-.57262588-.48189693-.46875842-.84534644.10386746-.36344951.48217172-.57358738.84465972-.4699947.36344952.10386746.57454889.48244649.47068143.845896zM247.75627211 265.52293255c-.10386746.3634495-.4831332.5733126-.84658273.46944514-.362488-.10359268-.57262587-.48189693-.46875841-.84534644.10359268-.36248802.4821717-.57358738.84465971-.4699947.36344952.10386746.57427411.48340798.47068143.845896zM244.36880617 267.95784696c-.10386746.3634495-.48313321.5733126-.84658273.46944514-.362488-.10359268-.57262588-.48189693-.46875842-.84534644.10359268-.36248802.48217171-.57358738.84465971-.4699947.36344953.10386746.57427412.48340798.47068144.845896zM241.7927466 267.93199817c-.10386745.36344951-.4831332.5733126-.84658272.46944514-.362488-.10359268-.57262588-.48189693-.46875842-.84534644.10359268-.36248801.48217171-.57358738.84465972-.4699947.36344952.10386746.5742741.48340798.47068143.845896zM247.43222702 267.8577666c-.10386746.36344952-.48313321.57331261-.84658273.46944515-.362488-.10359268-.57262588-.48189693-.46875842-.84534644.10386746-.36344951.48217171-.57358739.84465971-.4699947.36344953.10386745.5745489.48244649.47068144.845896z"/><g><path stroke-linecap="round" stroke-miterlimit="10" stroke="#C4C4C4" stroke-width="1.05" d="m242.0152893 263.28840316-26.11998983 11.76768335-9.55195325 22.40785132" fill="none"/></g><g><path stroke-linecap="round" stroke-miterlimit="10" stroke="#C4C4C4" stroke-width="1.05" d="m242.63780198 265.55365335-17.9186754 12.9372753-6.6079431 18.6678457" fill="none"/></g><g><path stroke-linecap="round" stroke-miterlimit="10" stroke="#C4C4C4" stroke-width="1.05" d="m241.7927487 267.93199778-13.34447392 20.15709846-4.08449393 16.50498876" fill="none"/></g><g><path stroke-linecap="round" stroke-miterlimit="10" stroke="#C4C4C4" stroke-width="1.05" d="m244.72104144 269.48023574-7.39159123 16.57703252-7.64964246 22.34203904" fill="none"/></g><g><path stroke-linecap="round" stroke-miterlimit="10" stroke="#C4C4C4" stroke-width="1.05" d="M247.3693011 270.23602317 246.13129192 287.35272l-.45648529 13.66872113" fill="none"/></g><g><path stroke-linecap="round" stroke-miterlimit="10" stroke="#C4C4C4" stroke-width="1.05" d="m246.5868823 268.3265246-4.87545085 17.06001324-3.08516856 18.25598698" fill="none"/></g></g><g display="block"><path fill="#9E7700" d="M256.09618103 242.15721242c.25525632.27879777.2354614.7118026-.04333638.96705893-.27806022.25458103-.71038977.23552366-.9656461-.04327411-.25458104-.27806023-.23619894-.71112733.04186128-.96570837.27879778-.25525633.71254016-.23613668.9671212.04192355zM256.70109797 244.78006417c.25525632.27879778.2354614.7118026-.04333639.96705893-.27806021.25458104-.71038976.23552367-.96564608-.0432741-.25458105-.27806023-.23619895-.71112733.04186126-.96570837.27879779-.25525633.71254016-.23613668.96712121.04192354zM259.10892915 241.1370207c.25458105.27806023.2354614.7118026-.04333639.96705894-.27806021.25458104-.71106504.23478612-.96564608-.04327411-.25525632-.27879778-.23619895-.71112733.04186126-.96570837.27879779-.25525633.7118649-.23687423.96712121.04192355zM259.93118342 243.4537764c.25458105.27806022.2354614.7118026-.04333639.96705892-.27806022.25458104-.71106504.23478612-.96564609-.0432741-.25525632-.27879778-.23619895-.71112733.04186127-.96570837.27879779-.25525633.71186489-.23687423.9671212.04192354z"/><path stroke-linecap="round" stroke-miterlimit="10" stroke="#CECECD" stroke-width="1.05" d="m255.12912183 242.11387573 1.89587543-21.92668056 13.23484369-19.16757448M257.73872864 240.65336019l7.7004978-21.25250268 16.27381752-18.34210016M259.87451769 240.43607752l13.89771266-16.38220746 25.75612088-11.5660056" fill="none"/><g><path stroke-linecap="round" stroke-miterlimit="10" stroke="#CECECD" stroke-width="1.05" d="M261.2993814 240.83579651c.71531234-.55593705 14.35002698-9.96027737 14.67836223-10.35986315.32839769-.40099868 25.63777935-6.9224352 25.63777935-6.9224352" fill="none"/></g><g><path stroke-linecap="round" stroke-miterlimit="10" stroke="#CECECD" stroke-width="1.05" d="M261.52213884 242.2371391s16.65030922-7.08503763 17.89779523-7.3499701c1.2474856-.26493274 22.5141063 5.71837305 22.5141063 5.71837305" fill="none"/></g><g><path stroke-linecap="round" stroke-miterlimit="10" stroke="#CECECD" stroke-width="1.05" d="M261.73921337 244.00840528c.76030412-.59712977 18.49907675-3.2798416 18.49907675-3.2798416l12.8520575 3.3410769" fill="none"/></g></g><path fill="#165E60" d="m259.27432749 259.381232 1.63869329-8.50340825 246.21977088-154.4568638 5.7221757 4.42726855L259.27432749 259.381232z" display="block"/><g display="block"><path fill="#165E60" d="m629.23797381 145.27777254-30.46044735.56740191-3.7514605 7.02922794 4.4376004 3.79771415 29.56799966-6.40287844.20630779-4.99146556z"/><path fill="#369496" d="m575.45680081 142.79343593 19.54170916 1.48126538 4.09233168 6.53376522.37230348 5.86450027-23.69264127-8.92069246-.31370305-4.9588384z"/><path fill="#1C7678" d="m604.25529169 140.96913602-28.79849744 1.82430148 23.63404188 8.01503096 30.145759-5.53036655-24.98130344-4.30896589z"/><path fill="#165E60" d="m607.9916325 127.57422896.24252621 18.12081713-5.7335289.8201112-4.76450598-.6044014-.85017595-19.44710903 5.29230738.56482426 5.81337725.54575784z"/><g><path fill="#1C7678" d="M709.3852945 21.22977948 691.90271097 10.8756808l-9.57889422 89.53040914 3.43912057 45.98079117 18.0155302-6.12137979 5.60682698-119.03572185z"/><path fill="#72CBCC" d="m681.77128206 25.24292755-166.97701573 3.2013905 2.4492795 96.784807 157.63406852 6.90408196 6.8936677-106.89027946z"/><path fill="#369496" d="m691.90186063 10.8751629-191.20401855 3.37668202.73325236 88.06794666.16668278 20.04005541.07674847 9.1920883-.02919861 8.13998154 5.29694181.02428117 11.0469919.16495341 9.7977471.44086197 157.97593493 6.06487336 6.13891781-135.51172384zM517.24439668 125.2296567l-2.4501311-96.78533745 166.97787132-3.20086655-6.89536813 106.88923594-157.6323721-6.90303194z"/></g></g><g display="block"><path fill="#F4D65D" d="m246.79239516 229.2086767-1.6127643 2.77952512-1.79972142 2.90124651-.0322383 3.77989605 2.8449455 2.43714612 5.1153527-5.92786137-.97688826-3.2218202-3.53868592-2.74813222z"/><path fill="#2B2B2B" d="m243.37951067 234.8885315 1.80012043-2.90032952 3.11135047 1.520694.8080853 4.12196772-3.30940624-.26427366-2.41014996-2.47805855z"/><path fill="#EBEBEB" d="M244.59717683 233.28105018c.05735763-.05113818 2.4359896-2.41910562 2.4359896-2.41910562l1.1377491 1.02294486-2.56198712 2.3125334-1.01175158-.91637264z"/></g><g display="block"><path fill="#F4D65D" d="m224.24707391 258.8318997 2.26892099-3.59731866 1.13504874-1.6118764 3.4025339-1.90730331 2.74494133 1.0421603 1.1325557 4.19341771-3.16254092 4.35814334-4.25835151.86308078-2.49031445-.82798014-.77279378-2.51232362z"/><path fill="#2B2B2B" d="m226.51599468 255.23458113.72972896 3.14507809 3.07470392 1.19092135 1.57583796-.23324627.3798954-3.22667394-2.0239429-2.26225284-2.60025757-.22610191-1.13596577 1.61227552z"/><path fill="#EBEBEB" d="M227.22362906 256.1262668c.05735753-.05113813 2.4350727-2.41870655 2.4350727-2.41870655l1.7001307-.3135164-2.56158795 2.3134503-1.57361545.41877264z"/></g><g display="block"><path fill="#F2BD68" d="M382.49099922 337.91299438zM382.49099922 337.91299438zM382.49099922 337.91299438zM382.49099922 337.91299438z"/></g></g></svg>