<svg xmlns="http://www.w3.org/2000/svg" viewBox="0 0 800 400" width="800" height="400" style="width:100%;height:100%"><defs><clipPath id="a"><path d="M0 0h800v400H0z"/></clipPath><clipPath id="b"><path fill="#fff" d="M-2.19099998-2.00099993v30.50000048l41.37499809 17.75-.875-25L-2.191-2.00099993"/></clipPath></defs><g clip-path="url(#a)"><g display="block"><path fill="#2B2B2B" d="M69.03997803 345.41500044l184.7590065-45.88800001 220.63100815 22.94400024-21.19801331 44.53000069-197.93499374 32.99699974H129.85498047l-60.81500244-54.58300066z" opacity=".1"/><path fill="#8E8E8E" d="M109.72597504 361.47399902l5.52999878-138.12799835 74.20300102 14.27799988 24.89100075 11.97699737 22.12400055 43.75700188-18.43600083 98.520998-19.82099914-5.52899933-4.14299965-119.31200027-41.94900132-11.97799683-24.42500114 111.94099808-17.97399902-5.52700043z"/><path fill="#737373" d="M141.52797914 358.54502869l-13.82800031 8.45800018 4.61200046-117.47100067 19.81400013 5.52899933-10.59800028 103.48400116z"/><path fill="#8E8E8E" d="M290.34897995 321.55801392l-9.31299973-137.9260025 75.3049984 6.23999786 26.03100014 9.23900223-9.83499908 18.59800338-51.44400025-6.4980011-12.28199959 113.91500092-18.46199989-3.5680008z"/><path fill="#737373" d="M321.65297413 315.23501587l-12.84199953 9.8920021-8.00999975-117.288002 20.29199981 3.37200164.55999947 104.02399826z"/><path fill="#848585" d="M218.03697968 391.87902832l23.50600433-6.9050064 5.52500152-113.67699624 160.30899811-50.4869976 16.21399689 122.92899704 15.67700195-11.59799958-.66999817-136.69400406-43.1190033 5.32400513-31.34199905 8.29499817-149.78899765 40.5359993 3.68899537 142.27700424z"/><path fill="#737373" d="M395.73196888 224.47801971l9.06799984 109.31299973 18.91599941 10.07300186-13.33799958-124.55400085-14.64599967 5.16799926z"/><path fill="#DCDCDB" d="M98.19998169 211.83101845l11.06298828 18.88500023 116.6130066 20.26599884 218.1539917-70.75399971-130.128994-18.60899926-215.70099258 50.2119999z"/><path fill="#2B2B2B" d="M261.9839716 173.70401001l-65.4990015 15.2470007 11.34100341 27.4840002 48.39999819 14.73900032-35.4930005-17.50400066 79.27400207-26.7159996L261.9839716 173.70401z" opacity=".1"/><path fill="#CDCDCC" d="M98.19997406 227.95101547v-16.12000084l125.36500168 29.01900053 14.28900528 11.51400042-14.28900528 11.05599976-125.36500168-35.46899987z"/><path fill="#9C9FA0" d="M444.26698303 195.44701958l-.23799896-15.21899987-220.46399689 60.62199974v22.56900216l220.70199585-67.97200203z"/><path fill="#785D87" d="M137.76797962 58.4330101l14.75299984-11.6550026 13.3689999 90.42700196-.4619999 46.9810028-16.1359999-5.06300353L137.76797961 58.4330101z"/><path fill="#90759F" d="M152.52098846 46.77801514l12.90699769 137.4090042 75.12399888-11.97100066 5.0669999 5.06199646 4.60899998-6.90599823 84.3889966-12.90000153-5.98899842-126.35700226-176.10699463 15.66300202z"/><path fill="#584164" d="M223.03798008 186.49501562l26.73499966-1.38499975 3.6800003 6.90699983-3.6800003 4.148-26.27699948-4.60699994-.45800018-5.06300014z"/><path fill="#90759F" d="M270.04997158 180.50400686l-17.04999971 2.76699972-3.22599936 6.90800012v5.98699987l20.27599907-10.59899974v-5.06299997z"/><path fill="#785D87" d="M244.69997585 180.50401878h25.3500005l-20.27700043 9.67399979-26.7350006-3.68299985 21.66200053-5.99099994z"/><path fill="#584164" d="M240.55197191 172.21601915l.92299986 13.35100031 5.0719999.46399975 4.14299978-.921-.4619999-14.73899985-4.60999987.9159999-5.06599977.9289999z"/><path fill="#90759F" d="M220.73297882 202.61500695l111.07700348-23.95400002 40.5550003 11.5170002-31.8030014 11.51499983-84.79999924 23.95400003-35.02900314-23.03200004z"/><path fill="#584164" d="M219.73298454 214.67001963l36.49299908 16.50400018 5.98899937-5.99100017-6.91799927-4.60600019-34.56399918-17.96199965-1 12.05499983z"/><path fill="#785D87" d="M371.90598679 197.08701038l.45899963-6.9100008-117.0660019 30.39900017.92700196 10.59799957 115.6800003-34.08699894z"/><path fill="#DDDDDC" d="M162.19998169 60.73601532l154.85700226-14.27999878 3.22799682 98.57999802-146.1060028 23.95399856-11.97899628-108.2539978z"/><path fill="#CDCDCC" d="M234.09998322 203.99500632l4.61299896 2.30199981 7.3710022-1.83799982-4.14300156-2.30299997-7.8409996 1.83899998zm6.9109993 3.6889999l3.22500228 1.83999967 7.375-1.83999968-3.22500229-1.84299993-7.375 1.84299993zm5.98900222 3.21900033l3.22599793 1.84500027 7.38000106-1.84500027-3.22600174-1.8380003-7.37999725 1.8380003zm6 3.22599984l4.144001 2.3079996 7.36999894-1.84399986-4.144001-2.30200004-7.83300019 1.8380003h.46300125zm16.12799835-.91699982l5.9940014-1.38199997-4.15299989-2.30600071-5.98900032 1.37900066 4.14799881 2.30900002zm-.92399978-5.06900025l-3.22399903-1.84600019-5.99000168 1.38600016 3.22600174 1.83899974 5.98799897-1.3789997zm-5.98799897-2.76200008l-3.22600174-1.84399986-5.9889984 1.38100004 3.22599792 1.84299994 5.98900222-1.38000012zm-5.98900222-2.7659998l-4.15599823-1.8440001-5.98899842 1.385 4.14599991 2.30299997 5.99899674-1.38599992v-.45799994zm22.57500267 8.28800011l5.99499893-1.37900066-4.14900017-1.83999968-5.98900032 1.38100005 4.14300156 2.3039999v-.4659996zm-.45300103-4.60600042l-3.22699928-1.83799982-5.99400139 1.38100004 3.2270012 1.84299994 5.99399947-1.38600016zm-5.99399948-2.75999975l-3.22700119-1.84500003-5.99399948 1.38100004 3.22500038 1.84500003 5.9960003-1.38100004zm-5.53100013-2.76600003l-3.69000054-1.84000004-5.98899841 1.38100004 3.68999863 1.84399999 5.98900032-1.385zm22.12299966 8.2939999l5.99000013-1.38100004-3.68700015-1.84299993-5.99399948 1.37900019 4.15499973 1.84499979h-.46400023zm-.46500015-4.60599994l-3.22599935-1.84399986-5.98900128 1.37999987 3.22500038 1.84500003 5.99000025-1.38100004zm-5.52399969-2.76699996l-3.22600079-1.843-5.99499893 1.384 3.22799874 1.84000004 5.99300098-1.38100004zm-5.53600025-2.76100004l-3.22699928-1.84300005-5.98800087 1.38000011 3.69000053 1.84399998 5.98799896-1.38100004h-.46299934zm21.6630001 7.83000005l5.99400044-1.38000012-3.69000053-1.84399986-5.98799986 1.38100004 3.68399996 1.84299994zm-.45899987-4.60500002l-3.22500008-1.84399999-5.98999983 1.38 3.22599983 1.84500003 5.98900008-1.38100004zm-5.53500008-2.76600004l-3.22800017-1.83800006-5.98799991 1.37900007 3.22700023 1.83900003 5.98899985-1.38000004zm-5.5250001-2.76699996l-2.76900005-1.38000011-5.99499893 1.38000011 3.22499942 1.84500003 5.99599934-1.38000011-.45699978-.46499992zm21.65700054 7.83599997l5.98900032-1.38599992-3.67900085-1.83800006-5.99499989 1.38000012 3.68500042 1.84399986zm-.45900058-4.61199999l-3.22599984-1.37899995-5.99399995 1.37899995 3.22599983 1.84500003 5.99399996-1.38v-.46500003zm-5.52999974-2.75900006l-3.22600007-1.3809998-5.98900008 1.3809998 3.22700006 1.38000011 5.9880001-1.38000011zm-5.53000009-2.76199985l-2.76699996-1.38600015-5.99000013 1.38600015 2.76100016 1.37899971 5.99599993-1.3789997zm21.19799936 7.82999993l5.99100113-1.386-3.22599983-1.83900003-5.98900032 1.38100004 3.69099998 1.84399999h-.46700096zm0-4.60500002l-3.22399902-1.38700009-5.98900032 1.38700009 3.22599983 1.37800002 5.98699951-1.37800002zm-5.52999878-2.7659998l-3.22400093-1.38000011-5.99599981 1.38000011 3.22699976 1.37899971 5.99300098-1.3789997zm-5.53000068-2.7680006l-2.3039999-1.37899971-5.99399996 1.37899971 2.30999994 1.38600063 5.98799992-1.38600063zm21.20700073 7.37300038l29.49300003-7.83000016-26.2649994-6.90899944-22.1290016 4.60599995 18.90200042 10.13299965h-.00099945z"/></g><g display="block"><path fill="#A687B9" d="M352.690979 157.70400047L368.76797867 153.75l32.5550003 18.5170002-13.60200023 8.46899986-35.02999974-23.03199959z"/><path fill="#785D87" d="M352.690979 168.75899935l35.49400044 17.50499964 5.99000072-5.99199963-6.92000103-4.60500002-34.56400013-17.96299982v11.05499983z"/><path fill="#90759F" d="M400.86497879 179.17700075l.45699978-6.90900015-14.06599999 3.39800024.92799998 10.59800005 12.68100023-7.08700014z"/><path fill="#464646" d="M362.34297943 155.3210001l-2.94199943.7329998 31.73299884 18.60499954 3.04099942-.78899955-31.83199883-18.5489998z"/><path fill="#2B2B2B" d="M391.13497758 174.65800095l.98699999 8.44799995 3.01900005-2.02699995-.967-7.20900011-3.03900004.7880001z"/></g><g display="block"><path fill="#CCAC13" d="M215.647995 91.72599983l8.38899981 5.033 5.49699986 27.01200008-8.98099994 1.0869999-4.90499973-33.13199998z"/><path fill="#AC923B" d="M220.55299473 124.85700083l26.71800041 14.17400026-17.7380004-15.26000023-8.98000001 1.08599997z"/><path fill="#E4C728" d="M224.03699303 96.75799942l50.66200065-4.0359993 1.39800072 24.52699936-14.8380003 18.95099938-13.98800039 2.82999992-17.73700094-15.25899935-5.49699974-27.01300001z"/><path fill="#2B2B2B" d="M247.31099558 111.79200006l-3.68900013 16.76899981 16.87900019-3.32800007-6.852-12.58699977 6.1030004-5.18900025-7.20800042-7.01799965-10.0150001 3.48999977 4.78200006 7.86300016z"/><path fill="#F4D65D" d="M215.647995 91.72600055l48.21299934-3.73700023 10.8369999 4.73300022-50.66199876 4.03700024-8.38800048-5.03300023z"/><path fill="#E4C728" d="M226.33199501 93.57700157l.1109991-14.33200034 17.83700085-14.05299989.3939991 6.06599999-13.1219995 9.95099985.07200003 12.90699995-5.29199958-.53899956z"/><path fill="#CCAC13" d="M231.62399483 94.11600208l3.17599988-3.87400007.49500012-6.59299982 10.28399992-6.13499987-.90499973-6.25600004-13.12300015 9.95099986.07299996 12.90699994z"/><path fill="#E4C728" d="M263.28099537 92.53800106l-.6420002-14.31799972-18.36000061-13.0269996.39400005 6.06499959 12.93400026 9.11300003.40400004 12.8999995 5.27000046-.7329998z"/><path fill="#CCAC13" d="M258.01299429 93.27100182l-3.31700015-3.75299979-.73800016-6.57100016-10.50500011-5.75099986 1.22000027-5.93900013 12.93499994 9.11399996.4050002 12.89999998z"/></g><g display="block"><path fill="#3E8F6E" d="M659.2689743 343.11001587c-16.98799896-1.05200195-31.09700012-2.04799652-41.2160015-2.79499817-23.52099896-1.73500061-44.02799893-3.26599884-70.36499978-6.09600067-12.47000122-1.34000397-22.64899826-2.58499909-29.23899841-3.41899872l-48.6289978-49.77000236 46.47799682-14.75999928 23.07099915-55.96000004 39.92100048-39.2899971v29.6099968c17.3890009 6.61999893 56.81800175 29.28000068 56.81800175 29.28000068l-64.37800217-30.96999931 7.18000126-29.55999756 86.34400081-6.05700683 37.86899567 144.12700271-43.85399628 35.65999985z"/><path fill="#35785D" d="M703.12397003 307.32501602l-43.85499954 35.78499985c-28.25899887-2.0660019-56.5179987-4.13199616-84.77799988-6.1969986-9.0949974-10.42399597-18.26300049-21.20199966-27.47600174-32.3390007-10.69599914-12.92899704-20.92900085-25.71099853-30.71599579-38.30399895l23.0699997-55.96000099 39.91999817-39.2899971v29.6099968c17.39000034 6.62000274 56.81900024 29.28000068 56.81900024 29.28000068l18.41300202 20.29700089 48.60299682 57.11799812z"/></g><g display="block"><path fill="#2B2B2B" d="M468.73200989 370.83401012l198.94600677 29.16599942 68.23699188-25.52699924-122.70499515-20.42699933-144.4780035 16.78799915z" opacity=".1"/><path fill="#BEDB8E" d="M571.66401672 314.26001549l-2.6269989-43.21300125V258.9630165l10.0349989 7.31499863 33.57899952 24.48000002-5.71099854 28.50200033-6.81200027 4.58299827-26.67200089-4.58299827-1.79199982-5z"/><path fill="#446024" d="M573.87301731 356.34801483l-2.21000004-42.08799934 35.27799988 5-6.81200027 37.5039997-13.75299979 8.75200082-12.50299978-9.16800118z"/><path fill="#BEDB8E" d="M623.89901829 320.50901413l-11.2489996-29.75099993 14.48200035-20.96099996 28.72200013.59900093 5.4279995 44.27999878-5.56399918 7.91699981-24.7550006 3.33600045-7.0640006-5.42000008z"/><path fill="#446024" d="M638.46501303 363.43101501l-14.56500006-42.92099952 37.38199997-5.83300019 1.93799972 47.92099953-12.91799974 6.25100136-11.8369999-5.41800118z"/><path fill="#5A753C" d="M633.46500969 382.18101406l5.00000095-18.75 24.75399971-.83300018 5.00000096 20.0020008-17.50100081 3.75-17.25300081-4.16900062z"/><path fill="#446024" d="M633.46500969 389.26701427v-7.0869999l34.75400162.41899991v6.66799999h-34.75400162z"/><path fill="#5A753C" d="M600.12801552 372.60001421v-15.83700037l-26.25599969-.41499996-22.50199973 15.0010004 13.33500004 4.58500004 35.42299938-3.33400011z"/><path fill="#446024" d="M600.12801552 379.26701403v-6.66700006l-48.75799942-1.25100016v6.66800022l48.75799942 1.25z"/><path fill="#5A753C" d="M655.85401154 270.39601418l-43.20400078 20.3620005-43.61400002-22.0820005-.69200134-10.4139998-.37599945-5.65600013 87.94700241-1.24200058-.06100082 19.03200051z"/></g><g display="block"><path fill="#464646" d="M565.4529934 117.83300972l-41.22399903-35.0340004 34.70199966 2.05300045 3.95199967 9.0449996 2.5699997 23.93600035z"/><path fill="#C3977A" d="M607.20799065 175.5030098l-10.73900032-44.08499909 10.70299911-11.57500028L634.88799 49.95901108l17.29099941 60.01199937-17.78499985 40.00399947"/><path fill="#DFBCA4" d="M571.68299484 22.71100998L560.9699936 63.66101074l-3.01199722 31.31299973-3.62000275 31.27700042 64.5700016 9.55599976L642.9299965 27.30400848l-71.24700165-4.5929985z"/><path fill="#8A6651" d="M589.0759945 131.37300873l29.83199882 4.43400001-4.1939993 37.14299965-19.33999967-5.94999885M641.78399563 95.80700493l10.39600026 14.16400051 6.44000018-10.71799994-16.83600044-3.44600057z"/><path fill="#464646" d="M664.35699272 113.7950077l16.14999962-60.45399856-5.56499958 3.20399857-17.08899975 45.38800048 6.50399971 11.86199952z"/><path fill="#6E7073" d="M673.62098694 26.93200684l6.88700008 26.40799999-10.58799982 22.71500015-12.06699991 25.87699986-6.6750002-25.9779997 8.20900012-35.63700008 14.23399973-13.38500022z"/><path fill="#4F5252" d="M634.88799858 49.95900631l14.54499912-21.88799954 24.18699932-1.13899993L651.18099785 75.956007l-9.39700031 19.85199929-6.89599896-45.84899998z"/><path fill="#6E7073" d="M640.75499249 17.59900665l32.86500072 9.33400011-38.73200035 23.0260005-7.0360012-29.92700004 12.90300083-2.43300057z"/><path fill="#4F5252" d="M618.65499258.00100708l-31.60099935 14.76000023-.22299958 18.72399998 48.05799866 16.47399997 5.86199951-32.35800028L618.65499258.00100708z"/><path fill="#6E7073" d="M568.8939972 3.7000084l-7.65600014 36.37400054-.26799965 23.5869999 5.09199905-5.43300057 2.95199966-3.14900017L618.65399552.001009l-49.75999833 3.6989994z"/><path fill="#4F5252" d="M533.24599457 86.05300903l24.71199894 8.92300034 3.01300049-31.31600094 7.92199993-59.96000004-25.52900029 53.07100058-10.33100032 4.97800016.21300125 24.3039999z"/><path fill="#6E7073" d="M524.22999382 82.7970047l9.0159998 3.25600052 6.28999996-18.94600094-4.59200001-8.03899967-9.18400002-3.06099987-8.8039999-7.27000141 7.27400017 34.06000137z"/><path fill="#464646" d="M543.3639946 56.77100706l-17.6040001-.76400041 13.77600003 11.10000038 3.82800007-10.33599997z"/><path fill="#C3977A" d="M570.814991 66.2710104l6.17000007 7.54499954 8.16900063 17.99299961 5.37099981-2.01399994-.1329999 3.74300003 3.73299993-.57099914 16.51599967-13.78200054 10.71100044-9.61100006-8.49799919-5.5199995-15.15600097 5.55999946-3.22799993 5.4140001-2.86099994 1.83199995-2.91499996-3.10399997-.20499992-6.18299997-10.15199948-6.171-7.52200126 4.86900043z"/><path fill="#E8C9B6" d="M588.88499188 65.54901123l-3.7309997 26.25999928 8.97099971 1.15799999 3.16699982-26.3359995-8.40699983-1.08199977z"/><path fill="#8A6651" d="M589.23599175 98.10000944l-4.08200005-6.28999996 8.97200012 1.15600002-4.89000007 5.13399994z"/><path fill="#464646" d="M597.3509903 67.31300461l-.05999947 4.31799996 14.00799966-5.03199994 10.99999976 6.9239999-.17700005-4.76499986-8.9989996-6.40899992-15.7720003 4.96399986zM589.36499214 66.78100586l-.48099994 4.76800013-10.39599973-7.76400018-9.14499969 4.30700016 1.20699978-3.95700014 7.54299986-4.6220001 11.27199972 7.26800013z"/><path fill="#DFBCA4" d="M651.18200111 75.95600796l-9.39799976 19.85099983 16.06999993 6.125 9.55199981-20.4829998-16.22399998-5.49300003z"/><path fill="#8A6651" d="M648.91300058 92.00000381l3.66300011-10.59799957 8.23099995 2.97599983-11.89400006 7.62199974zM600.9743192 116.05688701l-13.10900993-7.64110237-13.4813786 1.14689292 9.56947438-7.09566336 7.5259063.72616546 9.49500785 12.86370735z"/><path fill="#C3977A" d="M600.26992695 115.64705348l-8.43527277 1.13679903-17.45200785-7.22059004 13.48137858-1.14689286 12.40590204 7.23068387z"/></g><g display="block"><path fill="#2B2B2B" d="M577.14195453 71.29000306c2.21800007-.046 4.05000008 1.67700005 4.09700001 3.85300011.04699994 2.17299991-1.7090001 3.9730001-3.927 4.0190001-2.21700005.04600001-4.05200009-1.67900013-4.09900002-3.8520001-.04699993-2.17699994 1.7119999-3.9740001 3.92900001-4.0200001zM609.63695434 74.54300332c2.21500012-.046 4.05200001 1.67900014 4.09899994 3.85500003.04699994 2.17300009-1.71399998 3.97300004-3.92899993 4.01900004-2.2179999.046-4.05200001-1.67900014-4.09899994-3.85200003-.04699993-2.17600008 1.71099996-3.97600004 3.92899993-4.02200004z"/></g><g display="block"><path fill="#785D87" d="M468.2825334 92.09277933l5.28716477 2.89626174 17.08576879 57.4872579-2.82702595 5.37740452-26.3338907 7.82631351-19.54719-65.7603266 26.33517309-7.82691107z"/><path fill="#CDCDCC" d="M472.34933387 149.06826713l-3.56453627 1.0580146-9.17499385-5.4409715-.9296667-3.12904606 3.9634799-7.50884295-.75686842-2.08962771 3.43710009-2.5450481-4.23491487-.82541064-.35326784-1.18946138 1.839043-2.78395802-3.10328047-1.46916261 3.70626194-2.9087679-4.81502501-1.0501319-.5028768-1.68914677 3.57308871-2.07802-4.20422323-.04977728 2.18068275-4.80015373 3.84905793 2.87229593 5.54069715 18.6403425 7.87131715 4.26519128.96630063 3.25315444-5.2873758 9.4685278zm-2.91756352-3.0323571l4.35218702-6.9846168-7.23171152-3.49811772-3.41747196 7.06634451 6.29699646 3.41639z"/><path fill="#785D87" d="M436.00509072 101.68680541l19.54625058 65.7599854-1.939585.57639787-5.19322834-2.58513391-17.30890104-58.23738099 3.01904505-4.9559134 1.87641875-.55795497z"/><path fill="#CDCDCC" d="M455.60896283 98.35488964l8.03625951 3.3300041-12.80081638 3.80418402 4.76455687-7.13418812zM441.94795363 99.92097328l-5.94286291 1.76583213 19.5459076 65.76092417 5.94286292-1.76583213-19.5459076-65.76092417z"/></g><g display="block"><path fill="#8A6651" d="M513.87087911 163.45874454l-6.76477528-17.30970872-19.57625934 2.85423777 11.4125564 24.92675737 14.92847822-10.47128642z"/><path fill="#DFBCA4" d="M489.34192664 148.97161062l-6.65061666-22.90869417 21.65829742 12.00605475 2.75553033 8.07980123-8.98195565 3.59382228-8.78125544-.7709841z"/><path fill="#C3977A" d="M476.40223585 152.5140164l15.4356192 5.48238862 6.28585168-8.25573914-3.09289653-6.9787649-18.28321444.58538863-.34535991 9.16672678z"/></g><path fill="#9FCF7D" d="M579.12235312 160.68407161l-15.76281985-.3708606-52.34764349 41.97066559 1.8941777 18.41508623 67.28388975-19.98685535-1.0676041-40.02803587z" display="block"/><g display="block"><path fill="#BEDB8E" d="M567.92597961 159.78201294l12.78199768-7.1210022 26.49300194 11.93299866 41.99200058-11.06399918 18.48399925 7.04800034-5.27500152 21.78900146-8.29199982 29.57199955-1.82499695 41.47600079-82.62900161-.28300095-1.43099976-42.55100011-.29899979-50.79899836z"/><path fill="#9FCF7D" d="M654.16098022 214.7570095l-85.93500137-4.17499923-.25699997 43.77399826 87.8199997 2.50800133-1.62799836-42.10700035z"/><path fill="#738D56" d="M603.26697922 190.62001228l-17.10299969-9.3789997-7.0170002 10.77199983 23.4260006 25.83999967.69399929-27.2329998z"/><path fill="#6F9D52" d="M602.32297897 217.35301208l36.63600159-23.60200023-12.46500063-16.74400044-23.47700071 13.61400032-.69400025 26.73200035z"/><path fill="#35785D" d="M563.0789795 160.70201206l28.7149992-15.4619999 15.40599917 19.35499955-44.12099838-3.89299965zM607.20197868 164.5940113l31.72400082-24.33799934 28.75200092 20.3210001-60.47600174 4.01699925z"/></g><path fill="#BEDB8E" d="M511.2105763 222.00986884l-13.75699182-50.72890093 16.3597627-10.29084537 15.16634103 27.93950208 13.09763175 23.4376412-30.86674366 9.64260302z" display="block"/><path fill="#99C26C" d="M666.74904327 159.8569236l42.2193766 29.78854932-48.17943677 48.02458262-21.488159-15.7017114 27.44821917-62.11142055z" display="block"/><g display="block"><path fill="#C3977A" d="M605.8145964 193.51408806l-25.98627397-7.24145413-2.42072849 15.07099944 6.00874927 11.86585354 21.04019719-1.3862508 1.358056-18.30914805z"/><path fill="#C3977A" d="M579.82832279 186.27263361l-14.76238689 12.70687596.92506059 11.71735297 9.73256701-7.39440207 4.10475929-17.02982686z"/><path fill="#DFBCA4" d="M579.82832279 186.27263361l-13.83798614 24.42347794 9.84130493 8.3920225 7.58395023-5.87798759-3.58726902-26.93751285z"/></g><path fill="#9FCF7D" d="M658.02579434 242.51972073l-54.10211709-31.39045837-3.74079556-10.7251393 4.52449584-7.61970107 79.68948995 20.93164088-26.37107314 28.80365786z" display="block"/><g clip-path="url(#b)" transform="translate(352.440979 153.5)" display="block"><path fill="#A687B9" d="M.25 4.20400047L16.32699966.25l32.5550003 18.5170002-13.60200023 8.46899986L.25 4.20400047z"/><path fill="#785D87" d="M.25 15.25899935l35.49400043 17.50499964 5.99000073-5.99199963-6.92000103-4.60500002L.25 4.20399952v11.05499983z"/><path fill="#90759F" d="M48.42399979 25.67700075l.45699978-6.90900015-14.06599999 3.39800024.92799997 10.59800005 12.68100024-7.08700014z"/><path fill="#464646" d="M9.90200043 1.8210001l-2.94199944.7329998 31.73299885 18.60499954 3.04099941-.78899955L9.90200043 1.82100009z"/><path fill="#2B2B2B" d="M38.69399858 21.15800095l.98699998 8.44799995 3.01900006-2.02699995-.96700001-7.20900011-3.03900003.7880001z"/></g></g></svg>