<svg xmlns="http://www.w3.org/2000/svg" viewBox="0 0 800 400" width="800" height="400" style="width:100%;height:100%"><defs><clipPath id="a"><path d="M0 0h800v400H0z"/></clipPath></defs><g clip-path="url(#a)"><g display="block"><path fill="#2B2B2B" d="M618.77700806 296.92901611l-215.52999878 103.0699997-289.51998902-6.17299652L44.21401978 358.870018l-6.97900391-47.69000197 159.60598755-11.2750001 138.1700058 7.65900016 82.9109993-42.41900038 268.85499954-53.7859993 17.39599609 89.75299978-85.3959961-4.18300009z" opacity=".1"/><path fill="#CECECD" d="M731.65502167 246.5260086l6.6609993-176.77000427-102.93599701 19.34100342 2.11899948 190.12599945 94.15599823-32.6969986z"/><path fill="#C4C4C4" d="M738.31502533 69.75701141L651.42502785 26.730011l-89.00799752 13.32099914 72.96199704 49.04700089 102.93599796-19.3409996z"/><path fill="#9DA0A1" d="M635.3800087 89.0960083l2.11899948 190.1269989-68.42099953-56.91699981-6.6610012-182.2559967L635.3800087 89.0960083z"/><path fill="#DDDDDC" d="M723.36100769 192.95801163l-1.24900055 48.86999893-70.61700058 22.76100159-.79400253-52.68000222 72.66000366-18.9509983z"/><path fill="#EBEBEB" d="M708.75298882 202.44801712v12.94799995l-34.55199814 8.87199975v-13.07999993l34.55199814-8.73999977z"/><path fill="#737373" d="M705.61203468 213.06700516l-1.62700004-1.245v-4.61500014l1.57600004-.37599992.051 6.23600006zM705.6110239 213.06700563l-1.6270008-1.24499988-26.34799958 5.49899995v2.97500003l27.97500038-7.2290001z"/><path fill="#6E7073" d="M703.98503494 207.20700502v4.6149999l-26.34799957 6.73099982v-4.90699988l26.34799957-6.43899984z"/><path fill="#EBEBEB" d="M724.30003357 139.31301117l-1.24900055 45.93599987-70.61600113 19.7300005-.79500198-49.56900025 72.66000366-16.09700012z"/><path fill="#CECECD" d="M709.69299126 147.89100456v12.1789999l-34.55199814 7.52299977v-12.30299974l34.55199814-7.39899993z"/><path fill="#737373" d="M706.55203712 157.80401754l-1.62700003-1.2090001v-4.34200001l1.57600003-.31599999.051 5.8670001zM706.5520258 157.80501366l-1.62699986-1.20900011-26.34899998 4.54400003v2.79799997l27.97599983-6.1329999z"/><path fill="#6E7073" d="M704.92399979 152.2540083v4.34099978l-26.34799958 5.70499974v-4.61499977l26.34799958-5.43099976z"/><path fill="#EBEBEB" d="M726.41302872 82.6470108l-1.63299942 48.07699871-74.12799836 17.09299946-.47900009-52.09999847 76.23999787-13.0699997z"/><path fill="#CECECD" d="M711.07103348 90.14001083l-.08600044 12.78200055-36.31400109 8.00800037.0869999-12.9110005 36.31300163-7.87900042z"/><path fill="#737373" d="M707.71298975 100.69601464l-1.72100002-.97399997.05800003-5.18700004 1.653-.1730001.00999999 6.33400011zM707.71203804 100.69601369l-1.72100067-.97399998-27.68099976 4.79200006-.02000045 2.9360001 29.42200088-6.75400018z"/><path fill="#6E7073" d="M706.0510254 94.53401136l-.06000043 5.18800006-27.68999958 6.00800004.0340004-4.84300005 27.7159996-6.35300005zM650.74400711 235.76501846l-.04300308-23.85600042 72.66000366-18.95200014-.91300201 25.54400003-61.96899987 23.0590006-9.7349987-5.79500007z"/><path fill="#E4C728" d="M720.4280281 205.20301628l-.8750019-2.36100006-2.90299988-1.37400055-32.71600008 7.56500053-2.74799967-1.21799945-23.05099964 6.28199958-2.6590023 3.6130004 1.84600258 26.68600034 2.66699981 1.52000046 60.43900109-40.71300125z"/><path fill="#CCAC13" d="M659.95998764 244.34801292l-1.89500046-1.18099975-1.66799926-24.76100063 1.48999977-3.11800004 23.6199994-6.44900035 2.21400023.98900032 32.41200066-7.6380005 1.76399994.52200127 2.52999877 2.48999978-60.46699905 39.1459999z"/><path fill="#F4D65D" d="M722.1350174 203.34900475l-35.35800076 8.00999927-1.53700018-1.23999882-22.32200003 4.68199921-3.10199928 4.25599956.14499855 25.29100132 10.88400078 6.78699875 52.47400093-36.79399967-.16700172-9.18800068-1.0169983-1.80399894z"/><path fill="#EBEBEB" d="M685.49802017 216.01000345l-.75799942-4.21900022-20.8060007 4.81500019-.5899992 5.03500019 22.15399932-5.63100016z"/><path fill="#E4C728" d="M729.58702469 209.37301445l-.8750019-2.36100006-2.90299989-1.37400055-32.71600008 7.56500053-2.74799966-1.21799945-23.05099965 6.28199958-2.6590023 3.6130004 1.84600258 26.6869998 2.66699982 1.519001 60.43900108-40.71300125z"/><path fill="#CCAC13" d="M669.12002182 248.51901817l-1.89500046-1.18099975-1.66799927-24.7600007 1.48999978-3.11800004 23.6199994-6.45000028 2.2130003.99000072 32.41300059-7.6390009 1.76399993.52200127 2.52999878 2.49099923-60.46699905 39.14500045z"/><path fill="#F4D65D" d="M731.29499054 207.51901817l-35.35900068 8.00999928-1.53700018-1.23999882-22.32199955 4.68299961-3.1020012 4.25499916.14500047 25.29200077 10.88400077 6.7859993 52.47399903-36.79399967-.16699982-9.18800068-1.01599884-1.80399895z"/><path fill="#EBEBEB" d="M694.65701675 220.18001688l-.75699997-4.21900023-20.80599975 4.8150002-.5909996 5.03500019 22.15399932-5.63100016z"/><path fill="#E4C728" d="M738.06798172 213.6550045l-.8750019-2.3600006-2.90299989-1.3729992-32.71600008 7.56499958-2.74799966-1.21800041-23.05099964 6.28100014-2.6590023 3.61400032 1.84600257 26.68500042 2.66699982 1.52000045 60.43900108-40.7140007z"/><path fill="#CCAC13" d="M677.60000229 252.80200768l-1.89500046-1.18200112-1.66799927-24.75999927 1.48999977-3.11800003 23.61999941-6.44999981 2.2130003.98999977 32.41300058-7.6380005 1.76299859.52200128 2.53100013 2.48999977-60.46699905 39.1459999z"/><path fill="#F4D65D" d="M739.77503204 211.8020153l-35.35800075 8.01099873-1.53700018-1.24100018-22.32200003 4.68300057-3.10199928 4.25599956.14499855 25.29100132 10.88300133 6.78699875 52.47399902-36.79299926-.16600037-9.18900109-1.01699829-1.8049984z"/><path fill="#EBEBEB" d="M703.13803482 224.46500528l-.75799942-4.21900022-20.8050003 4.81400019-.5909996 5.03600019 22.15399932-5.63100016z"/><path fill="#E4C728" d="M747.85002518 218.78700829l-.87500191-2.36000061-2.90200043-1.3729992-32.71699953 7.56499958-2.74699974-1.21899986-23.05100012 6.28199959-2.66000175 3.61400032 1.84700203 26.68500042 2.66699981 1.52000046 60.43800164-40.7140007z"/><path fill="#CCAC13" d="M687.3830223 257.93401146l-1.894001-1.18099976-1.66899872-24.7600007 1.48999977-3.11800003 23.61999941-6.45000029 2.21400023.99000073 32.41200065-7.6390009 1.76399994.52200127 2.52999878 2.49099922-60.46699905 39.14500046z"/><path fill="#F4D65D" d="M749.55801392 216.93401146l-35.35800028 8.00999927-1.53700018-1.23999881-22.3220005 4.6829996-3.10299874 4.25599957.1439991 25.29100037 10.88500023 6.7859993 52.47400093-36.79399967-.16600037-9.18699933-1.0170002-1.8050003z"/><path fill="#EBEBEB" d="M712.9209938 229.59601724l-.75799942-4.21900022-20.8060007 4.8150002-.5899992 5.03600011 22.15399932-5.63200009z"/><path fill="#E4C728" d="M757.81798172 225.80900383l-.8750019-2.36100006-2.90200043-1.37400055-32.71699954 7.56500053-2.74699974-1.21799945-23.05100011 6.28199958-2.66000176 3.6130004 1.84700203 26.68600034 2.66600037 1.52000046 60.43900108-40.71300125z"/><path fill="#CCAC13" d="M697.35097885 264.95500755l-1.894001-1.18099975-1.66899872-24.76100064 1.48999977-3.11800003 23.6199994-6.44900036 2.21400023.98900033 32.41200066-7.6380005 1.76399994.52200127 2.52999878 2.48999977-60.46699906 39.14599991z"/><path fill="#F4D65D" d="M759.5260315 223.95601463l-35.35800028 8.00899983-1.53700018-1.23899937-22.3220005 4.6819992-3.10299874 4.25599957.1439991 25.29100132 10.88500023 6.78699875 52.47400093-36.79399967-.16600037-9.18800068-1.0170002-1.80399895z"/><path fill="#EBEBEB" d="M722.88901138 236.61701334l-.75799942-4.21900023-20.8060007 4.8150002-.5899992 5.03500019 22.15399932-5.63100016z"/><path fill="#DDDDDC" d="M774.73002625 228.19200897l-.36399842 48.88399887-70.1930008 24.03699875-1.74900054-52.65599823 72.30599976-20.26499939z"/><path fill="#EBEBEB" d="M760.2959938 237.9440155l.23400116 12.94700015-34.38400077 9.4959997-.23800087-13.07799972 34.38800048-9.36500013z"/><path fill="#737373" d="M757.34801805 248.61901426l-1.64999998-1.21500015-.08399999-4.61399984 1.57-.40500021.16399997 6.2340002z"/><path fill="#737373" d="M757.34800053 248.618006l-1.64899922-1.21499992-26.24499988 5.97599995.0539999 2.97399986 27.8399992-7.7349999z"/><path fill="#6E7073" d="M755.61499214 242.79001236l.08199978 4.61399984-26.22200012 7.20599985-.08899975-4.90499985 26.2290001-6.91499984z"/><path fill="#A2A2A2" d="M774.72999573 228.19101334l-7.79399872-2.2510004-69.67099762 17.39200019 5.53499985 5.49900055 71.92999649-20.64000034z"/><path fill="#8F8F8F" d="M702.79998243 248.08000755l1.37399995 53.0320015-5.68400001-4.47300148-.8499999-53.18400002 5.15999996 4.625z"/><path fill="#8F8F8F" d="M698.50901031 264.19601631l.06900025 3.7840004-47.76600075-28.4470005-.06799888-3.76799965 47.76499938 28.43099975z"/><path fill="#A2A2A2" d="M698.57798386 267.98001707l.4509983 24.8970009-47.77899933-29.18700099-.43899917-24.15700078 47.7670002 28.44700087z"/><path fill="#CECECD" d="M582.92899704 292.69500732l7.45000076-201.07300567-115.13800049 21.9980011 2.37099839 216.26800537 105.31700134-37.1930008z"/><path fill="#C4C4C4" d="M590.38000488 91.62100887l-97.18999815-48.94200039-82.84399843 15.15299988 64.895998 55.78900147 115.13799858-22.00000096z"/><path fill="#9DA0A1" d="M475.2420044 113.620018l2.36999893 216.26799775-59.81499863-64.74299622-7.45199966-207.31401062 64.89699935 55.7890091z"/><path fill="#EBEBEB" d="M573.65201569 231.7610054l-1.39800263 55.58900166-78.98799896 25.8910017-.88800049-59.92200089 81.27400208-21.55800247z"/><path fill="#EBEBEB" d="M557.31301308 242.55501175v14.72899985l-38.64799881 10.09099984v-14.87799978l38.6479988-9.94199991z"/><path fill="#737373" d="M553.79903811 254.63501263l-1.82000005-1.41499997v-5.25l1.764-.43000006.05600005 7.09500003z"/><path fill="#737373" d="M553.79901505 254.63500953l-1.8199997-1.41599965-29.47200012 6.2539997v3.38399983l31.29199982-8.22199988z"/><path fill="#6E7073" d="M551.97901154 247.97001219v5.25000012l-29.47200013 7.65500009v-5.5810001l29.47200013-7.32400011z"/><path fill="#EBEBEB" d="M558.36400795 180.49800968v13.85400033l-38.64799881 8.55800033V188.9160099l38.64799881-8.41800022z"/><path fill="#737373" d="M554.85000247 191.77500343l-1.82000005-1.37599992v-4.93799997l1.764-.3599999.05600005 6.6739998z"/><path fill="#737373" d="M554.85000992 191.77500391l-1.8199997-1.375-29.47200012 5.16900009v3.18300015l31.29199982-6.97700024z"/><path fill="#6E7073" d="M553.0300064 185.46101141v4.93799984l-29.47200011 6.4879998v-5.24999982l29.47200012-6.17599982z"/><path fill="#EBEBEB" d="M577.0660019 106.28401566l-1.82600022 54.68699836-82.91600037 19.44299889-.5359993-59.26199913 85.27799988-14.86799812z"/><path fill="#CECECD" d="M559.90600395 114.80801105l-.09799957 14.53900028-40.61800003 9.10900044.09899902-14.68600034 40.61700058-8.96200038z"/><path fill="#737373" d="M556.14803517 126.81401324l-1.92400003-1.10700011.065-5.90099978 1.848-.1960001.01100003 7.204zM556.1480236 126.81401253l-1.92399978-1.10699988-30.9640007 5.44999993-.02199936 3.34000004 32.90999985-7.6830001z"/><path fill="#6E7073" d="M554.28901958 119.80601168l-.06499958 5.9010001-30.97300052 6.8330001.0369997-5.50900012 31.0010004-7.22500008z"/><path fill="#6E7073" d="M583.15501785 278.76001334l-.22599792 13.9349997-42.10400152 14.86899949-46.3790002-62.9829998 88.70899964 34.17900061z" opacity=".1"/><path fill="#6E7073" d="M494.44501114 212.81301308l-1.01600266-23.76300097 81.27400208-18.30999899-.769001 23.9929992-68.71899987 24.87099922-10.76999855-6.79099846z"/><path fill="#E4C728" d="M572.99501038 179.48901176l-.93099976-2.70400047-3.21699905-1.62100029-36.74300051 7.92900086-3.04699993-1.44000054-25.9059987 6.66699982-3.04800035 4.05499983 1.52399827 30.38999986 2.9510002 1.78100014 68.41699983-45.0569992z"/><path fill="#CCAC13" d="M504.57901382 222.76401901l-2.09500122-1.38300133-1.3639984-28.19499921 1.72900008-3.51399947 26.54699946-6.84899997 2.4550004 1.17199993 36.40400028-8.02100086 1.96100044.63100052 2.77999878 2.88400077-68.41699982 43.27499962z"/><path fill="#F4D65D" d="M574.9430046 177.41701126l-39.70699977 8.38100052-1.69099999-1.44199944-25.06000041 4.86599923-3.55599976 4.77600002-.34999847 28.76699924 12.03399848 7.94200135 59.4299984-40.7640009v-10.45300006l-1.09999847-2.07299996z"/><path fill="#EBEBEB" d="M533.71300507 191.062006l-.76200009-4.81400013-23.36599922 5.0470001-.76200008 5.71400005 24.88999939-5.94700002z"/><path fill="#E4C728" d="M583.15501404 184.42001724l-.93099976-2.70199966-3.21699905-1.62199974-36.7430005 7.92900085-3.04699994-1.44099998-25.9059987 6.66799926-3.04800034 4.05599976 1.52399826 30.38800049 2.95100021 1.78199959 68.41699982-45.05800057z"/><path fill="#CCAC13" d="M514.7380104 227.69601059l-2.09500121-1.38300133-1.36399842-28.19499922 1.7290001-3.51399946 26.54699945-6.84899998 2.4550004 1.17099953 36.40400028-8.02000046 1.96100044.63100052 2.77999878 2.88400078-68.41699981 43.27499962z"/><path fill="#F4D65D" d="M585.1020317 182.34701157l-39.70699977 8.38199997-1.69099999-1.44199944-25.06000042 4.86599922-3.5569992 4.77600002-.34899903 28.7659998 12.0339985 7.9430008 59.4299984-40.76500035v-10.45200062l-1.09999848-2.0739994z"/><path fill="#EBEBEB" d="M543.87200165 195.99301285l-.76200009-4.81300015-23.36599922 5.04600013-.76200008 5.7140001 24.88999939-5.94700008z"/><path fill="#E4C728" d="M592.55201721 189.46701431l-.93099975-2.70199966-3.21699906-1.62199974-36.7430005 7.9300003-3.04699994-1.44199943-25.90699815 6.66799927-3.04700089 4.05499982 1.52299881 30.38900042 2.95199967 1.78199959 68.41699981-45.05800057z"/><path fill="#CCAC13" d="M524.13501358 232.74201584l-2.09500122-1.38199997-1.36399841-28.19500065 1.72999954-3.51499939 26.546-6.84800053 2.4550004 1.17100049 36.40400029-8.02100087 1.96100044.63199997 2.77999878 2.88300133-68.41699982 43.27499962z"/><path fill="#F4D65D" d="M594.49998093 187.39400864l-39.70699978 8.37999916-1.69300032-1.44199944-25.05800009 4.86800003-3.5569992 4.77600003-.34899903 28.76500034 12.0339985 7.94400024 59.4299984-40.76500034v-10.45399952l-1.09999848-2.0720005z"/><path fill="#EBEBEB" d="M553.2700119 201.04001808l-.76200008-4.81400013-23.36599922 5.04600012-.76200009 5.71500004 24.8899994-5.94700003z"/><path fill="#E4C728" d="M603.38801575 195.50501823l-.93099976-2.70400047-3.21699905-1.62100029-36.74300051 7.92900086-3.04699993-1.44000054-25.9059987 6.66799927-3.04800034 4.05400038 1.52399826 30.38999986 2.95100021 1.78100014 68.41699982-45.0569992z"/><path fill="#CCAC13" d="M534.97101212 238.78001022l-2.09500123-1.38300132-1.3639984-28.1939993 1.72999953-3.51499938 26.546-6.84899998 2.4550004 1.17099953 36.4040003-8.02000046 1.96100043.63100052 2.77999878 2.88400077-68.41699981 43.27499962z"/><path fill="#F4D65D" d="M605.33597946 193.43201065l-39.70699978 8.38100052-1.69300031-1.44199944-25.0580001 4.86599923-3.5569992 4.77600002-.34899902 28.76699924 12.03399849 7.94200135 59.4299984-40.7640009V195.5050106l-1.09999848-2.07299995z"/><path fill="#EBEBEB" d="M564.10601044 207.07601243l-.76200009-4.8120001-23.36599922 5.04500011-.76200008 5.71600005 24.88999939-5.94900006z"/><path fill="#E4C728" d="M614.3939972 203.69400406l-.93099976-2.70199967-3.21699906-1.62199974-36.7430005 7.92900086-3.04699994-1.44099999-25.90699815 6.66799927-3.04700089 4.05599976 1.52399826 30.38800049 2.95100022 1.78199958 68.41699981-45.05800056z"/><path fill="#CCAC13" d="M545.97699356 246.97001266l-2.09500122-1.38300132-1.36399841-28.19499922 1.72999954-3.51399946 26.546-6.84899998 2.4550004 1.17099953 36.40400029-8.02000046 1.96100044.63100052 2.77999878 2.88400078-68.41699982 43.27499961z"/><path fill="#F4D65D" d="M616.34202194 201.62300491l-39.70699978 8.38100052-1.69300031-1.4430008-25.0580001 4.86700059-3.5569992 4.77600002-.34899902 28.76699925 12.03399849 7.94200134 59.4299984-40.76500034v-10.45300007l-1.09999848-2.0720005z"/><path fill="#EBEBEB" d="M575.11199188 215.2670067l-.76200008-4.8120001-23.36599922 5.0450001-.76200009 5.71600006 24.8899994-5.94900006z"/><path fill="#DDDDDC" d="M633.25998688 206.75401306l-1.39699936 55.5889988-78.98800278 25.8900013-.88899994-59.9220009 81.27400208-21.5569992z"/><path fill="#EBEBEB" d="M616.92098427 217.54800797v14.72899985l-38.64699936 10.09099984v-14.87799978l38.64699936-9.94199991z"/><path fill="#737373" d="M613.40603274 229.62801719l-1.82000005-1.41600013v-5.25l1.764-.4289999.05600005 7.09500003zM613.40600967 229.62800574l-1.8199997-1.41599965-29.47200011 6.25399971v3.38399983l31.29199981-8.22199989z"/><path fill="#6E7073" d="M611.58601284 222.96101665v5.25000012l-29.47099972 7.6550001v-5.58100015l29.47099972-7.32400007z"/><path fill="#A2A2A2" d="M633.25998688 206.75300503l-8.67100144-2.72099972-77.30099868 18.9289999 4.69800186 5.34899998 81.27399826-21.55700016z"/><path fill="#8F8F8F" d="M551.98599362 228.31101608l1.26399994 60.04599762-6.58799982-4.55599785.625-60.8389988 4.69899988 5.34899903z"/><path fill="#8F8F8F" d="M547.2879982 246.13101482v4.30500126l-52.84400177-33.33700084v-4.28600026l52.84400177 33.31799984z"/><path fill="#A2A2A2" d="M547.2879982 250.43600798v28.32399988l-52.84400177-34.17799998v-27.48299932l52.84400177 33.33699942z"/><path fill="#EBEBEB" d="M599.51501274 194.57501554l-30.36199951 1.30699993-5.2159996 4.48900008 1.69400024 1.44199991 33.88399887-7.23799992z"/><path fill="#E1A942" d="M518.64402008 194.1530137l.3390007-1.4909997 57.73999977-13.45000028 1.22500039 4.64600015-32.55200053 6.87100005-1.69199991-1.44199991-25.06000042 4.8659997z"/><path fill="#858585" d="M553.10101128 194.333004l34.81599998-7.6500001 2.3560009 1.60299993-35.47900009 7.48900008-1.6930008-1.44199991z"/><path fill="#856300" d="M700.30801964 235.40801144l22.26600075-4.93700022 30.58399963-6.7799998 1.87600136 1.28099967-30.86700082 6.99300003-2.47899985-.55199993-21.38000107 3.99500025z"/><path fill="#EBEBEB" d="M704.41600323 219.81200838l8.50400018-4.4600001 3.27199996 1.36400003 9.14999998-4.08600009 4.24399995 1.21200013 2.1800003-.22500014-27.35000037 6.19500017z"/><path fill="#2B2B2B" d="M666.02700424 322.52102089l-18.81299937 8.27600098-15.62699925-15.91499901-37.6570015 6.3049984-10.60100174 2.19000053-1.74699402 1.19799995 1.38799286 1.59600068-1.04699707.5209999-.5589981 2.56299973 30.22200011 43.65899849 9.67699814-1.58199883 22.32700062-7.0039997 2.76900005 1.8920002 13.5909996 15.54099845 9.95700074-1.9849987 45.48799896-31.34800048-49.36800003-25.9070006z" opacity=".1"/><path fill="#E4C728" d="M585.01597977 321.77601624l-2.44900132 1.2180004-.5589981 2.56299973 20.4090004 23.1450007-.41800118 2.3770001 15.02300072 15.55399942 4.88599968 1.00100135 50.2670002-15.769001-21.6060009 5.23900032-65.5529995-35.32800102z"/><path fill="#CCAC13" d="M648.94200897 357.51502419l23.23199845-5.6489997-49.8149991 14.90800047-3.93499995-.27400016-15.37699986-15.92300034.34700013-1.91499996-20.35100174-22.8739996-.02599716-1.4829998 1.99899673-2.52900124 63.9260025 35.73900033z"/><path fill="#F4D65D" d="M582.22698975 320.87801743l21.82899856 25.10199928-.86499977 1.46600056 12.97599983 15.467 5.74800062 1.17399979 50.2599988-12.22200012-39.94399881-40.6800003-37.65699911 6.30400085-10.60100174 2.19099998-1.74599838 1.19799996z"/><path fill="#EBEBEB" d="M609.73799181 345.78700638l-4.48000002 1.61600017 12.55699992 14.28600026 5.7349999-.87300015-13.8119998-15.02900028z"/><path fill="#CECECD" d="M585.39099884 324.6340084l11.59300017 20.34800053 6.20599962 2.46399975.86700058-1.467-18.66600037-21.34500027z"/><path fill="#2B2B2B" d="M666.6709907 318.82401276l-37.68700098 15.2529993-9.73600007 4.72999954-1.39899826 1.59100056 1.73799897 1.204-.88599778.763.08799744 2.62299992 25.47599983 17.41300034.1780014 2.40600014 11.18699933 6.92399978 2.40400028 2.02599907.5749998-.1819992 4.22300006 2.61299896 4.98099995-.230999 44.84299993-27.6500002-45.9849999-29.48299921z" opacity=".1"/><path fill="#E4C728" d="M623.51299286 340.70401955l-2.07400131 1.7840004.08800125 2.62199878 25.47599983 17.41200018.1779995 2.40700006 18.3900001 11.38099957 4.98099995-.230999 44.8420012-27.65000057-19.65300179 10.39200008-72.22799873-18.1169995z"/><path fill="#CCAC13" d="M694.26702118 359.6190195l21.12799835-11.18999957-44.61699903 26.70400047-3.88.70399857-18.82300066-11.6529994-.13500023-1.94099999-25.35199929-17.16299963-.39099884-1.43300056 1.31499863-2.94299984 70.75500107 18.91499996z"/><path fill="#F4D65D" d="M620.5870285 340.51901865l27.33399964 18.96099997-.4790001 1.63500022 16.3829999 11.7989998 5.8599999-.27600099 45.70899987-24.20999908-48.72399986-29.6040001-34.94800103 15.37400056-9.7369995 4.73099947-1.39799882 1.59000015z"/><path fill="#EBEBEB" d="M653.381989 357.89701605l-3.94500017 2.66799974 15.68599987 10.7579999 5.34300041-2.25600004-17.0840001-11.1699996z"/><path fill="#9FCF7D" d="M624.58000374 343.38401222l36.19299888 30.49399948 3.0529995-.96399974-16.38299918-11.79999996.4790001-1.63400006-23.3419993-16.09599972z"/></g><g display="block"><path fill="#4F5252" d="M372.92293783 48.31946639l12.16934357 99.55244628-106.59754018 48.91048096-18.8270997-122.23426021 113.25529631-26.22866703z"/><path fill="#2B2B2B" d="M364.29468485 52.56592738l12.50607454 81.66806586-53.59949323-59.06569083 41.09341869-22.60237503z"/></g><path fill="#1C7678" d="M285.54734247 154.53959538l-11.76180557 38.79692314 20.15383479 24.91804717 11.5263433-33.27627413-19.91837252-30.43869618z" display="block"/><path fill="#368D8F" d="M388.76285805 150.82548612l34.32799163 49.1532889-26.74773612 16.45374469-7.5802555-65.6070336z" display="block"/><g display="block"><path fill="#368D8F" d="M341.75275312 255.55315005l-54.2392244-99.55403715 46.19415565-64.2518073 36.51733728 40.31303648 29.24800314 39.49406263-6.78316085 82.89628482-50.93711082 1.10246052z"/><path fill="#50A1A2" d="M299.5990908 252.89764224l-10.7745623-92.87055826 27.4381654 19.42827097 23.49000506 58.2708633 3.0003741 20.8268723-43.15398225-5.6554483z"/><path fill="#6E7073" d="M380.31658324 172.42027056c.1146479 2.5394134 2.265506 4.50540728 4.8039204 4.39080448 2.53941323-.1146479 4.50536226-2.26650491 4.39071435-4.8059183-.1146479-2.5394134-2.26650514-4.50536217-4.80591837-4.39071427-2.5384144.1146028-4.50336428 2.2664147-4.38871638 4.8058281zM372.69901921 196.48131925c.1146479 2.5394134 7.37530079 4.27471335 9.91371514 4.16011055 2.53941339-.1146479 4.50636085-2.26655 4.39171295-4.80596339-.1146479-2.5394134-2.26750358-4.5053171-4.80691697-4.39066919-2.53841435.1146028-9.61315902 2.49710864-9.49851112 5.03652203zM375.3010427 220.08097198c.1146479 2.53941322 2.26655025 4.50636115 4.80596347 4.39171325 2.53941332-.1146479 4.50331918-2.26741385 4.38867128-4.80682708-.1146028-2.5384144-2.26441688-4.50345448-4.8038302-4.38880658-2.53941323.1146479-4.50540735 2.265506-4.39080455 4.8039204zM372.74823028 242.89132474c.1146028 2.53841424 2.26646005 4.50436326 4.80587328 4.38971536 2.53941331-.1146479 4.50336427-2.26641495 4.38876148-4.80482919-.1146479-2.53941339-2.26450709-4.50545238-4.8039204-4.39080447-2.53941323.1146479-4.50536226 2.2665049-4.39071436 4.8059183zM313.79713621 222.60146093c-.12060921 2.53902346-2.27734793 4.50029106-4.8163713 4.37968232-2.5390234-.12060922-4.49829318-2.27743814-4.37868335-4.81641641.12060922-2.5390234 2.27739303-4.49929209 4.8164164-4.37868335 2.5390234.12060922 4.499247 2.27639413 4.37863825 4.81541744zM312.0395299 198.79250498c-.1206092 2.53902345-2.27734793 4.50029105-4.8163713 4.37968231-2.5390234-.12060922-4.49829318-2.27743813-4.37768396-4.81646153.12060874-2.53902337 2.27639365-4.49924696 4.81541702-4.37863822 2.5390234.12060921 4.49924699 2.27639412 4.37863825 4.81541744zM309.22249245 174.17750622c-.12060921 2.53902345-2.27734793 4.50029105-4.8163713 4.37968231-2.5390234-.12060921-4.49829318-2.27743813-4.37768396-4.81646153.12060874-2.53902337 2.27639364-4.49924696 4.81541702-4.37863822 2.5390234.12060921 4.49924699 2.27639412 4.37863824 4.81541744zM316.15646855 244.39523507c-.12065432 2.53802431-2.27734793 4.50029106-4.8163713 4.37968232-2.5390234-.12060922-4.49824809-2.27643922-4.37868335-4.81641641.12065431-2.53802449 2.27743813-4.49829318 4.8164164-4.37868335 2.5390685.12160813 4.499247 2.27639413 4.37863825 4.81541744z"/><path fill="#71C4C5" d="M376.15760011 174.79826634l30.08120446-29.14336252-71.1863301-63.07758012-66.7338795 80.90712718 47.94309994 15.97094726 16.84822772-83.2105563 29.80853439 73.50539282 13.2391431 5.04803168z"/><path fill="#85D9D4" d="M372.4206502 173.28726922l28.65299887 5.3621648-61.32195053 59.07682749 32.66895165-64.4389923z"/><path fill="#85D9D4" d="M316.26269248 179.45535501l-29.16550435 6.89942724 52.65655244 51.37238945-23.4910481-58.27181669z"/><path fill="#368D8F" d="M354.03168939 244.07767349l.07689798 1.70326508-8.0192269.02069985.24066315-2.23012372 7.70166577.50615879z"/></g><g display="block"><path fill="#BB917A" d="M331.79103134 50.04832695l12.04289212 85.59895439-36.78605487 8.85511588 9.21285273 34.95405604 20.03594942 13.33792293 18.09253687-17.89020467 6.60675718-20.10943822 4.91832159-67.21922702-.11970338-21.00998057-34.00355166-16.51719876z"/><path fill="#846651" d="M304.5420925 142.12499314l53.53709883-8.03477774-23.51307506 30.32833666-30.02402377-22.29355892z"/><path fill="#D7B69E" d="M264.56153629 72.70653084l15.30732163 73.51743066 64.36570843-10.01718073-12.24194771-85.48486104-67.43108235 21.98461111z"/><path fill="#4F5252" d="M339.2379516 61.4080183l5.62059293 6.56017891.60467523 13.3933575 7.65320439-.34552226-.58000474-12.84691417 13.25716793-1.6035493-4.11138798-17.3432189-19.05418076-.32796274-3.390067 12.51363095z"/><path fill="#846651" d="M365.91528336 87.5754608l-12.30946104.55574012 11.25964892 14.21664043 1.04981212-14.77238056zM357.85101033 82.71822697l-.45660712-10.1136977 6.28559726-.28377836-5.82899014 10.39747606z"/></g><g display="block"><path fill="#E4E4E3" d="M334.56709044 164.41750907l27.31312378-21.94319104 2.51299452 25.92904565-8.0960311 13.4187978-21.7300872-17.40465241z"/><path fill="#E4E4E3" d="M334.5670923 164.41750827l-18.30539652 15.03790318-9.59293218-35.78976552 27.8983287 20.75186234z"/><path fill="#D5D5D4" d="M334.56709153 164.41751212l5.18660595 73.30867822-16.00129501-42.9700461 10.81468906-30.33863212z"/><path fill="#C6C6C5" d="M334.56609214 164.41755724l5.18660596 73.30867822 15.59968157-40.93422434-20.78628753-32.37445388z"/><path fill="#BCBCBC" d="M334.5670912 164.41751023l-18.30539628 15.0379034 8.11927447 18.00413003 10.38105716-32.00577017 20.42891756 32.26345803 5.5709081-13.40890134-26.194761-19.89081995z"/><path fill="#2B2B2B" d="M361.87921596 142.47436692l3.22152899 30.24848437-25.34804798 65.0033804 20.270756-52.74491313 1.855763-42.50695164z"/><path fill="#2B2B2B" d="M306.66976212 143.66560276l9.5919337 35.78980964 23.49200244 58.27077409-33.08393614-94.06058373z"/></g><g display="block"><path fill="#BB917A" d="M272.02491189 91.7913405l12.78584761 6.80326283 4.92177087 16.7790962 6.94964053 2.22982865 4.07118672-.97460722 5.71837446-2.98093974 10.3191767-21.2260104 15.5978121-11.13181211-9.68891299-3.23831119-19.8263721 12.52294182-3.01795294 3.48365917-2.54660283 3.12603646-2.4940682-2.4950529-5.06655911-3.20174874-11.94602948-5.18549382-5.77731134 5.489151z"/><path fill="#E0C3AE" d="M294.81476625 94.68843342l-5.33176512 20.4352652 16.98873043-1.47571833-6.61629416-19.59053044-5.04067115.63098357z"/><path fill="#846651" d="M300.47344033 121.44845198l-10.74015228-6.32403894 16.7383985-1.47742952-5.99824622 7.80146846z"/><path fill="#4F5252" d="M272.02586619 91.79029671l4.80448522-7.0818959 13.59982143 2.37204212-.68196618 4.40624154-12.15636638-2.6384151-5.5659741 2.94202734zM300.53807505 85.98544779l2.33536193 4.58934198 20.7446148-10.476273 8.77066913 1.19164265-9.32109122-5.6673724-22.52955464 10.36266077z"/><path fill="#BB917A" d="M293.51364908 127.17341032l13.49960174 5.64147498 14.31198786-10.72573914-15.7380808 4.34487248-12.0735088.73939168z"/><path fill="#846651" d="M305.34392693 124.41560969l2.25235129-1.74376485 13.72896103-.582701-15.4240197 6.05837282-12.38757001-.9741082 8.6122717-3.4993835 3.2180057.74158473z"/></g><g display="block"><path fill="#2B2B2B" d="M284.64001867 93.8794062c3.07551624-.56568598 6.05368908 1.38197615 6.63210093 4.5376.61412695 3.34140214-1.47594376 6.22059714-4.55151877 6.78498454-3.07551624.56568597-6.0523905-1.3820348-6.66651745-4.72343702-.57971043-3.15556513 1.5104189-6.03346155 4.5859353-6.59914753zM315.96927512 89.2337834c2.38467233-.43799782 4.67939462 1.18916276 5.12913478 3.63436702.44874077 2.4452495-1.11749513 4.7812663-3.50216757 5.21926413-2.38267427.43790761-4.67939463-1.18916277-5.12809077-3.63341315-.44978478-2.44620337 1.11844917-4.78231038 3.50112356-5.220218z"/></g><path fill="#2B2B2B" d="M325.35600081 47.24370113l46.47927928 15.27626198-31.65301587 33.528716-80.70516578-9.0693084-7.5882726-19.94505428 73.46717497-19.7906153z" opacity=".1" display="block"/><g display="block"><path fill="#277885" d="M396.42369656 44.88956314l-22.5424502 19.54458647-2.51335264-8.90870975 25.05580284-10.63587672zM349.93221298.33046462l-51.316253 3.43593412L254.04324664 20.077291l54.45395085-3.2252342L349.93221298.3304646z"/><path fill="#3999B3" d="M349.57080161.39583158L308.21125755 15.8619457l1.83717103 26.59120075 54.5748039-18.26398908L349.57080162.39583157z"/><path fill="#30879F" d="M308.21120858 15.86094554l3.35582962 27.03716078-59.1463427 4.74141124 1.60499824-28.06194436 54.18551484-3.71662766z"/><path fill="#464646" d="M252.3836304 46.64117277l-.97284528 17.43061382 67.3857822-3.96423036-7.27686924-18.45758546-59.13606768 4.991202z"/><path fill="#6E7073" d="M311.02733318 41.6752045l53.19194687-18.07442602 8.84159608 12.45190123-54.26331219 24.05483344-7.77023076-18.43230864z"/><path fill="#277885" d="M251.60600307 62.5644493l-17.22166922 22.94507101 95.8405078-4.45708198L319.2054623 57.5905538l-67.59945924 4.9738955z"/><path fill="#30879F" d="M318.07904667 57.25201092l54.9725509-21.4491684 23.19774015 9.60352022L330.22574985 81.338687l-12.14670318-24.08667608z"/></g><g display="block"><path fill="#BB917A" d="M347.68801025 172.27871697l-7.11823529-6.98406483-6.00262461-.8761644-4.0097736-6.35662181 15.14028471-7.87386193 7.5866872 19.04520993-5.59633841 3.04550304z"/><path fill="#D7B69E" d="M353.2843469 169.23321592l-9.80346817-14.22332333-1.23879317-7.17342823 1.59286803-12.18924502 19.80593491 23.78592844-10.3565416 9.80006814z"/><path fill="#BB917A" d="M328.91699204 133.27963173l-4.64390707 12.2128748 8.30321111 4.4069974-3.65930404-16.6198722z"/><path fill="#E0C3AE" d="M343.83495454 135.6472193l-14.91791666-2.36658822 1.64133782 24.7811907 12.92154968-3.05088544.35502916-19.36371704z"/></g><path fill="#50A1A2" d="M419.6542502 202.8100057l-56.01236038-43.37689998-25.32377466 19.88837554 55.71014767 48.78903823 25.62598736-25.3005138z" display="block"/><g display="block"><path fill="#71C4C5" d="M294.37022833 218.34851264l-17.9853415-43.12237685-22.35090633 12.15713412-7.2597758 4.13532869 15.992191 20.3353011 31.60383263 6.49461294z"/><path fill="#2B2B2B" d="M276.38687543 175.22592394l-22.35190105 12.15724057 6.89063986 12.13834475" opacity=".1"/></g><g display="block"><path fill="#846651" d="M273.30738513 160.61744933l-10.8019131 2.00456631-3.87365093 8.97665783 5.74016622 2.56776964-.69091802 5.88469657 13.20233481-2.44412046 12.46765124-20.77130866-16.04367022 3.78173877z"/><path fill="#E4E4E3" d="M265.2862481 107.16632096c-2.56347206 12.08715638 5.15737119 23.9644091 17.24452757 26.52788116 12.08715638 2.56347206 23.9644091-5.15737119 26.52788115-17.24452757 2.56347206-12.08715638-5.15737118-23.9644091-17.24452756-26.52788116-12.08715638-2.56347205-23.9644091 5.15737119-26.52788116 17.24452757z" opacity=".4"/><path fill="#4F5252" d="M251.86639524 182.2375458l9.22585645 7.48492725 8.02802333-18.80459807 14.38519032-33.6977366 1.8252072-4.77420604-9.73937453-3.62242452-15.94492551 35.6874349-2.5133661 4.34612135-.58505912 2.75864175-4.68155204 10.62183998z"/><path fill="#BB917A" d="M256.54815532 171.61472485l-1.85532975-11.2742277 16.59025265-.14112756-2.162802 10.7185032-9.4739029-6.40693279-3.098218 7.10378485z"/><path fill="#D7B69E" d="M269.1204834 170.91689359l20.23155084-14.08098127-5.82978953-19.60813057-11.73436497 15.07244612-2.93271916 9.47572973.26532282 9.14093599z"/><path fill="#E4E4E3" d="M303.26346907 99.406533l-20.73248488 34.28669166-4.96881587-1.83785785 23.5485982-37.08635433 2.15270255 4.63752052zM304.59004342 101.77938283l-19.37957508 32.22144214 1.7510529.37136735 19.25765932-30.417484-1.62913714-2.1753255z"/><path fill="#E0C3AE" d="M283.52245143 137.22680976l-16.5532661-2.45774582-12.27733928 25.57122986 14.16310553 1.436647 14.66749985-24.55013104z"/><path fill="#464646" d="M261.81167595 106.29857841c-2.81243337 13.26104643 5.65837344 26.29199527 18.91941987 29.10442864 13.26104643 2.81243337 26.29199527-5.65837344 29.10442864-18.91941987 2.81264092-13.26202506-5.65837345-26.29199527-18.91941987-29.10442864-13.26104643-2.81243337-26.29178772 5.6573948-29.10442864 18.91941987zm4.80218968 1.01845949c2.24998829-10.60903324 12.67474623-17.38567796 23.28377947-15.13568967 10.60903324 2.24998828 17.38567796 12.67474622 15.13568967 23.28377947-2.24998828 10.60903324-12.67474622 17.38567795-23.28377947 15.13568967-10.60903324-2.24998829-17.38567795-12.67474623-15.13568967-23.28377947z"/></g><g display="block"><path fill="#50A1A2" d="M304.4249978 257.51001549l-1.32200002 52.2879982-9.03399992-10.22699929 1.02199984-25.05700016 9.3340001-17.00399875z"/><path fill="#368D8F" d="M381.51499557 269.65501595l-2.68600034 46.02399826 11.89100027-11.76099873 2.30100012-30.81000042-11.50600005-3.45299911z"/><path fill="#1C7678" d="M407.53499985 310.70001602l-58.23699904 7.11000061-16.87599992-1.36300087-49.93299866-10.98899936 64.76299882-29.4100008 60.2829988 34.65200042z"/><path fill="#4F5252" d="M295.48799896 261.18601608l.74699974 62.35399914 12.81600094 20.76299954 20.96800041 23.81699943 6.81999874-37.70599937 6.09100152-32.22299958-47.44200135-37.00499916zM395.22299576 271.46301651l-1.08300019 64.77199936-18.00599956 3.855999-22.74400044-7.9639988-4.4489994-14.43600083-6.01000023-19.49999952 52.29199982-26.72799921z"/><path fill="#464646" d="M353.3900013 332.12701416l11.53399944 33.60399914 16.7789998 5.4819994 14.90499926-1.7139988-2.46699905-33.2640009-40.75099945-4.10799884z"/><path fill="gray" d="M364.92399883 365.72901249l-8.77600002 22.61400032 16.30900002 2.74100018 27.92700004-2.74100018-3.77600098-18.84399986-31.68399906-3.77000046z"/><path fill="#464646" d="M296.2349987 323.54001617l40.6040001 6.8730011-1.68899918 40.79299927-24.53000069-1.3730011-7.3050003-10.96299934-7.07999993-35.32999993zM395.2239952 271.46301508l-52.29299997 26.72800016-47.44300008-37.00499916 48.35600006-4.57100105 51.38 14.84800005z"/><path fill="gray" d="M303.31499922 358.87100983l-28.47900068 21.92500019 30.54200066 2.04699993 30.15000068-2.04699993-.37800026-9.59100014-31.8350004-12.33400005z"/><path fill="#4F5252" d="M335.52799988 386.27801776h-60.69200134v-5.48199987h60.69200134v5.48199987z"/><path fill="#71C4C5" d="M342.04799843 254.61501503l-7.23999977 66.77400017-53.6950016-15.6819992 16.94300079-57.4580002 43.99200058 6.36599923z"/><path fill="#4F5252" d="M400.38499832 393.82600665h-44.23600006v-5.48199987h44.23600006v5.48199987z"/><path fill="#71C4C5" d="M341.54800034 254.61501312l2.15800094 67.41200257 64.82799912-10.07700158-15.94000054-62.15300178-51.04599952 4.8180008z"/><path fill="#50A1A2" d="M393.91500235 241.08301544l3.3409996 27.3479991-11.65100002 12.4739995-4.09100008-11.2489996 12.4010005-28.572999z"/><path fill="#368D8F" d="M297.64799857 230.9610138l-5.04599976 36.39500045 1.23899984 6.6590004 10.5829997-17.00400067-6.77599978-26.05000019z"/><path fill="#6E7073" d="M369.7529955 270.08101273c0 2.54200005 2.06100034 4.60300016 4.60300023 4.60300016 2.54199998 0 4.60100023-2.0610001 4.60100023-4.60300016s-2.05900025-4.60300017-4.60100023-4.60300017c-2.5419999 0-4.60300024 2.06100011-4.60300024 4.60300017zM318.92899704 270.28401262c-.23500013 2.5299999-2.4790001 4.39299982-5.00900018 4.15800017-2.53100002-.23500014-4.39099992-2.47700024-4.15700019-5.00900019.23500014-2.53000009 2.47800017-4.3909999 5.00900019-4.15700018 2.53100001.23600006 4.39199984 2.47700024 4.15700018 5.0080002z"/></g><g display="block"><path fill="#CECECD" d="M228.61999893 340.73499298l8.12700272-215.70500183-125.60600281 23.6000061 2.5850029 232.0019989 114.8939972-39.89700317z"/><path fill="#C4C4C4" d="M236.8730011 125.52999878l-.64699555-.60599995-105.50600361-52.39799785L30.8560028 90.78099823l.40999603 3.1970005 79.25000382 55.90199852 126.35699844-24.34999847z"/><path fill="#9DA0A1" d="M111.3900032 149.8789978l2.33600235 230.7539978-76.49200058-69.4529953-6.12800216-220.39899444 80.2840004 59.09799194z"/><path fill="#EBEBEB" d="M218.49900818 275.36600876l-1.52400208 59.63399887-86.16999817 27.77399826-.97000122-64.28299904 88.66400147-23.1249981z"/><path fill="#CECECD" d="M200.6740017 286.94699478v15.80099964l-42.16199876 10.82499981V297.6119945l42.16199875-10.66499972z"/><path fill="#6E7073" d="M196.84100717 299.90500617l-1.98599994-1.51900005v-5.63100005l1.92499995-.46000003.061 7.61000013zM196.84000397 299.90500784l-1.98600102-1.51900005-32.15100002 6.7090001v3.63000012l34.13700104-8.82000017z"/><path fill="#4F5252" d="M194.85500717 292.7540021v5.6329999l-32.15200043 8.21299981v-5.98799985l32.15200043-7.85799987z"/><path fill="#EBEBEB" d="M219.64500427 209.90600204L218.1210022 265.960001l-86.16999817 24.0739994-.97000122-60.4849987 88.66400146-19.64299965z"/><path fill="#EBEBEB" d="M201.82100487 220.37299728v14.862l-42.16199875 9.17999982V229.4019971l42.16199875-9.0289998z"/><path fill="#6E7073" d="M197.98801035 232.4710064l-1.98599994-1.477v-5.296l1.92399996-.38699985.06199998 7.15999984z"/><path fill="#6E7073" d="M197.98700714 232.46999907l-1.98600101-1.47600007-32.15100003 5.546v3.41400004l34.13700104-7.48399997z"/><path fill="#4F5252" d="M196.00201035 225.69700384v5.29700017l-32.15200043 6.9610002v-5.63200017l32.15200043-6.6260002z"/><path fill="#EBEBEB" d="M203.5019989 149.90299702l-.10499954 15.59700036-44.31200028 9.77300048.1060009-15.75500036 44.31099892-9.61500048z"/><path fill="#6E7073" d="M199.40300393 162.78299928l-2.09899998-1.18799997.07099998-6.33100009 2.01599992-.21099996.01200008 7.73000002z"/><path fill="#6E7073" d="M199.40400314 162.7829976l-2.09899997-1.1880002-33.77900029 5.84700013-.02400016 3.58300018 35.90200042-8.2420001z"/><path fill="#4F5252" d="M197.37500763 155.26400137l-.07100105 6.32999986-33.78899956 7.33199984.04000091-5.91199982 33.8199997-7.74999988z"/><path fill="#4F5252" d="M231.87701035 254.29599667l-2.37700272 63.08099842-99.90799713-97.74099732 102.28499985 34.6599989z" opacity=".1"/><path fill="#4F5252" d="M129.59199905 185.55599785l-1.07100296-29.0529995 93.0320015-15.94999885.49000168 25.6069991-80.70100022 26.6809991-11.75-7.28499985z"/><path fill="#E4C728" d="M215.2840004 149.8069992l-1.01599884-2.89900016-3.50899887-1.74100113-40.0840006 8.50800133-3.3249998-1.54700089-28.26100159 7.15400028-3.32600021 4.35000039 1.66300201 32.59999942 3.22000122 1.9110012 74.63799668-48.33600043z"/><path fill="#CCAC13" d="M140.6470108 196.2310028l-2.2859993-1.4829998-1.48800277-30.24700021 1.88700104-3.76999998 28.96000003-7.34700012 2.67900038 1.25699997 39.71400023-8.6040001 2.13899994.6760006 3.03300094 3.09399986-74.63800049 46.42399979z"/><path fill="#F4D65D" d="M217.40999603 147.58399963l-43.31599807 8.99099923-1.84700013-1.54699898-27.33800125 5.21999931-3.8789978 5.12400055-.38199997 30.85899925 13.12899971 8.52099991 64.83399773-43.72999954v-11.2140007l-1.20100022-2.22399903z"/><path fill="#EBEBEB" d="M172.43100357 162.2210024l-.83199978-5.16399986-25.49100017 5.41399983-.83099938 6.12999985 27.15399933-6.37999982z"/><path fill="#E4C728" d="M226.3670082 155.09700012l-1.01599883-2.89999962-3.50899887-1.74000167-40.08400059 8.50699996-3.3249998-1.54699897-28.2610016 7.15400028-3.3260002 4.34999943 1.663002 32.60000038 3.22000123 1.91200065 74.63799667-48.33600044z"/><path fill="#CCAC13" d="M151.73000336 201.52200317l-2.2859993-1.4829998-1.48800278-30.24700022 1.88700104-3.76999998 28.96000004-7.34700012 2.67900038 1.25600052 39.71400022-8.60300064 2.13899994.6760006 3.03300095 3.09399986-74.6380005 46.42399978z"/><path fill="#F4D65D" d="M228.49300385 152.87400055l-43.31699801 8.99099922-1.84700012-1.54699898-27.33800078 5.21999932-3.8789978 5.12400055-.38199997 30.8599987 13.1289978 8.52000046 64.83399964-43.72999955v-11.2140007l-1.20000076-2.22399902z"/><path fill="#EBEBEB" d="M183.51399612 167.51200277l-.83199977-5.16399986-25.48999978 5.41399983-.83100032 6.12999984 27.15299987-6.37999981z"/><path fill="#E4C728" d="M236.61900711 160.51100159l-1.01599884-2.89999962-3.50899887-1.74000168-40.08400059 8.50699997-3.3249998-1.54699898-28.26200104 7.15400028-3.32500077 4.34999943 1.66300202 32.60000038 3.22000122 1.91200066 74.63799667-48.33600044z"/><path fill="#CCAC13" d="M161.98101044 206.93499756l-2.28499985-1.48200035-1.48900223-30.24699974 1.88700104-3.77099991 28.96100044-7.34700012 2.67799998 1.25699997 39.71400022-8.6040001 2.13999939.67700005 3.0320015 3.09300041-74.6380005 46.42399979z"/><path fill="#F4D65D" d="M238.74399567 158.28700256l-43.316998 8.98999977-1.84700013-1.54700088-27.33800077 5.22100067-3.8789978 5.12400055-.38199998 30.8599987 13.1289978 8.52000046 64.83399964-43.72999954v-11.21500015l-1.20000076-2.22299958z"/><path fill="#EBEBEB" d="M193.7650032 172.92600423l-.83199977-5.16399985-25.48999978 5.41399982-.83199977 6.12999985 27.15399932-6.37999982z"/><path fill="#E4C728" d="M248.44099808 166.98799896l-1.01599884-2.89999962-3.50899887-1.74000167-40.0840006 8.50699996-3.3249998-1.54699897-28.26100159 7.15400028-3.32600021 4.34999943 1.66300201 32.60000038 3.22000122 1.91200065 74.63799668-48.33600044z"/><path fill="#CCAC13" d="M173.8030014 213.41200256l-2.28499984-1.4829998-1.48900223-30.24700022 1.88700104-3.76999998 28.96100044-7.34700012 2.67799997 1.25699997 39.71400023-8.6040001 2.13999939.6760006 3.0320015 3.09399987-74.6380005 46.42399978z"/><path fill="#F4D65D" d="M250.5660019 164.76499939l-43.31599809 8.98999977-1.84800004-1.54700088-27.33700133 5.22100067-3.8789978 5.12400055-.38299942 30.85899925 13.12999916 8.5209999 64.83399773-43.72999954v-11.21500015l-1.20100022-2.22299957z"/><path fill="#EBEBEB" d="M205.58800125 179.4030016l-.83199978-5.16399985-25.48999977 5.41399983-.83100033 6.12999984 27.15299988-6.37999981z"/><path fill="#E4C728" d="M260.44900513 175.77400208l-1.0170021-2.89999962-3.50899888-1.74000168-40.08300066 8.50699997-3.32500029-1.54699898-28.26200103 7.15400028-3.32499695 4.34999943 1.6629982 32.60000038 3.22000122 1.91200066 74.63800049-48.33600044z"/><path fill="#CCAC13" d="M185.81000519 222.19799805l-2.28499985-1.4829998-1.48900223-30.24700022 1.88700104-3.76999998 28.96100044-7.34700013 2.67799998 1.25699997 39.71400022-8.60400009 2.13899994.6760006 3.03300095 3.09399986-74.6380005 46.42399979z"/><path fill="#F4D65D" d="M262.57300568 173.55099487l-43.316998 8.98999977-1.84700013-1.54599952-27.33800078 5.21999931-3.8789978 5.12400055-.38199997 30.85899925 13.1289978 8.52099991 64.83399964-43.72999954v-11.21500015l-1.20000076-2.22299958z"/><path fill="#EBEBEB" d="M217.59399796 188.18900472l-.83199978-5.16399986-25.48999977 5.41399983-.83100033 6.12999985 27.15299988-6.37999982z"/><path fill="#DDDDDC" d="M281.02900696 179.05500412l-1.52400208 59.63299847-86.16999817 27.77499866-.97000122-64.28299904 88.66400147-23.12499809z"/><path fill="#EBEBEB" d="M263.20300865 190.63399792v15.80200004l-42.16199875 10.82600022v-15.96200014l42.16199875-10.66600012z"/><path fill="#6E7073" d="M259.36999887 203.59300208l-1.98599994-1.51900005v-5.63100004l1.92499995-.46000004.061 7.61000013z"/><path fill="#6E7073" d="M259.37000275 203.5940032l-1.98600102-1.51999998-32.15100002 6.71000004v3.63000011l34.13700104-8.82000017z"/><path fill="#4F5252" d="M257.38500595 196.44300556v5.63099992l-32.15200043 8.21299994v-5.98699992l32.15200043-7.85699994z"/><path fill="#A2A2A2" d="M281.02900314 179.05500507l-9.45899963-2.92000007-84.33100128 20.30899954 5.12599945 5.73699998 88.66400146-23.12599945z"/><path fill="#858585" d="M192.61500263 201.43100357l.72000003 65.03199768-6.84500003-4.59999847-.25-66.16999817 6.375 5.73799896z"/><path fill="#858585" d="M187.23999977 221.29800797v4.61800003l-57.6479988-35.7630005v-4.59700011l57.6479988 35.74200058z"/><path fill="#A2A2A2" d="M187.23999977 225.91599679v30.38600135l-57.6479988-36.66600132v-29.48300076l57.6479988 35.76300073z"/><path fill="#734D5F" d="M173.80900896 212.97100067l-1.37800014-.85400009v-32.10700035l4.80000019-1.4810009-3.04600013 4.02300072-.37599992 30.41900062zM205.4030075 172.20900345l38.86400033-7.50500012 1.21999931 1.11400009-38.23799896 7.93799996-1.84600067-1.54699993z"/><path fill="#EBEBEB" d="M163.50200462 164.10399914l24.34899998-8.23300004 33.9630003-1.61099982-36.63800001 7.60500001-1.8470006-1.54700005-19.82699967 3.7859999z"/></g></g></svg>