<svg xmlns="http://www.w3.org/2000/svg" viewBox="0 0 800 400" width="800" height="400" style="width:100%;height:100%"><defs><clipPath id="a"><path d="M0 0h800v400H0z"/></clipPath></defs><g clip-path="url(#a)"><g display="block"><path fill="#2B2B2B" d="M711.57901001 355.60299206L678.07601929 399.998991h-182.6570015l-110.64500046-42.20699978 77.59500122-14.9840002 56.49899865 2.15800094L711.57901 355.60299206z" opacity=".1"/><path fill="#8F8F8F" d="M454.95702553 249.6679802v105.93700027l11.43799972 3.70800018-2.89999985-110.16600036-8.53799987.5209999zM605.18402386 243.15099716v112.45299912l12.21199989 3.70899963V239.0909958l-12.2119999 4.06000137z"/><path fill="#C4C4C4" d="M466.39402723 359.31298447l11.20699978-3.70899964-3.47600007-108.0510025-10.62999987 1.59300232 2.89900016 110.16699982zM617.39701843 359.31298828l12.75-3.70999908-2.01000023-115.38600159-10.73999977-1.1269989v120.22299957z"/><path fill="#8F8F8F" d="M492.68902779 244.18999481v144.0550003l11.43799972 6.84100343-2.89899993-151.60500336-8.5389998.70899963zM651.91603374 235.3299942v152.91399384l12.2119999 6.84300232V229.80699158l-12.2119999 5.52300262z"/><path fill="#C4C4C4" d="M504.12702131 395.08699799l11.20699978-6.84300232-3.47600007-146.92700196-10.62999988 2.16400147 2.89900017 151.6060028zM664.1280284 395.08699036l12.75199985-6.84300232-2.01100016-156.90399933-10.7409997-1.53299713v165.27999878z"/><path fill="#8F8F8F" d="M454.58202171 228.2989924l31.81299973-9.1849997 184.854002-.81200028 8.05499267 6.8590002L514.36902237 244.774992l-13.23800087.45800018-46.54899979-16.93399977z"/><path fill="#399FB9" d="M509.46901703 218.04598999l-33.1309967-9.5710001L593.90001677 181.04599l50.55999756 12.2329998L509.46901703 218.04599z"/><path fill="#73CFE4" d="M643.83602905 193.52899551l11.0320015-64.37000084-49.68300057-6.5720005-11.6610012 58.70900154 50.31200027 12.2329998z"/><path fill="#308FA6" d="M654.36803055 129.65898895l33.19800186-4.42399978-16.31900024 100.02000045-168.6780014 17.91400147 7.40000152-26.6230011 128.74099731-24.3920002 15.65800095-62.49500084z"/><path fill="#DDDDDC" d="M501.06801605 244.98199725l13.6190033-1.56599998 164.62000274-18.33000064.73999787 16.78300068-170.91999817 15.52800014-8.2460022.74900055.18699646-13.16400075z"/><path fill="#858585" d="M609.8930254 130.75100136l-9.44099903 46.4850006 35.11799907 9.39699937 12.77399922-52.70899964-38.45099926-3.17300033z"/><path fill="#464646" d="M612.99901962 150.30099726l12.03999996 11.15400028-3.42199993 2.97799969-8.93500042-9.69499994-2.47899913 3.47300005 6.81699943 9.28800035-.82299995 3.6079998 5.66700008 2.32999897.3-4.06999874 8.72900002-8.53900051-11.60100007-10.74799967 3.13700005-1.71500063 8.37799957 7.19600046 3.22399998-4.32700003-8.2159996-5.30200004.55499983-5.88699913-5.56799984.12999916-.60099996 4.16899967-7.20200002 5.95700026z"/><path fill="#FFF" d="M604.64402676 178.3579979l20.06899976-46.38400078 5.4340005.44799995-20.6880002 47.22400093-4.81500006-1.2880001zM611.38202858 180.19399643l20.52200031-47.62599945 3.24800015.26799965-21.07499981 48.07900047-2.69500065-.72100067z" opacity=".3"/><path fill="#73CFE4" d="M492.4700241 208.0679984l100.04000092-22.39399957 32.20400238 7.41899967-114.13800048 21.65499974-18.10600281-6.67999983z"/><path fill="#399FB9" d="M494.71001816 210.73299217l105.74099731-24.22200012 4.1930008.54399967-107.20599747 24.99199963-2.72800064-1.31399918zM502.4770317 212.8639927l108.90499879-24.54300023 3.33499908 1.09899998-110.48799896 24.50700092-1.7519989-1.06300068z"/><path fill="#399FB9" d="M576.71402931 187.94400167l3.23800087-1.88199996 37.53199959 10.37200021-8.3039999 2.41400004-32.46600056-10.90400029zM563.64202785 190.84500074l19.97800017 11.22000027 8.16400003-1.81900024-23.81500053-10.50899983-4.32699967 1.1079998zM543.68702984 194.993999l10.63499999 13.08400011s4.52100015-.60500001 4.52100015-1.1590004c0-.55299997-12.40999985-12.74300002-12.40999985-12.74300002l-2.7460003.81800031zM507.09101963 203.81198978l16.68100023 9.25500012 4.20300055-.18499994-15.02900028-11.49500037-5.8550005 2.4250002zM529.21602678 197.60899258l8.95500017 12.68899965 3.98700022-.73000002-6.4490002-12.89399958-6.49300019.93499995z"/><path fill="#5EC0D9" d="M605.18402863 122.58699457s31.21400165-7.00500004 32.45700168-6.59799997c1.24100018.40600014 50.3000021 9.36999988 50.3000021 9.36999988l-33.07400227 4.5500002-49.68300151-7.3220001z"/><path fill="#E8EF78" d="M647.320014 125.15699577c-.61400008-4.75100135 1.023-58.13000106 1.023-58.13000106l-6.57000017 7.24699974v45.71300125l5.54700017 5.17000007z"/><path fill="#B8C645" d="M647.2870264 66.99099731l7.57999993 3.61700058-3.25599998 48.04599953-4.29099995 6.50300026-.033-58.16600037z"/><path fill="#D9E253" d="M699.90901184 29.041996l-11.39699936 66.04000092-95.0949974-12.10300064L584.681015 18.2959938 699.90901184 29.041996z"/><path fill="#B8C645" d="M699.90802348 29.0419941l8.57800042-6.57599831-10.51100045 66.85499954-9.46300048 5.76099777 11.3960005-66.039999z"/><path fill="#E8EF78" d="M708.48701477 22.46599531L600.34401321 10.18999577l-15.6629982 8.10599958 115.22800065 10.7459997 8.57799911-6.57599974z"/><path fill="#BEDB8E" d="M688.51203918 40.37199593l-9.30400085 45.72800064-70.70399857-9.1210003-8.15999984-45.71700095 88.16799926 9.1100006z"/><path fill="#A2A2A2" d="M501.1310215 245.23299193l-46.17399979-17.05800032v21.4930005l45.92399979 8.47899962.25-12.9139998z"/><path fill="#5EC0D9" d="M476.338027 208.47500038l-7.73700046 22.5289998 34.05099964 12.17399932 8.81700039-25.63199902-35.13099957-9.0710001z"/></g><path fill="#2B2B2B" d="M355.11499786 373.02200413l-97.06500244 26.97799968-130.20200348-18.02399969 77.59500122-14.98399973 56.49900055 2.158 93.17300415 3.87199974z" opacity=".1" display="block"/><g display="block"><path fill="#C09C84" d="M234.23919498 135.9022097l5.08789933-79.91366047 53.7631981-14.40631362 26.19355542 35.20080186-22.85712548 71.35767771-62.18752737-12.23850548z"/><path fill="#835840" d="M273.86069876 143.65770271l-26.52057302 26.56710331-18.51715135-35.39456696 45.03772437 8.82746365z"/><path fill="#A77D61" d="M239.32610895 55.98838197l53.7641847-14.40614808 25.8459248 33.89710955-5.43674526 18.04630526-23.02066095-42.71469084-51.15270329 5.17742411zM244.43335558 162.61139964l-10.23972088-26.46232583 7.46977073 1.27632402L239.325614 55.9913427l-16.80710766 18.8601151.84437715 16.84522488-9.27087871 8.37360934 9.2293029 37.98327482 10.67391548 48.89488708 26.12793155 6.51173816 13.73655797-49.80265228-29.4263571 18.95385984z"/><path fill="#95627B" d="M327.49081813 51.83859422l2.28388144 52.1446223-54.66180718-86.5321131 17.97690878 24.1340881 34.40101696 10.2534027z"/><path fill="#464646" d="M239.32511415 55.99429812l.0026354-.00361271-19.5772786-22.80608076 19.5746432 22.80969347z"/><path fill="#734D5F" d="M193.25443748 67.24045213l17.54876416 9.01680521 11.71513772-1.40481801 16.80661094-18.85715528-19.57447825-22.81068018-26.49603457 34.05584826z"/><path fill="#6E7073" d="M327.49163879 51.83974957l2.28289676 52.14445673-2.28289676-52.14445673z"/><path fill="#95627B" d="M275.23715466 17.46591531l17.85281278 24.1182931-54.67501501 14.67280451-20.33751015-22.77166895 57.15971238-16.01942866z"/><path fill="#734D5F" d="M327.49179794 51.83875995l-39.01336966-9.02015982-13.36554138-25.3674986 52.37891104 34.38765842z"/><path fill="#532F42" d="M329.77552406 103.98437493l-28.03547663 27.56775235 14.9382877-48.30160248 13.09718893 20.73385013z"/><path fill="#734D5F" d="M223.07382858 85.91368882l-5.0292677-16.08565939 8.58980007-7.02487482 13.21527702-8.0105133-16.7758094 31.12104751z"/><path fill="#C09C84" d="M213.02096963 92.30417331l10.34191213-.60749189-.6128481-16.88336234-11.94798501 1.44476077-1.79290797 7.95482519 4.01182895 8.09126827z"/><path fill="#835840" d="M220.13287264 88.20675617l.09593894-8.72386691-5.62338111-.03902168 5.52744217 8.76288859zM214.09200337 100.07028888l9.27104444-8.37459495-10.34207743.60847782 1.07103299 7.76611713z"/><path fill="#532F42" d="M203.39161135 104.84198433l18.9529439 29.37753034-8.25255145-34.14922837-3.43255462-24.79141324-17.43313406-8.48628777 10.16529623 38.04939904z"/><path fill="#734D5F" d="M209.27872044 53.59066505l-10.52721376-4.6165588-2.63293805-9.05495909 11.09239747-19.86363271 12.53933974 13.13007785-10.4715854 20.40507275z"/><path fill="#532F42" d="M219.75145782 33.18476866L201.5358847 56.98370155l-2.78322652-8.01041903 20.99879963-15.78851386z"/><path fill="#95627B" d="M218.88574531 34.08771634l-11.6728072-14.03187223 32.5544105-18.5181265 40.80591922 2.33992187-5.46037716 13.57346268-56.22714536 16.63661418z"/><path fill="#734D5F" d="M279.85960779 3.53860552l19.0771675 8.00220223 4.90012183 14.32689463-6.04768763 8.04452987-22.67631703-16.46112924 4.74671533-13.91249749z"/><path fill="#532F42" d="M275.11288683 17.451102l28.72597686 8.41693082-.01620556 10.43274688-28.7097713-18.8496777z"/><path fill="#734D5F" d="M217.95616146 34.47797309l3.80164524-2.33391344 24.98264851-15.87713029 28.3714478 1.1840077s-56.3139427 17.54479323-56.97419578 17.33439625c-.66025103-.2103976-.18154577-.30736022-.18154577-.30736022z"/></g><g display="block"><path fill="#A77D61" d="M280.8939787 76.12807903l.56041159 7.87799356-6.10248968 22.32514848-8.43092303-19.33876598-17.46547369-16.26635981 12.53896249.74556013 18.89951231 4.65642362zM310.77827523 85.14032595l-14.12499453 6.0272046-9.26824715 17.25905807-.02824765-23.37529847 1.87310038-4.74103472.28398868-.1631675 11.03410152 1.05328142 10.23029875 3.9399566z"/><path fill="#532F42" d="M291.03551814 75.3854902l10.3264848 4.38709648 9.41561641 5.36560105-8.29985233-2.39444905-12.96372827-2.59763632-.28398772.16316754 1.8054671-4.9237797z"/><path fill="#835840" d="M275.35321778 106.3294093l12.03115904 2.09503757-6.34822745 5.66474737-5.6829316-7.75978494z"/><path fill="#532F42" d="M279.3368018 71.22295611l1.31054225 5.15974992-16.97607528-3.94969069-14.4666393-1.70448725 14.84755614-1.2603949 15.28461619 1.75482292z"/><path fill="#835840" d="M259.64737971 118.72463904l14.56068003-1.26097352 6.04209976 2.77736492 5.97446628-.48095943 3.20934268 4.82497872-29.78658875-5.86041069z"/><path fill="#C8AC9B" d="M281.45554149 84.00524784l5.90107633 1.04702463.02775908 23.37217393-12.03099331-2.09602318 6.1021579-22.32317538z"/><path fill="#A77D61" d="M289.43495388 124.58521664l-10.97792185 3.76270888-18.81080396-9.62246483 29.7887258 5.85975595z"/></g><g display="block"><path fill="#2B2B2B" d="M297.23810408 94.07149401c-.4629125 2.01552366-2.47349772 3.2733819-4.48804682 2.81069323-2.01552375-.46291252-3.27285486-2.47132475-2.80994236-4.4868484.46268869-2.0145492 2.47012613-3.2721042 4.48564987-2.80919167 2.0145491.46268867 3.275028 2.47079765 2.8123393 4.48534684zM267.98474629 87.35277111c-.4629125 2.01552366-2.47057382 3.27405344-4.48609757 2.81114092-2.01552366-.4629125-3.2748041-2.47177243-2.8118916-4.48729609.46268868-2.0145492 2.47207546-3.27165648 4.48759911-2.80874398 2.01552375.46291252 3.27307875 2.47034996 2.81039006 4.48489915z"/></g><path fill="#399FB9" d="M194.73243695 165.16655677c-7.2853257 18.50714961-14.5705047 37.01528785-21.854695 55.52327913l28.43070977-7.12315005 8.86302039-20.93851198-1.26975102-35.6830512-14.16928414 8.2214341z" display="block"/><g display="block"><path fill="#308FA6" d="M244.87917479 216.02578835l-6.85678496.0543329-.11507427-.76611242-.29224488-1.92274485c-1.88533824-12.52945414-3.74128283-25.00913991-5.61765322-37.54266471L207.4905365 157.6612136l-5.01795 37.7609458 17.61962107 8.71666062-6.7613315 29.5165027 16.42189262 6.4840795"/><path fill="#27788B" d="M238.02138851 216.08013067l-.1140739-.76612017-.29324428-1.9227367-2.10313938-14.01777456-.0159993.00012677-32.8002409-4.69624895.61118793-.10484464 10.02599585 39.0827824 9.56310883 6.53843014 15.12640515-24.11361429zM231.99641519 175.84860769l3.18997326 21.3123926 16.99701742 2.080385.44619508-1.49158224 6.13629942-20.3052589 12.029816-12.94372648-64.4612155 3.13087024 25.66191432 8.21691978z"/><path fill="#399FB9" d="M233.27014102 178.83760604l-27.27261521-20.4145393 20.60039724-9.3705254 6.67221797 29.7850647z"/><path fill="#308FA6" d="M277.01020315 231.55167722l-3.18352812-16.96530669 11.2159656-16.58139142 9.788435-40.8738447-17.24186751 9.29791253-18.82230642 11.01548927c-3.88628474 12.85219618-7.77252289 25.71039318-11.6567999 38.56357436l6.4133775 22.73889713 23.48672385-7.19533048z"/><path fill="#27788B" d="M277.0102036 231.55167436l8.6835379-36.81796115 1.06697091-.38646676-34.0627657.4169179-5.58784495 21.24394217 6.41337844 22.73889545 23.4867234-7.19532761z"/><path fill="#399FB9" d="M259.01886969 177.69154418l18.57034926-11.26149904 17.7438238-9.05288092-23.97889143-4.68714556-12.33528163 25.00152552z"/><path fill="#8BDFDC" d="M211.67685585 155.79198333l8.30987989-3.70796164 4.43023722 25.63170063-10.39867352.08239868-2.34144359-22.00613767zM280.31655028 154.59806506l7.76898374 1.35548315-9.41725615 21.33328932-10.17724715 1.64969263 11.82551956-24.3384651z"/><path fill="#71CACC" d="M214.05241083 176.54981045l44.49849898.89643441 20.11636677-.1594013.8858715 20.67762938-35.46703338 13.38745054-34.08022197-16.80448477 4.0465181-17.99762826z"/><path fill="#50A9AA" d="M210.00689216 194.5474327l-2.0008631 43.31321463 74.95457047-4.01104411-3.40645993-35.88613476-69.54724744-3.41603576z"/><path fill="#369395" d="M217.16073336 183.51940105l-.63636655 6.77125486 16.15349238-.12799964.6308992-7.461233-16.14802503.81797778z"/></g><g display="block"><path fill="#6E7073" d="M289.8389864 299.07499123l-3.69699955 56.52799987h-15.61600066l-9.3709998-54.51300048 28.684-2.0149994zM229.26298904 301.26299095l-14.68100023 55.43499947-16.20700025-.05799866.3550005-34.3770008.1630001-25.5529995 30.36999988 4.5529995z"/><path fill="#5EC0D9" d="M270.52698898 355.6029892l-2.0340004 17.41799926h43.94200135v-8.14999961l-26.2930007-9.26799965h-15.61500025zM214.58198738 356.69898987l10.42099953 20.64299965h-38.05199814l11.42399883-20.70100022 16.20699978.05800057z"/><path fill="#737373" d="M186.95098877 377.34198904v4.63399982h37.59999847l.45199967-4.63399982h-38.05199814zM268.49298859 377.37399054h43.94200134v-4.35200024h-43.94200134v4.35200024z"/></g><path fill="#71CACC" d="M207.7421691 236.11267322l-17.69513836 76.40560886 104.5464737-2.87848573-11.649771-77.54012442-75.20156435 4.01300129z" display="block"/><g display="block"><path fill="#A77D61" d="M198.70728403 243.7205667l4.21093786 5.73766465-6.32983289 6.9373128-24.77595416-6.1943701-3.5670701-17.15111913 30.46191929 10.67051179z"/><path fill="#D1A0B8" d="M192.85717453 237.08882046l9.26818835 12.77919456 37.1310959-40.04452503-12.183493-3.16959702-34.21579125 30.4349275z"/><path fill="#EBEBEB" d="M192.60184981 218.73821842l.25532629 18.35059899 3.66497516 5.04198963 34.1047972-34.60990877-2.30299777-13.92639009-35.72210088 25.14371024z"/><path fill="#B3879D" d="M132.69907648 211.8690897l2.6015127 22.99732255 66.82576492 15.00149064-2.1702856-27.22760576-14.29150391-8.9402155-39.5779358-5.71242646-13.3875523 3.88143452z"/><path fill="#D1A0B8" d="M235.88673175 192.91711659l-22.28406559 18.43468283-13.64747876 11.28960033-25.02178748-4.08530427-5.11249857-30.72001793 51.90781932 2.13379893 14.15801108 2.9472401z"/><path fill="#3E8E6E" d="M206.0508404 186.46897084l15.67799283 3.50190065-46.7944382 28.58511238-6.05345757-11.6906483 37.16990295-20.39636473z"/><path fill="#EBEBEB" d="M208.8378972 172.50519451l2.62483712 15.17009586-40.03530158 23.99727282-3.90718218-16.84456533 30.84522804-18.40884102 10.4724186-3.91396233z"/><path fill="#73C5A3" d="M215.69596016 167.18157163L172.00394601 200.693176l-9.57828508 2.17443213-35.76150246-4.1444761-11.18879057-5.64811394 31.25478061-22.82184358 51.18835843-7.42893445 17.77745322 4.35733157z"/><path fill="#52AE89" d="M115.47525705 193.0740212l3.14730563 16.56822879 14.076519 2.2268348 42.23531325 6.68689813-2.99171017-18.40435515-18.78572316-.4240693-37.68170455-6.65353727z"/><path fill="#B8C645" d="M110.52969441 186.35535013L98.43358407 196.8223548l54.72348613 2.9061977-.22753846-13.25643708-42.39983733-.1167653z"/><path fill="#EBEBEB" d="M102.36504569 176.90823318l4.01894328 13.01070467 46.59742771 1.82475776-4.60514372-16.58244897-35.99411816-1.3878592-10.01710911 3.13484574z"/><path fill="#E8EF78" d="M91.96392112 176.63061523l55.24887451 5.94037089 9.5375939-2.53413932 30.72729525-17.8500421 7.10699408-9.53730883-44.31099823-7.35883776-58.3097595 31.33995712z"/><path fill="#D9E253" d="M194.58456262 152.64850223l3.33382607 10.17474346-44.76143072 36.90431463-5.9442779-17.15756816 47.37188255-29.92148993z"/><path fill="#B8C645" d="M127.9953731 165.45767262l-6.20260248 3.06664158 25.10002654 3.16668817 5.90067745-4.12541362-24.79810151-2.10791613z"/><path fill="#835840" d="M170.62221467 244.94393517l1.19093984-11.37495747 18.2210053 5.38699896 12.19050931 12.03901768-31.60245445-6.05105917z"/></g><g display="block"><path fill="#399FB9" d="M295.0125396 157.3123555l-40.28417548 27.89029504 9.89920316 24.52528932 20.132253-10.69641152 10.25271931-41.71917283z"/><path fill="#A77D61" d="M214.78933723 193.92456828l28.07543833 9.82899086 10.4379059-18.24188457-39.00349184-4.24027732.4901476 12.65317103z"/><path fill="#308FA6" d="M251.8448257 185.5457629l-10.18999915 17.80651846 22.97274067 6.37565957-6.9655393-26.6580526-5.81720222 2.47587456z"/></g><g display="block"><path fill="#4F5252" d="M225.25924854 172.7958989l-3.86634218 7.88273304-16.90813308.84776254-3.60271265 26.0518097-16.96806273-1.630313-1.28649026-31.93052048-13.92594417-4.01847929-.90368205-5.1416644 25.79033303-7.21888856 31.67103409 15.15756045z"/><path fill="#9DA0A1" d="M225.25924825 172.79589928l-1.75148293-13.85252532-26.51345926-6.33708788-.90845113-5.71708956-30.28920478 5.04885857 1.46494795 9.1978726 57.99765015 11.6599716z"/><path fill="#27788B" d="M183.91479186 205.94849669l13.65681375-29.46215698-14.9433035-2.46836416 1.28648975 31.93052114z"/><path fill="#C4C4C4" d="M188.30423266 167.27869772l-4.6814673-18.31154466-17.8253152 2.97150584 2.0004314 12.91856792 20.5063511 2.4214709z"/><path fill="#EBEBEB" d="M183.8237527 162.93312606l-2.66534303-10.43215539-9.07757992 1.1120529 1.75279988 8.80748495 9.99012307.51261754z"/><path fill="#27788B" d="M192.26735166 162.57280086c-1.41109479 1.6760524-1.27858334 4.11123407.29662231 5.4385019 1.57440824 1.32666447 3.99662464 1.04389687 5.40832282-.63295302 1.41249552-1.67624646 1.27918667-4.11203147-.29522158-5.43869597-1.57580906-1.32647047-3.99802556-1.04370294-5.40972355.63314709z"/><path fill="#D9E354" d="M184.03238904 163.11481037l-1.43761483-4.306713-5.05744025-1.37378233-.88396906 3.16209295 7.37902414 2.51840238z"/><path fill="#464646" d="M200.88205872 207.57820512l-.37512876 2.25423508-15.94926836-1.24820414-.6436659-2.63634356 16.96806302 1.63031262z"/><path fill="#A77D61" d="M182.04925932 190.54627408l.12295188-8.88675976-7.32718895-3.99399642-.99842358-5.9130719 7.48118529 1.58122584 9.23853207.98224608.70760127 20.06996856-9.22465798-3.8396124z"/><path fill="#C09C84" d="M217.02803433 195.17011657l-20.03665697-.6440699-5.82746227-.1870251-.60825167-20.10515001 26.27884835 7.33330578.19352256 13.60293923z"/></g></g></svg>